<mxGraphModel dx="0" dy="0" grid="1" gridSize="10" guides="1" tooltips="1" connect="1" arrows="1" fold="1" page="0" pageScale="1" background="none" math="0" shadow="0">
  <root>
    <mxCell id="0" />
    <mxCell id="1" parent="0" />
    <mxCell id="node41" parent="1" vertex="1" value="ch.qos.logback:logback-classic:1.2.3" style="label;fontStyle=0;strokeColor=default;fillColor=none;align=left;verticalAlign=middle;overflow=hidden;spacingLeft=28;spacingRight=4;rotatable=0;points=[[0,0.5],[1,0.5]];portConstraint=eastwest;imageWidth=16;imageHeight=16;image=data:image/png,iVBORw0KGgoAAAANSUhEUgAAACAAAAAgCAYAAABzenr0AAAAV0lEQVR4XmNgGAVkglkrNpxBxujyNAejDqC6A3AZmLTV+T8yJqTeYduD/8gYJk4Q4DJw1AHDxgG41MMBLgWjDhh1wKgDRh0w6oBRB4w6gG4OGAWjYMQCAD3bML1XEuu8AAAAAElFTkSuQmCC">
      <mxGeometry x="2199" y="1963" width="236" height="25" as="geometry" />
    </mxCell>
    <mxCell id="node64" parent="1" vertex="1" value="ch.qos.logback:logback-core:1.2.3" style="label;fontStyle=0;strokeColor=default;fillColor=none;align=left;verticalAlign=middle;overflow=hidden;spacingLeft=28;spacingRight=4;rotatable=0;points=[[0,0.5],[1,0.5]];portConstraint=eastwest;imageWidth=16;imageHeight=16;image=data:image/png,iVBORw0KGgoAAAANSUhEUgAAACAAAAAgCAYAAABzenr0AAAAV0lEQVR4XmNgGAVkglkrNpxBxujyNAejDqC6A3AZmLTV+T8yJqTeYduD/8gYJk4Q4DJw1AHDxgG41MMBLgWjDhh1wKgDRh0w6oBRB4w6gG4OGAWjYMQCAD3bML1XEuu8AAAAAElFTkSuQmCC">
      <mxGeometry x="3103" y="1963" width="225" height="25" as="geometry" />
    </mxCell>
    <mxCell id="node47" parent="1" vertex="1" value="com.alibaba.cloud:spring-cloud-alibaba-nacos-config:2.1.0.RELEASE" style="label;fontStyle=0;strokeColor=default;fillColor=none;align=left;verticalAlign=middle;overflow=hidden;spacingLeft=28;spacingRight=4;rotatable=0;points=[[0,0.5],[1,0.5]];portConstraint=eastwest;imageWidth=16;imageHeight=16;image=data:image/png,iVBORw0KGgoAAAANSUhEUgAAACAAAAAgCAYAAABzenr0AAAAV0lEQVR4XmNgGAVkglkrNpxBxujyNAejDqC6A3AZmLTV+T8yJqTeYduD/8gYJk4Q4DJw1AHDxgG41MMBLgWjDhh1wKgDRh0w6oBRB4w6gG4OGAWjYMQCAD3bML1XEuu8AAAAAElFTkSuQmCC">
      <mxGeometry x="747" y="1164" width="420" height="25" as="geometry" />
    </mxCell>
    <mxCell id="node86" parent="1" vertex="1" value="com.alibaba.cloud:spring-cloud-alibaba-nacos-discovery:2.1.0.RELEASE" style="label;fontStyle=0;strokeColor=default;fillColor=none;align=left;verticalAlign=middle;overflow=hidden;spacingLeft=28;spacingRight=4;rotatable=0;points=[[0,0.5],[1,0.5]];portConstraint=eastwest;imageWidth=16;imageHeight=16;image=data:image/png,iVBORw0KGgoAAAANSUhEUgAAACAAAAAgCAYAAABzenr0AAAAV0lEQVR4XmNgGAVkglkrNpxBxujyNAejDqC6A3AZmLTV+T8yJqTeYduD/8gYJk4Q4DJw1AHDxgG41MMBLgWjDhh1wKgDRh0w6oBRB4w6gG4OGAWjYMQCAD3bML1XEuu8AAAAAElFTkSuQmCC">
      <mxGeometry x="737" y="1078" width="439" height="25" as="geometry" />
    </mxCell>
    <mxCell id="node82" parent="1" vertex="1" value="com.alibaba.cloud:spring-cloud-starter-alibaba-nacos-config:2.1.0.RELEASE" style="label;fontStyle=0;strokeColor=default;fillColor=none;align=left;verticalAlign=middle;overflow=hidden;spacingLeft=28;spacingRight=4;rotatable=0;points=[[0,0.5],[1,0.5]];portConstraint=eastwest;imageWidth=16;imageHeight=16;image=data:image/png,iVBORw0KGgoAAAANSUhEUgAAACAAAAAgCAYAAABzenr0AAAAV0lEQVR4XmNgGAVkglkrNpxBxujyNAejDqC6A3AZmLTV+T8yJqTeYduD/8gYJk4Q4DJw1AHDxgG41MMBLgWjDhh1wKgDRh0w6oBRB4w6gG4OGAWjYMQCAD3bML1XEuu8AAAAAElFTkSuQmCC">
      <mxGeometry x="215" y="1164" width="463" height="25" as="geometry" />
    </mxCell>
    <mxCell id="node34" parent="1" vertex="1" value="com.alibaba.cloud:spring-cloud-starter-alibaba-nacos-discovery:2.1.0.RELEASE" style="label;fontStyle=0;strokeColor=default;fillColor=none;align=left;verticalAlign=middle;overflow=hidden;spacingLeft=28;spacingRight=4;rotatable=0;points=[[0,0.5],[1,0.5]];portConstraint=eastwest;imageWidth=16;imageHeight=16;image=data:image/png,iVBORw0KGgoAAAANSUhEUgAAACAAAAAgCAYAAABzenr0AAAAV0lEQVR4XmNgGAVkglkrNpxBxujyNAejDqC6A3AZmLTV+T8yJqTeYduD/8gYJk4Q4DJw1AHDxgG41MMBLgWjDhh1wKgDRh0w6oBRB4w6gG4OGAWjYMQCAD3bML1XEuu8AAAAAElFTkSuQmCC">
      <mxGeometry x="205" y="1078" width="482" height="25" as="geometry" />
    </mxCell>
    <mxCell id="node63" parent="1" vertex="1" value="com.alibaba.nacos:nacos-api:1.1.1" style="label;fontStyle=0;strokeColor=default;fillColor=none;align=left;verticalAlign=middle;overflow=hidden;spacingLeft=28;spacingRight=4;rotatable=0;points=[[0,0.5],[1,0.5]];portConstraint=eastwest;imageWidth=16;imageHeight=16;image=data:image/png,iVBORw0KGgoAAAANSUhEUgAAACAAAAAgCAYAAABzenr0AAAAV0lEQVR4XmNgGAVkglkrNpxBxujyNAejDqC6A3AZmLTV+T8yJqTeYduD/8gYJk4Q4DJw1AHDxgG41MMBLgWjDhh1wKgDRh0w6oBRB4w6gG4OGAWjYMQCAD3bML1XEuu8AAAAAElFTkSuQmCC">
      <mxGeometry x="2205" y="1532" width="224" height="25" as="geometry" />
    </mxCell>
    <mxCell id="node43" parent="1" vertex="1" value="com.alibaba.nacos:nacos-client:1.1.1" style="label;fontStyle=0;strokeColor=default;fillColor=none;align=left;verticalAlign=middle;overflow=hidden;spacingLeft=28;spacingRight=4;rotatable=0;points=[[0,0.5],[1,0.5]];portConstraint=eastwest;imageWidth=16;imageHeight=16;image=data:image/png,iVBORw0KGgoAAAANSUhEUgAAACAAAAAgCAYAAABzenr0AAAAV0lEQVR4XmNgGAVkglkrNpxBxujyNAejDqC6A3AZmLTV+T8yJqTeYduD/8gYJk4Q4DJw1AHDxgG41MMBLgWjDhh1wKgDRh0w6oBRB4w6gG4OGAWjYMQCAD3bML1XEuu8AAAAAElFTkSuQmCC">
      <mxGeometry x="1494" y="1024" width="236" height="25" as="geometry" />
    </mxCell>
    <mxCell id="node32" parent="1" vertex="1" value="com.alibaba.nacos:nacos-common:1.1.1" style="label;fontStyle=0;strokeColor=default;fillColor=none;align=left;verticalAlign=middle;overflow=hidden;spacingLeft=28;spacingRight=4;rotatable=0;points=[[0,0.5],[1,0.5]];portConstraint=eastwest;imageWidth=16;imageHeight=16;image=data:image/png,iVBORw0KGgoAAAANSUhEUgAAACAAAAAgCAYAAABzenr0AAAAV0lEQVR4XmNgGAVkglkrNpxBxujyNAejDqC6A3AZmLTV+T8yJqTeYduD/8gYJk4Q4DJw1AHDxgG41MMBLgWjDhh1wKgDRh0w6oBRB4w6gG4OGAWjYMQCAD3bML1XEuu8AAAAAElFTkSuQmCC">
      <mxGeometry x="2189" y="1327" width="257" height="25" as="geometry" />
    </mxCell>
    <mxCell id="node85" parent="1" vertex="1" value="com.alibaba:fastjson:1.2.47" style="label;fontStyle=0;strokeColor=default;fillColor=none;align=left;verticalAlign=middle;overflow=hidden;spacingLeft=28;spacingRight=4;rotatable=0;points=[[0,0.5],[1,0.5]];portConstraint=eastwest;imageWidth=16;imageHeight=16;image=data:image/png,iVBORw0KGgoAAAANSUhEUgAAACAAAAAgCAYAAABzenr0AAAAV0lEQVR4XmNgGAVkglkrNpxBxujyNAejDqC6A3AZmLTV+T8yJqTeYduD/8gYJk4Q4DJw1AHDxgG41MMBLgWjDhh1wKgDRh0w6oBRB4w6gG4OGAWjYMQCAD3bML1XEuu8AAAAAElFTkSuQmCC">
      <mxGeometry x="3125" y="1553" width="182" height="25" as="geometry" />
    </mxCell>
    <mxCell id="node3" parent="1" vertex="1" value="com.fasterxml.jackson.core:jackson-annotations:2.9.0" style="label;fontStyle=0;strokeColor=default;fillColor=none;align=left;verticalAlign=middle;overflow=hidden;spacingLeft=28;spacingRight=4;rotatable=0;points=[[0,0.5],[1,0.5]];portConstraint=eastwest;imageWidth=16;imageHeight=16;image=data:image/png,iVBORw0KGgoAAAANSUhEUgAAACAAAAAgCAYAAABzenr0AAAAV0lEQVR4XmNgGAVkglkrNpxBxujyNAejDqC6A3AZmLTV+T8yJqTeYduD/8gYJk4Q4DJw1AHDxgG41MMBLgWjDhh1wKgDRh0w6oBRB4w6gG4OGAWjYMQCAD3bML1XEuu8AAAAAElFTkSuQmCC">
      <mxGeometry x="2151" y="490" width="333" height="25" as="geometry" />
    </mxCell>
    <mxCell id="node42" parent="1" vertex="1" value="com.fasterxml.jackson.core:jackson-core:2.9.9" style="label;fontStyle=0;strokeColor=default;fillColor=none;align=left;verticalAlign=middle;overflow=hidden;spacingLeft=28;spacingRight=4;rotatable=0;points=[[0,0.5],[1,0.5]];portConstraint=eastwest;imageWidth=16;imageHeight=16;image=data:image/png,iVBORw0KGgoAAAANSUhEUgAAACAAAAAgCAYAAABzenr0AAAAV0lEQVR4XmNgGAVkglkrNpxBxujyNAejDqC6A3AZmLTV+T8yJqTeYduD/8gYJk4Q4DJw1AHDxgG41MMBLgWjDhh1wKgDRh0w6oBRB4w6gG4OGAWjYMQCAD3bML1XEuu8AAAAAElFTkSuQmCC">
      <mxGeometry x="2172" y="533" width="291" height="25" as="geometry" />
    </mxCell>
    <mxCell id="node5" parent="1" vertex="1" value="com.fasterxml.jackson.core:jackson-databind:2.9.9" style="label;fontStyle=0;strokeColor=default;fillColor=none;align=left;verticalAlign=middle;overflow=hidden;spacingLeft=28;spacingRight=4;rotatable=0;points=[[0,0.5],[1,0.5]];portConstraint=eastwest;imageWidth=16;imageHeight=16;image=data:image/png,iVBORw0KGgoAAAANSUhEUgAAACAAAAAgCAYAAABzenr0AAAAV0lEQVR4XmNgGAVkglkrNpxBxujyNAejDqC6A3AZmLTV+T8yJqTeYduD/8gYJk4Q4DJw1AHDxgG41MMBLgWjDhh1wKgDRh0w6oBRB4w6gG4OGAWjYMQCAD3bML1XEuu8AAAAAElFTkSuQmCC">
      <mxGeometry x="1453" y="510" width="317" height="25" as="geometry" />
    </mxCell>
    <mxCell id="node0" parent="1" vertex="1" value="com.fasterxml.jackson.datatype:jackson-datatype-jdk8:2.9.9" style="label;fontStyle=0;strokeColor=default;fillColor=none;align=left;verticalAlign=middle;overflow=hidden;spacingLeft=28;spacingRight=4;rotatable=0;points=[[0,0.5],[1,0.5]];portConstraint=eastwest;imageWidth=16;imageHeight=16;image=data:image/png,iVBORw0KGgoAAAANSUhEUgAAACAAAAAgCAYAAABzenr0AAAAV0lEQVR4XmNgGAVkglkrNpxBxujyNAejDqC6A3AZmLTV+T8yJqTeYduD/8gYJk4Q4DJw1AHDxgG41MMBLgWjDhh1wKgDRh0w6oBRB4w6gG4OGAWjYMQCAD3bML1XEuu8AAAAAElFTkSuQmCC">
      <mxGeometry x="1426" y="137" width="371" height="25" as="geometry" />
    </mxCell>
    <mxCell id="node77" parent="1" vertex="1" value="com.fasterxml.jackson.datatype:jackson-datatype-jsr310:2.9.9" style="label;fontStyle=0;strokeColor=default;fillColor=none;align=left;verticalAlign=middle;overflow=hidden;spacingLeft=28;spacingRight=4;rotatable=0;points=[[0,0.5],[1,0.5]];portConstraint=eastwest;imageWidth=16;imageHeight=16;image=data:image/png,iVBORw0KGgoAAAANSUhEUgAAACAAAAAgCAYAAABzenr0AAAAV0lEQVR4XmNgGAVkglkrNpxBxujyNAejDqC6A3AZmLTV+T8yJqTeYduD/8gYJk4Q4DJw1AHDxgG41MMBLgWjDhh1wKgDRh0w6oBRB4w6gG4OGAWjYMQCAD3bML1XEuu8AAAAAElFTkSuQmCC">
      <mxGeometry x="1421" y="223" width="381" height="25" as="geometry" />
    </mxCell>
    <mxCell id="node14" parent="1" vertex="1" value="com.fasterxml.jackson.module:jackson-module-parameter-names:2.9.9" style="label;fontStyle=0;strokeColor=default;fillColor=none;align=left;verticalAlign=middle;overflow=hidden;spacingLeft=28;spacingRight=4;rotatable=0;points=[[0,0.5],[1,0.5]];portConstraint=eastwest;imageWidth=16;imageHeight=16;image=data:image/png,iVBORw0KGgoAAAANSUhEUgAAACAAAAAgCAYAAABzenr0AAAAV0lEQVR4XmNgGAVkglkrNpxBxujyNAejDqC6A3AZmLTV+T8yJqTeYduD/8gYJk4Q4DJw1AHDxgG41MMBLgWjDhh1wKgDRh0w6oBRB4w6gG4OGAWjYMQCAD3bML1XEuu8AAAAAElFTkSuQmCC">
      <mxGeometry x="1394" y="352" width="436" height="25" as="geometry" />
    </mxCell>
    <mxCell id="node76" parent="1" vertex="1" value="com.fasterxml:classmate:1.4.0" style="label;fontStyle=0;strokeColor=default;fillColor=none;align=left;verticalAlign=middle;overflow=hidden;spacingLeft=28;spacingRight=4;rotatable=0;points=[[0,0.5],[1,0.5]];portConstraint=eastwest;imageWidth=16;imageHeight=16;image=data:image/png,iVBORw0KGgoAAAANSUhEUgAAACAAAAAgCAYAAABzenr0AAAAV0lEQVR4XmNgGAVkglkrNpxBxujyNAejDqC6A3AZmLTV+T8yJqTeYduD/8gYJk4Q4DJw1AHDxgG41MMBLgWjDhh1wKgDRh0w6oBRB4w6gG4OGAWjYMQCAD3bML1XEuu8AAAAAElFTkSuQmCC">
      <mxGeometry x="1513" y="309" width="197" height="25" as="geometry" />
    </mxCell>
    <mxCell id="node27" parent="1" vertex="1" value="com.google.code.findbugs:jsr305:3.0.1" style="label;fontStyle=0;strokeColor=default;fillColor=none;align=left;verticalAlign=middle;overflow=hidden;spacingLeft=28;spacingRight=4;rotatable=0;points=[[0,0.5],[1,0.5]];portConstraint=eastwest;imageWidth=16;imageHeight=16;image=data:image/png,iVBORw0KGgoAAAANSUhEUgAAACAAAAAgCAYAAABzenr0AAAAV0lEQVR4XmNgGAVkglkrNpxBxujyNAejDqC6A3AZmLTV+T8yJqTeYduD/8gYJk4Q4DJw1AHDxgG41MMBLgWjDhh1wKgDRh0w6oBRB4w6gG4OGAWjYMQCAD3bML1XEuu8AAAAAElFTkSuQmCC">
      <mxGeometry x="3091" y="338" width="250" height="25" as="geometry" />
    </mxCell>
    <mxCell id="node67" parent="1" vertex="1" value="com.google.guava:guava:16.0" style="label;fontStyle=0;strokeColor=default;fillColor=none;align=left;verticalAlign=middle;overflow=hidden;spacingLeft=28;spacingRight=4;rotatable=0;points=[[0,0.5],[1,0.5]];portConstraint=eastwest;imageWidth=16;imageHeight=16;image=data:image/png,iVBORw0KGgoAAAANSUhEUgAAACAAAAAgCAYAAABzenr0AAAAV0lEQVR4XmNgGAVkglkrNpxBxujyNAejDqC6A3AZmLTV+T8yJqTeYduD/8gYJk4Q4DJw1AHDxgG41MMBLgWjDhh1wKgDRh0w6oBRB4w6gG4OGAWjYMQCAD3bML1XEuu8AAAAAElFTkSuQmCC">
      <mxGeometry x="3116" y="1025" width="199" height="25" as="geometry" />
    </mxCell>
    <mxCell id="node16" parent="1" vertex="1" value="com.google.guava:guava:16.0.1" style="label;fontStyle=0;strokeColor=default;fillColor=none;align=left;verticalAlign=middle;overflow=hidden;spacingLeft=28;spacingRight=4;rotatable=0;points=[[0,0.5],[1,0.5]];portConstraint=eastwest;imageWidth=16;imageHeight=16;image=data:image/png,iVBORw0KGgoAAAANSUhEUgAAACAAAAAgCAYAAABzenr0AAAAV0lEQVR4XmNgGAVkglkrNpxBxujyNAejDqC6A3AZmLTV+T8yJqTeYduD/8gYJk4Q4DJw1AHDxgG41MMBLgWjDhh1wKgDRh0w6oBRB4w6gG4OGAWjYMQCAD3bML1XEuu8AAAAAElFTkSuQmCC">
      <mxGeometry x="3111" y="982" width="209" height="25" as="geometry" />
    </mxCell>
    <mxCell id="node11" parent="1" vertex="1" value="com.google.guava:guava:19.0" style="label;fontStyle=0;strokeColor=default;fillColor=none;align=left;verticalAlign=middle;overflow=hidden;spacingLeft=28;spacingRight=4;rotatable=0;points=[[0,0.5],[1,0.5]];portConstraint=eastwest;imageWidth=16;imageHeight=16;image=data:image/png,iVBORw0KGgoAAAANSUhEUgAAACAAAAAgCAYAAABzenr0AAAAV0lEQVR4XmNgGAVkglkrNpxBxujyNAejDqC6A3AZmLTV+T8yJqTeYduD/8gYJk4Q4DJw1AHDxgG41MMBLgWjDhh1wKgDRh0w6oBRB4w6gG4OGAWjYMQCAD3bML1XEuu8AAAAAElFTkSuQmCC">
      <mxGeometry x="2218" y="1146" width="199" height="25" as="geometry" />
    </mxCell>
    <mxCell id="node88" parent="1" vertex="1" value="com.netflix.archaius:archaius-core:0.7.6" style="label;fontStyle=0;strokeColor=default;fillColor=none;align=left;verticalAlign=middle;overflow=hidden;spacingLeft=28;spacingRight=4;rotatable=0;points=[[0,0.5],[1,0.5]];portConstraint=eastwest;imageWidth=16;imageHeight=16;image=data:image/png,iVBORw0KGgoAAAANSUhEUgAAACAAAAAgCAYAAABzenr0AAAAV0lEQVR4XmNgGAVkglkrNpxBxujyNAejDqC6A3AZmLTV+T8yJqTeYduD/8gYJk4Q4DJw1AHDxgG41MMBLgWjDhh1wKgDRh0w6oBRB4w6gG4OGAWjYMQCAD3bML1XEuu8AAAAAElFTkSuQmCC">
      <mxGeometry x="2192" y="826" width="251" height="25" as="geometry" />
    </mxCell>
    <mxCell id="node87" parent="1" vertex="1" value="com.netflix.hystrix:hystrix-core:1.5.18" style="label;fontStyle=0;strokeColor=default;fillColor=none;align=left;verticalAlign=middle;overflow=hidden;spacingLeft=28;spacingRight=4;rotatable=0;points=[[0,0.5],[1,0.5]];portConstraint=eastwest;imageWidth=16;imageHeight=16;image=data:image/png,iVBORw0KGgoAAAANSUhEUgAAACAAAAAgCAYAAABzenr0AAAAV0lEQVR4XmNgGAVkglkrNpxBxujyNAejDqC6A3AZmLTV+T8yJqTeYduD/8gYJk4Q4DJw1AHDxgG41MMBLgWjDhh1wKgDRh0w6oBRB4w6gG4OGAWjYMQCAD3bML1XEuu8AAAAAElFTkSuQmCC">
      <mxGeometry x="3098" y="1068" width="236" height="25" as="geometry" />
    </mxCell>
    <mxCell id="node10" parent="1" vertex="1" value="com.netflix.netflix-commons:netflix-commons-util:0.3.0" style="label;fontStyle=0;strokeColor=default;fillColor=none;align=left;verticalAlign=middle;overflow=hidden;spacingLeft=28;spacingRight=4;rotatable=0;points=[[0,0.5],[1,0.5]];portConstraint=eastwest;imageWidth=16;imageHeight=16;image=data:image/png,iVBORw0KGgoAAAANSUhEUgAAACAAAAAgCAYAAABzenr0AAAAV0lEQVR4XmNgGAVkglkrNpxBxujyNAejDqC6A3AZmLTV+T8yJqTeYduD/8gYJk4Q4DJw1AHDxgG41MMBLgWjDhh1wKgDRh0w6oBRB4w6gG4OGAWjYMQCAD3bML1XEuu8AAAAAElFTkSuQmCC">
      <mxGeometry x="3047" y="1325" width="338" height="25" as="geometry" />
    </mxCell>
    <mxCell id="node44" parent="1" vertex="1" value="com.netflix.netflix-commons:netflix-statistics:0.1.1" style="label;fontStyle=0;strokeColor=default;fillColor=none;align=left;verticalAlign=middle;overflow=hidden;spacingLeft=28;spacingRight=4;rotatable=0;points=[[0,0.5],[1,0.5]];portConstraint=eastwest;imageWidth=16;imageHeight=16;image=data:image/png,iVBORw0KGgoAAAANSUhEUgAAACAAAAAgCAYAAABzenr0AAAAV0lEQVR4XmNgGAVkglkrNpxBxujyNAejDqC6A3AZmLTV+T8yJqTeYduD/8gYJk4Q4DJw1AHDxgG41MMBLgWjDhh1wKgDRh0w6oBRB4w6gG4OGAWjYMQCAD3bML1XEuu8AAAAAElFTkSuQmCC">
      <mxGeometry x="3062" y="1596" width="308" height="25" as="geometry" />
    </mxCell>
    <mxCell id="node72" parent="1" vertex="1" value="com.netflix.ribbon:ribbon-core:2.3.0" style="label;fontStyle=0;strokeColor=default;fillColor=none;align=left;verticalAlign=middle;overflow=hidden;spacingLeft=28;spacingRight=4;rotatable=0;points=[[0,0.5],[1,0.5]];portConstraint=eastwest;imageWidth=16;imageHeight=16;image=data:image/png,iVBORw0KGgoAAAANSUhEUgAAACAAAAAgCAYAAABzenr0AAAAV0lEQVR4XmNgGAVkglkrNpxBxujyNAejDqC6A3AZmLTV+T8yJqTeYduD/8gYJk4Q4DJw1AHDxgG41MMBLgWjDhh1wKgDRh0w6oBRB4w6gG4OGAWjYMQCAD3bML1XEuu8AAAAAElFTkSuQmCC">
      <mxGeometry x="2201" y="980" width="233" height="25" as="geometry" />
    </mxCell>
    <mxCell id="node39" parent="1" vertex="1" value="com.netflix.ribbon:ribbon-httpclient:2.3.0" style="label;fontStyle=0;strokeColor=default;fillColor=none;align=left;verticalAlign=middle;overflow=hidden;spacingLeft=28;spacingRight=4;rotatable=0;points=[[0,0.5],[1,0.5]];portConstraint=eastwest;imageWidth=16;imageHeight=16;image=data:image/png,iVBORw0KGgoAAAANSUhEUgAAACAAAAAgCAYAAABzenr0AAAAV0lEQVR4XmNgGAVkglkrNpxBxujyNAejDqC6A3AZmLTV+T8yJqTeYduD/8gYJk4Q4DJw1AHDxgG41MMBLgWjDhh1wKgDRh0w6oBRB4w6gG4OGAWjYMQCAD3bML1XEuu8AAAAAElFTkSuQmCC">
      <mxGeometry x="2187" y="1189" width="260" height="25" as="geometry" />
    </mxCell>
    <mxCell id="node4" parent="1" vertex="1" value="com.netflix.ribbon:ribbon-loadbalancer:2.3.0" style="label;fontStyle=0;strokeColor=default;fillColor=none;align=left;verticalAlign=middle;overflow=hidden;spacingLeft=28;spacingRight=4;rotatable=0;points=[[0,0.5],[1,0.5]];portConstraint=eastwest;imageWidth=16;imageHeight=16;image=data:image/png,iVBORw0KGgoAAAANSUhEUgAAACAAAAAgCAYAAABzenr0AAAAV0lEQVR4XmNgGAVkglkrNpxBxujyNAejDqC6A3AZmLTV+T8yJqTeYduD/8gYJk4Q4DJw1AHDxgG41MMBLgWjDhh1wKgDRh0w6oBRB4w6gG4OGAWjYMQCAD3bML1XEuu8AAAAAElFTkSuQmCC">
      <mxGeometry x="2176" y="1043" width="283" height="25" as="geometry" />
    </mxCell>
    <mxCell id="node29" parent="1" vertex="1" value="com.netflix.ribbon:ribbon-transport:2.3.0" style="label;fontStyle=0;strokeColor=default;fillColor=none;align=left;verticalAlign=middle;overflow=hidden;spacingLeft=28;spacingRight=4;rotatable=0;points=[[0,0.5],[1,0.5]];portConstraint=eastwest;imageWidth=16;imageHeight=16;image=data:image/png,iVBORw0KGgoAAAANSUhEUgAAACAAAAAgCAYAAABzenr0AAAAV0lEQVR4XmNgGAVkglkrNpxBxujyNAejDqC6A3AZmLTV+T8yJqTeYduD/8gYJk4Q4DJw1AHDxgG41MMBLgWjDhh1wKgDRh0w6oBRB4w6gG4OGAWjYMQCAD3bML1XEuu8AAAAAElFTkSuQmCC">
      <mxGeometry x="3085" y="857" width="261" height="25" as="geometry" />
    </mxCell>
    <mxCell id="node38" parent="1" vertex="1" value="com.netflix.ribbon:ribbon:2.3.0" style="label;fontStyle=0;strokeColor=default;fillColor=none;align=left;verticalAlign=middle;overflow=hidden;spacingLeft=28;spacingRight=4;rotatable=0;points=[[0,0.5],[1,0.5]];portConstraint=eastwest;imageWidth=16;imageHeight=16;image=data:image/png,iVBORw0KGgoAAAANSUhEUgAAACAAAAAgCAYAAABzenr0AAAAV0lEQVR4XmNgGAVkglkrNpxBxujyNAejDqC6A3AZmLTV+T8yJqTeYduD/8gYJk4Q4DJw1AHDxgG41MMBLgWjDhh1wKgDRh0w6oBRB4w6gG4OGAWjYMQCAD3bML1XEuu8AAAAAElFTkSuQmCC">
      <mxGeometry x="2216" y="747" width="202" height="25" as="geometry" />
    </mxCell>
    <mxCell id="node50" parent="1" vertex="1" value="com.netflix.servo:servo-core:0.12.21" style="label;fontStyle=0;strokeColor=default;fillColor=none;align=left;verticalAlign=middle;overflow=hidden;spacingLeft=28;spacingRight=4;rotatable=0;points=[[0,0.5],[1,0.5]];portConstraint=eastwest;imageWidth=16;imageHeight=16;image=data:image/png,iVBORw0KGgoAAAANSUhEUgAAACAAAAAgCAYAAABzenr0AAAAV0lEQVR4XmNgGAVkglkrNpxBxujyNAejDqC6A3AZmLTV+T8yJqTeYduD/8gYJk4Q4DJw1AHDxgG41MMBLgWjDhh1wKgDRh0w6oBRB4w6gG4OGAWjYMQCAD3bML1XEuu8AAAAAElFTkSuQmCC">
      <mxGeometry x="3099" y="1176" width="233" height="25" as="geometry" />
    </mxCell>
    <mxCell id="node65" parent="1" vertex="1" value="com.nydia:springcloud-nacos-discovery-v2.1.7-3:0.0.1-SNAPSHOT" style="label;fontStyle=0;strokeColor=default;fillColor=none;align=left;verticalAlign=middle;overflow=hidden;spacingLeft=28;spacingRight=4;rotatable=0;points=[[0,0.5],[1,0.5]];portConstraint=eastwest;imageWidth=16;imageHeight=16;image=data:image/png,iVBORw0KGgoAAAANSUhEUgAAACAAAAAgCAYAAABzenr0AAACUUlEQVR4Xu1TMWgUQRQ9EVGwU1BEwUKwSJmATZDb24PTFBYWdjYasJGUATsFCxslKYKgjY3IYRND3NmLBK4zzXVBG5PbmVyKBAQtFBEx69/z/t7ft7OuuQ1nCh88due/m/fe7O6VSv8xAJ7U52/x/dP6q9bfUO4vhChcGmJQFqXHwODwf1JAhg+9AIYPtYAtfGgFssKHUuBP4dIQ51mU3nsKDMoi7tszYFAWcV8u0KAo0T8XaFCU6J8LNChK9M8FGhQl+ucCDYoS/XOBBkWJ/rlAg4GNBgUG78sCFWXGHc88i1hWemKs1TrkePq2o/QKrb/StRPNo99WvfXzFaUf03qd5iGxWV3ePC79EsBgWwEKftAzCyNzuq7yuk+zUVZmioK/pzRfz0m/BDDYWkAFb8B0h/g+FdTnN1gvSr8EMNheQH8UZspRm2d+z02d53Tyn3R9eLGhT11qdI7R/af+nmBW+iWAwVjA9dpn5WlctXGONVrPC63J8whUaDsu5wU3pJYABmOBsq+vipDPpTA8wBqt12ynjJ5QonRDj7KWAgZjAfra79tOWVvaOtp77F2NPs6brNHHeEXs+TGhPhxmLQUMThXovvPeo/T1I567jfYFecrKazMW7/HNXaGt8twKDLYU2IrNfHM9nvt6Up7SaQZHWCurYEFoz3luBQbLAu5i57Q8ZVWZEd5H/4AZntOreNd37JbuxJqvp6W2K8C7/HLtZXiQNVovs1bx9Aue15bWTsjSrmrXWNs1HC+4J8zeJrTEqwnuiD2XZYHqQvtkNP8Ft/tBZ9sKLdEAAAAASUVORK5CYII=">
      <mxGeometry x="-241" y="1164" width="406" height="25" as="geometry" />
    </mxCell>
    <mxCell id="node19" parent="1" vertex="1" value="com.sun.jersey.contribs:jersey-apache-client4:1.19.1" style="label;fontStyle=0;strokeColor=default;fillColor=none;align=left;verticalAlign=middle;overflow=hidden;spacingLeft=28;spacingRight=4;rotatable=0;points=[[0,0.5],[1,0.5]];portConstraint=eastwest;imageWidth=16;imageHeight=16;image=data:image/png,iVBORw0KGgoAAAANSUhEUgAAACAAAAAgCAYAAABzenr0AAAAV0lEQVR4XmNgGAVkglkrNpxBxujyNAejDqC6A3AZmLTV+T8yJqTeYduD/8gYJk4Q4DJw1AHDxgG41MMBLgWjDhh1wKgDRh0w6oBRB4w6gG4OGAWjYMQCAD3bML1XEuu8AAAAAElFTkSuQmCC">
      <mxGeometry x="3054" y="1745" width="324" height="25" as="geometry" />
    </mxCell>
    <mxCell id="node74" parent="1" vertex="1" value="com.sun.jersey:jersey-client:1.19.1" style="label;fontStyle=0;strokeColor=default;fillColor=none;align=left;verticalAlign=middle;overflow=hidden;spacingLeft=28;spacingRight=4;rotatable=0;points=[[0,0.5],[1,0.5]];portConstraint=eastwest;imageWidth=16;imageHeight=16;image=data:image/png,iVBORw0KGgoAAAANSUhEUgAAACAAAAAgCAYAAABzenr0AAAAV0lEQVR4XmNgGAVkglkrNpxBxujyNAejDqC6A3AZmLTV+T8yJqTeYduD/8gYJk4Q4DJw1AHDxgG41MMBLgWjDhh1wKgDRh0w6oBRB4w6gG4OGAWjYMQCAD3bML1XEuu8AAAAAElFTkSuQmCC">
      <mxGeometry x="3106" y="1831" width="220" height="25" as="geometry" />
    </mxCell>
    <mxCell id="node40" parent="1" vertex="1" value="com.sun.jersey:jersey-core:1.19.1" style="label;fontStyle=0;strokeColor=default;fillColor=none;align=left;verticalAlign=middle;overflow=hidden;spacingLeft=28;spacingRight=4;rotatable=0;points=[[0,0.5],[1,0.5]];portConstraint=eastwest;imageWidth=16;imageHeight=16;image=data:image/png,iVBORw0KGgoAAAANSUhEUgAAACAAAAAgCAYAAABzenr0AAAAV0lEQVR4XmNgGAVkglkrNpxBxujyNAejDqC6A3AZmLTV+T8yJqTeYduD/8gYJk4Q4DJw1AHDxgG41MMBLgWjDhh1wKgDRh0w6oBRB4w6gG4OGAWjYMQCAD3bML1XEuu8AAAAAElFTkSuQmCC">
      <mxGeometry x="3566" y="1837" width="216" height="25" as="geometry" />
    </mxCell>
    <mxCell id="node57" parent="1" vertex="1" value="commons-codec:commons-codec:1.11" style="label;fontStyle=0;strokeColor=default;fillColor=none;align=left;verticalAlign=middle;overflow=hidden;spacingLeft=28;spacingRight=4;rotatable=0;points=[[0,0.5],[1,0.5]];portConstraint=eastwest;imageWidth=16;imageHeight=16;image=data:image/png,iVBORw0KGgoAAAANSUhEUgAAACAAAAAgCAYAAABzenr0AAAAV0lEQVR4XmNgGAVkglkrNpxBxujyNAejDqC6A3AZmLTV+T8yJqTeYduD/8gYJk4Q4DJw1AHDxgG41MMBLgWjDhh1wKgDRh0w6oBRB4w6gG4OGAWjYMQCAD3bML1XEuu8AAAAAElFTkSuQmCC">
      <mxGeometry x="2192" y="1682" width="250" height="25" as="geometry" />
    </mxCell>
    <mxCell id="node23" parent="1" vertex="1" value="commons-collections:commons-collections:3.2.2" style="label;fontStyle=0;strokeColor=default;fillColor=none;align=left;verticalAlign=middle;overflow=hidden;spacingLeft=28;spacingRight=4;rotatable=0;points=[[0,0.5],[1,0.5]];portConstraint=eastwest;imageWidth=16;imageHeight=16;image=data:image/png,iVBORw0KGgoAAAANSUhEUgAAACAAAAAgCAYAAABzenr0AAAAV0lEQVR4XmNgGAVkglkrNpxBxujyNAejDqC6A3AZmLTV+T8yJqTeYduD/8gYJk4Q4DJw1AHDxgG41MMBLgWjDhh1wKgDRh0w6oBRB4w6gG4OGAWjYMQCAD3bML1XEuu8AAAAAElFTkSuQmCC">
      <mxGeometry x="3063" y="1639" width="305" height="25" as="geometry" />
    </mxCell>
    <mxCell id="node79" parent="1" vertex="1" value="commons-configuration:commons-configuration:1.8" style="label;fontStyle=0;strokeColor=default;fillColor=none;align=left;verticalAlign=middle;overflow=hidden;spacingLeft=28;spacingRight=4;rotatable=0;points=[[0,0.5],[1,0.5]];portConstraint=eastwest;imageWidth=16;imageHeight=16;image=data:image/png,iVBORw0KGgoAAAANSUhEUgAAACAAAAAgCAYAAABzenr0AAAAV0lEQVR4XmNgGAVkglkrNpxBxujyNAejDqC6A3AZmLTV+T8yJqTeYduD/8gYJk4Q4DJw1AHDxgG41MMBLgWjDhh1wKgDRh0w6oBRB4w6gG4OGAWjYMQCAD3bML1XEuu8AAAAAElFTkSuQmCC">
      <mxGeometry x="3052" y="424" width="327" height="25" as="geometry" />
    </mxCell>
    <mxCell id="node80" parent="1" vertex="1" value="commons-io:commons-io:2.2" style="label;fontStyle=0;strokeColor=default;fillColor=none;align=left;verticalAlign=middle;overflow=hidden;spacingLeft=28;spacingRight=4;rotatable=0;points=[[0,0.5],[1,0.5]];portConstraint=eastwest;imageWidth=16;imageHeight=16;image=data:image/png,iVBORw0KGgoAAAANSUhEUgAAACAAAAAgCAYAAABzenr0AAAAV0lEQVR4XmNgGAVkglkrNpxBxujyNAejDqC6A3AZmLTV+T8yJqTeYduD/8gYJk4Q4DJw1AHDxgG41MMBLgWjDhh1wKgDRh0w6oBRB4w6gG4OGAWjYMQCAD3bML1XEuu8AAAAAElFTkSuQmCC">
      <mxGeometry x="3118" y="1282" width="195" height="25" as="geometry" />
    </mxCell>
    <mxCell id="node7" parent="1" vertex="1" value="commons-lang:commons-lang:2.6" style="label;fontStyle=0;strokeColor=default;fillColor=none;align=left;verticalAlign=middle;overflow=hidden;spacingLeft=28;spacingRight=4;rotatable=0;points=[[0,0.5],[1,0.5]];portConstraint=eastwest;imageWidth=16;imageHeight=16;image=data:image/png,iVBORw0KGgoAAAANSUhEUgAAACAAAAAgCAYAAABzenr0AAAAV0lEQVR4XmNgGAVkglkrNpxBxujyNAejDqC6A3AZmLTV+T8yJqTeYduD/8gYJk4Q4DJw1AHDxgG41MMBLgWjDhh1wKgDRh0w6oBRB4w6gG4OGAWjYMQCAD3bML1XEuu8AAAAAElFTkSuQmCC">
      <mxGeometry x="3104" y="487" width="223" height="25" as="geometry" />
    </mxCell>
    <mxCell id="node56" parent="1" vertex="1" value="io.prometheus:simpleclient:0.5.0" style="label;fontStyle=0;strokeColor=default;fillColor=none;align=left;verticalAlign=middle;overflow=hidden;spacingLeft=28;spacingRight=4;rotatable=0;points=[[0,0.5],[1,0.5]];portConstraint=eastwest;imageWidth=16;imageHeight=16;image=data:image/png,iVBORw0KGgoAAAANSUhEUgAAACAAAAAgCAYAAABzenr0AAAAV0lEQVR4XmNgGAVkglkrNpxBxujyNAejDqC6A3AZmLTV+T8yJqTeYduD/8gYJk4Q4DJw1AHDxgG41MMBLgWjDhh1wKgDRh0w6oBRB4w6gG4OGAWjYMQCAD3bML1XEuu8AAAAAElFTkSuQmCC">
      <mxGeometry x="2212" y="937" width="211" height="25" as="geometry" />
    </mxCell>
    <mxCell id="node73" parent="1" vertex="1" value="io.reactivex:rxjava:1.3.8" style="label;fontStyle=0;strokeColor=default;fillColor=none;align=left;verticalAlign=middle;overflow=hidden;spacingLeft=28;spacingRight=4;rotatable=0;points=[[0,0.5],[1,0.5]];portConstraint=eastwest;imageWidth=16;imageHeight=16;image=data:image/png,iVBORw0KGgoAAAANSUhEUgAAACAAAAAgCAYAAABzenr0AAAAV0lEQVR4XmNgGAVkglkrNpxBxujyNAejDqC6A3AZmLTV+T8yJqTeYduD/8gYJk4Q4DJw1AHDxgG41MMBLgWjDhh1wKgDRh0w6oBRB4w6gG4OGAWjYMQCAD3bML1XEuu8AAAAAElFTkSuQmCC">
      <mxGeometry x="2238" y="593" width="158" height="25" as="geometry" />
    </mxCell>
    <mxCell id="node49" parent="1" vertex="1" value="io.reactivex:rxnetty-contexts:0.4.9" style="label;fontStyle=0;strokeColor=default;fillColor=none;align=left;verticalAlign=middle;overflow=hidden;spacingLeft=28;spacingRight=4;rotatable=0;points=[[0,0.5],[1,0.5]];portConstraint=eastwest;imageWidth=16;imageHeight=16;image=data:image/png,iVBORw0KGgoAAAANSUhEUgAAACAAAAAgCAYAAABzenr0AAAAV0lEQVR4XmNgGAVkglkrNpxBxujyNAejDqC6A3AZmLTV+T8yJqTeYduD/8gYJk4Q4DJw1AHDxgG41MMBLgWjDhh1wKgDRh0w6oBRB4w6gG4OGAWjYMQCAD3bML1XEuu8AAAAAElFTkSuQmCC">
      <mxGeometry x="3108" y="381" width="216" height="25" as="geometry" />
    </mxCell>
    <mxCell id="node53" parent="1" vertex="1" value="io.reactivex:rxnetty-servo:0.4.9" style="label;fontStyle=0;strokeColor=default;fillColor=none;align=left;verticalAlign=middle;overflow=hidden;spacingLeft=28;spacingRight=4;rotatable=0;points=[[0,0.5],[1,0.5]];portConstraint=eastwest;imageWidth=16;imageHeight=16;image=data:image/png,iVBORw0KGgoAAAANSUhEUgAAACAAAAAgCAYAAABzenr0AAAAV0lEQVR4XmNgGAVkglkrNpxBxujyNAejDqC6A3AZmLTV+T8yJqTeYduD/8gYJk4Q4DJw1AHDxgG41MMBLgWjDhh1wKgDRh0w6oBRB4w6gG4OGAWjYMQCAD3bML1XEuu8AAAAAElFTkSuQmCC">
      <mxGeometry x="3116" y="593" width="200" height="25" as="geometry" />
    </mxCell>
    <mxCell id="node28" parent="1" vertex="1" value="io.reactivex:rxnetty:0.4.9" style="label;fontStyle=0;strokeColor=default;fillColor=none;align=left;verticalAlign=middle;overflow=hidden;spacingLeft=28;spacingRight=4;rotatable=0;points=[[0,0.5],[1,0.5]];portConstraint=eastwest;imageWidth=16;imageHeight=16;image=data:image/png,iVBORw0KGgoAAAANSUhEUgAAACAAAAAgCAYAAABzenr0AAAAV0lEQVR4XmNgGAVkglkrNpxBxujyNAejDqC6A3AZmLTV+T8yJqTeYduD/8gYJk4Q4DJw1AHDxgG41MMBLgWjDhh1wKgDRh0w6oBRB4w6gG4OGAWjYMQCAD3bML1XEuu8AAAAAElFTkSuQmCC">
      <mxGeometry x="3134" y="530" width="163" height="25" as="geometry" />
    </mxCell>
    <mxCell id="node31" parent="1" vertex="1" value="javax.annotation:javax.annotation-api:1.3.2" style="label;fontStyle=0;strokeColor=default;fillColor=none;align=left;verticalAlign=middle;overflow=hidden;spacingLeft=28;spacingRight=4;rotatable=0;points=[[0,0.5],[1,0.5]];portConstraint=eastwest;imageWidth=16;imageHeight=16;image=data:image/png,iVBORw0KGgoAAAANSUhEUgAAACAAAAAgCAYAAABzenr0AAAAV0lEQVR4XmNgGAVkglkrNpxBxujyNAejDqC6A3AZmLTV+T8yJqTeYduD/8gYJk4Q4DJw1AHDxgG41MMBLgWjDhh1wKgDRh0w6oBRB4w6gG4OGAWjYMQCAD3bML1XEuu8AAAAAElFTkSuQmCC">
      <mxGeometry x="1477" y="780" width="270" height="25" as="geometry" />
    </mxCell>
    <mxCell id="node90" parent="1" vertex="1" value="javax.inject:javax.inject:1" style="label;fontStyle=0;strokeColor=default;fillColor=none;align=left;verticalAlign=middle;overflow=hidden;spacingLeft=28;spacingRight=4;rotatable=0;points=[[0,0.5],[1,0.5]];portConstraint=eastwest;imageWidth=16;imageHeight=16;image=data:image/png,iVBORw0KGgoAAAANSUhEUgAAACAAAAAgCAYAAABzenr0AAAAV0lEQVR4XmNgGAVkglkrNpxBxujyNAejDqC6A3AZmLTV+T8yJqTeYduD/8gYJk4Q4DJw1AHDxgG41MMBLgWjDhh1wKgDRh0w6oBRB4w6gG4OGAWjYMQCAD3bML1XEuu8AAAAAElFTkSuQmCC">
      <mxGeometry x="3134" y="939" width="163" height="25" as="geometry" />
    </mxCell>
    <mxCell id="node8" parent="1" vertex="1" value="javax.validation:validation-api:2.0.1.Final" style="label;fontStyle=0;strokeColor=default;fillColor=none;align=left;verticalAlign=middle;overflow=hidden;spacingLeft=28;spacingRight=4;rotatable=0;points=[[0,0.5],[1,0.5]];portConstraint=eastwest;imageWidth=16;imageHeight=16;image=data:image/png,iVBORw0KGgoAAAANSUhEUgAAACAAAAAgCAYAAABzenr0AAAAV0lEQVR4XmNgGAVkglkrNpxBxujyNAejDqC6A3AZmLTV+T8yJqTeYduD/8gYJk4Q4DJw1AHDxgG41MMBLgWjDhh1wKgDRh0w6oBRB4w6gG4OGAWjYMQCAD3bML1XEuu8AAAAAElFTkSuQmCC">
      <mxGeometry x="1484" y="266" width="255" height="25" as="geometry" />
    </mxCell>
    <mxCell id="node69" parent="1" vertex="1" value="javax.ws.rs:jsr311-api:1.1.1" style="label;fontStyle=0;strokeColor=default;fillColor=none;align=left;verticalAlign=middle;overflow=hidden;spacingLeft=28;spacingRight=4;rotatable=0;points=[[0,0.5],[1,0.5]];portConstraint=eastwest;imageWidth=16;imageHeight=16;image=data:image/png,iVBORw0KGgoAAAANSUhEUgAAACAAAAAgCAYAAABzenr0AAAAV0lEQVR4XmNgGAVkglkrNpxBxujyNAejDqC6A3AZmLTV+T8yJqTeYduD/8gYJk4Q4DJw1AHDxgG41MMBLgWjDhh1wKgDRh0w6oBRB4w6gG4OGAWjYMQCAD3bML1XEuu8AAAAAElFTkSuQmCC">
      <mxGeometry x="3833" y="1837" width="178" height="25" as="geometry" />
    </mxCell>
    <mxCell id="node20" parent="1" vertex="1" value="junit:junit:4.13.2" style="label;fontStyle=0;strokeColor=default;fillColor=none;align=left;verticalAlign=middle;overflow=hidden;spacingLeft=28;spacingRight=4;rotatable=0;points=[[0,0.5],[1,0.5]];portConstraint=eastwest;imageWidth=16;imageHeight=16;image=data:image/png,iVBORw0KGgoAAAANSUhEUgAAACAAAAAgCAYAAABzenr0AAAAV0lEQVR4XmNgGAVkglkrNpxBxujyNAejDqC6A3AZmLTV+T8yJqTeYduD/8gYJk4Q4DJw1AHDxgG41MMBLgWjDhh1wKgDRh0w6oBRB4w6gG4OGAWjYMQCAD3bML1XEuu8AAAAAElFTkSuQmCC">
      <mxGeometry x="389" y="1480" width="114" height="25" as="geometry" />
    </mxCell>
    <mxCell id="node25" parent="1" vertex="1" value="org.apache.commons:commons-lang3:3.8.1" style="label;fontStyle=0;strokeColor=default;fillColor=none;align=left;verticalAlign=middle;overflow=hidden;spacingLeft=28;spacingRight=4;rotatable=0;points=[[0,0.5],[1,0.5]];portConstraint=eastwest;imageWidth=16;imageHeight=16;image=data:image/png,iVBORw0KGgoAAAANSUhEUgAAACAAAAAgCAYAAABzenr0AAAAV0lEQVR4XmNgGAVkglkrNpxBxujyNAejDqC6A3AZmLTV+T8yJqTeYduD/8gYJk4Q4DJw1AHDxgG41MMBLgWjDhh1wKgDRh0w6oBRB4w6gG4OGAWjYMQCAD3bML1XEuu8AAAAAElFTkSuQmCC">
      <mxGeometry x="3076" y="1510" width="279" height="25" as="geometry" />
    </mxCell>
    <mxCell id="node30" parent="1" vertex="1" value="org.apache.httpcomponents:httpclient:4.5.9" style="label;fontStyle=0;strokeColor=default;fillColor=none;align=left;verticalAlign=middle;overflow=hidden;spacingLeft=28;spacingRight=4;rotatable=0;points=[[0,0.5],[1,0.5]];portConstraint=eastwest;imageWidth=16;imageHeight=16;image=data:image/png,iVBORw0KGgoAAAANSUhEUgAAACAAAAAgCAYAAABzenr0AAAAV0lEQVR4XmNgGAVkglkrNpxBxujyNAejDqC6A3AZmLTV+T8yJqTeYduD/8gYJk4Q4DJw1AHDxgG41MMBLgWjDhh1wKgDRh0w6oBRB4w6gG4OGAWjYMQCAD3bML1XEuu8AAAAAElFTkSuQmCC">
      <mxGeometry x="3078" y="1682" width="276" height="25" as="geometry" />
    </mxCell>
    <mxCell id="node81" parent="1" vertex="1" value="org.apache.httpcomponents:httpcore:4.4.11" style="label;fontStyle=0;strokeColor=default;fillColor=none;align=left;verticalAlign=middle;overflow=hidden;spacingLeft=28;spacingRight=4;rotatable=0;points=[[0,0.5],[1,0.5]];portConstraint=eastwest;imageWidth=16;imageHeight=16;image=data:image/png,iVBORw0KGgoAAAANSUhEUgAAACAAAAAgCAYAAABzenr0AAAAV0lEQVR4XmNgGAVkglkrNpxBxujyNAejDqC6A3AZmLTV+T8yJqTeYduD/8gYJk4Q4DJw1AHDxgG41MMBLgWjDhh1wKgDRh0w6oBRB4w6gG4OGAWjYMQCAD3bML1XEuu8AAAAAElFTkSuQmCC">
      <mxGeometry x="3534" y="1682" width="279" height="25" as="geometry" />
    </mxCell>
    <mxCell id="node62" parent="1" vertex="1" value="org.apache.logging.log4j:log4j-api:2.11.2" style="label;fontStyle=0;strokeColor=default;fillColor=none;align=left;verticalAlign=middle;overflow=hidden;spacingLeft=28;spacingRight=4;rotatable=0;points=[[0,0.5],[1,0.5]];portConstraint=eastwest;imageWidth=16;imageHeight=16;image=data:image/png,iVBORw0KGgoAAAANSUhEUgAAACAAAAAgCAYAAABzenr0AAAAV0lEQVR4XmNgGAVkglkrNpxBxujyNAejDqC6A3AZmLTV+T8yJqTeYduD/8gYJk4Q4DJw1AHDxgG41MMBLgWjDhh1wKgDRh0w6oBRB4w6gG4OGAWjYMQCAD3bML1XEuu8AAAAAElFTkSuQmCC">
      <mxGeometry x="3084" y="1788" width="264" height="25" as="geometry" />
    </mxCell>
    <mxCell id="node13" parent="1" vertex="1" value="org.apache.logging.log4j:log4j-to-slf4j:2.11.2" style="label;fontStyle=0;strokeColor=default;fillColor=none;align=left;verticalAlign=middle;overflow=hidden;spacingLeft=28;spacingRight=4;rotatable=0;points=[[0,0.5],[1,0.5]];portConstraint=eastwest;imageWidth=16;imageHeight=16;image=data:image/png,iVBORw0KGgoAAAANSUhEUgAAACAAAAAgCAYAAABzenr0AAAAV0lEQVR4XmNgGAVkglkrNpxBxujyNAejDqC6A3AZmLTV+T8yJqTeYduD/8gYJk4Q4DJw1AHDxgG41MMBLgWjDhh1wKgDRh0w6oBRB4w6gG4OGAWjYMQCAD3bML1XEuu8AAAAAElFTkSuQmCC">
      <mxGeometry x="2174" y="1899" width="286" height="25" as="geometry" />
    </mxCell>
    <mxCell id="node33" parent="1" vertex="1" value="org.apache.tomcat.embed:tomcat-embed-core:9.0.22" style="label;fontStyle=0;strokeColor=default;fillColor=none;align=left;verticalAlign=middle;overflow=hidden;spacingLeft=28;spacingRight=4;rotatable=0;points=[[0,0.5],[1,0.5]];portConstraint=eastwest;imageWidth=16;imageHeight=16;image=data:image/png,iVBORw0KGgoAAAANSUhEUgAAACAAAAAgCAYAAABzenr0AAAAV0lEQVR4XmNgGAVkglkrNpxBxujyNAejDqC6A3AZmLTV+T8yJqTeYduD/8gYJk4Q4DJw1AHDxgG41MMBLgWjDhh1wKgDRh0w6oBRB4w6gG4OGAWjYMQCAD3bML1XEuu8AAAAAElFTkSuQmCC">
      <mxGeometry x="1444" y="31" width="336" height="25" as="geometry" />
    </mxCell>
    <mxCell id="node91" parent="1" vertex="1" value="org.apache.tomcat.embed:tomcat-embed-el:9.0.22" style="label;fontStyle=0;strokeColor=default;fillColor=none;align=left;verticalAlign=middle;overflow=hidden;spacingLeft=28;spacingRight=4;rotatable=0;points=[[0,0.5],[1,0.5]];portConstraint=eastwest;imageWidth=16;imageHeight=16;image=data:image/png,iVBORw0KGgoAAAANSUhEUgAAACAAAAAgCAYAAABzenr0AAAAV0lEQVR4XmNgGAVkglkrNpxBxujyNAejDqC6A3AZmLTV+T8yJqTeYduD/8gYJk4Q4DJw1AHDxgG41MMBLgWjDhh1wKgDRh0w6oBRB4w6gG4OGAWjYMQCAD3bML1XEuu8AAAAAElFTkSuQmCC">
      <mxGeometry x="1452" y="-12" width="320" height="25" as="geometry" />
    </mxCell>
    <mxCell id="node9" parent="1" vertex="1" value="org.apache.tomcat.embed:tomcat-embed-websocket:9.0.22" style="label;fontStyle=0;strokeColor=default;fillColor=none;align=left;verticalAlign=middle;overflow=hidden;spacingLeft=28;spacingRight=4;rotatable=0;points=[[0,0.5],[1,0.5]];portConstraint=eastwest;imageWidth=16;imageHeight=16;image=data:image/png,iVBORw0KGgoAAAANSUhEUgAAACAAAAAgCAYAAABzenr0AAAAV0lEQVR4XmNgGAVkglkrNpxBxujyNAejDqC6A3AZmLTV+T8yJqTeYduD/8gYJk4Q4DJw1AHDxgG41MMBLgWjDhh1wKgDRh0w6oBRB4w6gG4OGAWjYMQCAD3bML1XEuu8AAAAAElFTkSuQmCC">
      <mxGeometry x="1426" y="94" width="372" height="25" as="geometry" />
    </mxCell>
    <mxCell id="node55" parent="1" vertex="1" value="org.bouncycastle:bcpkix-jdk15on:1.60" style="label;fontStyle=0;strokeColor=default;fillColor=none;align=left;verticalAlign=middle;overflow=hidden;spacingLeft=28;spacingRight=4;rotatable=0;points=[[0,0.5],[1,0.5]];portConstraint=eastwest;imageWidth=16;imageHeight=16;image=data:image/png,iVBORw0KGgoAAAANSUhEUgAAACAAAAAgCAYAAABzenr0AAAAV0lEQVR4XmNgGAVkglkrNpxBxujyNAejDqC6A3AZmLTV+T8yJqTeYduD/8gYJk4Q4DJw1AHDxgG41MMBLgWjDhh1wKgDRh0w6oBRB4w6gG4OGAWjYMQCAD3bML1XEuu8AAAAAElFTkSuQmCC">
      <mxGeometry x="3093" y="295" width="245" height="25" as="geometry" />
    </mxCell>
    <mxCell id="node35" parent="1" vertex="1" value="org.bouncycastle:bcprov-jdk15on:1.60" style="label;fontStyle=0;strokeColor=default;fillColor=none;align=left;verticalAlign=middle;overflow=hidden;spacingLeft=28;spacingRight=4;rotatable=0;points=[[0,0.5],[1,0.5]];portConstraint=eastwest;imageWidth=16;imageHeight=16;image=data:image/png,iVBORw0KGgoAAAANSUhEUgAAACAAAAAgCAYAAABzenr0AAAAV0lEQVR4XmNgGAVkglkrNpxBxujyNAejDqC6A3AZmLTV+T8yJqTeYduD/8gYJk4Q4DJw1AHDxgG41MMBLgWjDhh1wKgDRh0w6oBRB4w6gG4OGAWjYMQCAD3bML1XEuu8AAAAAElFTkSuQmCC">
      <mxGeometry x="3550" y="295" width="248" height="25" as="geometry" />
    </mxCell>
    <mxCell id="node68" parent="1" vertex="1" value="org.hamcrest:hamcrest-core:1.3" style="label;fontStyle=0;strokeColor=default;fillColor=none;align=left;verticalAlign=middle;overflow=hidden;spacingLeft=28;spacingRight=4;rotatable=0;points=[[0,0.5],[1,0.5]];portConstraint=eastwest;imageWidth=16;imageHeight=16;image=data:image/png,iVBORw0KGgoAAAANSUhEUgAAACAAAAAgCAYAAABzenr0AAAAV0lEQVR4XmNgGAVkglkrNpxBxujyNAejDqC6A3AZmLTV+T8yJqTeYduD/8gYJk4Q4DJw1AHDxgG41MMBLgWjDhh1wKgDRh0w6oBRB4w6gG4OGAWjYMQCAD3bML1XEuu8AAAAAElFTkSuQmCC">
      <mxGeometry x="852" y="1480" width="210" height="25" as="geometry" />
    </mxCell>
    <mxCell id="node58" parent="1" vertex="1" value="org.hdrhistogram:HdrHistogram:2.1.9" style="label;fontStyle=0;strokeColor=default;fillColor=none;align=left;verticalAlign=middle;overflow=hidden;spacingLeft=28;spacingRight=4;rotatable=0;points=[[0,0.5],[1,0.5]];portConstraint=eastwest;imageWidth=16;imageHeight=16;image=data:image/png,iVBORw0KGgoAAAANSUhEUgAAACAAAAAgCAYAAABzenr0AAAAV0lEQVR4XmNgGAVkglkrNpxBxujyNAejDqC6A3AZmLTV+T8yJqTeYduD/8gYJk4Q4DJw1AHDxgG41MMBLgWjDhh1wKgDRh0w6oBRB4w6gG4OGAWjYMQCAD3bML1XEuu8AAAAAElFTkSuQmCC">
      <mxGeometry x="3551" y="1062" width="245" height="25" as="geometry" />
    </mxCell>
    <mxCell id="node70" parent="1" vertex="1" value="org.hibernate.validator:hibernate-validator:6.0.17.Final" style="label;fontStyle=0;strokeColor=default;fillColor=none;align=left;verticalAlign=middle;overflow=hidden;spacingLeft=28;spacingRight=4;rotatable=0;points=[[0,0.5],[1,0.5]];portConstraint=eastwest;imageWidth=16;imageHeight=16;image=data:image/png,iVBORw0KGgoAAAANSUhEUgAAACAAAAAgCAYAAABzenr0AAAAV0lEQVR4XmNgGAVkglkrNpxBxujyNAejDqC6A3AZmLTV+T8yJqTeYduD/8gYJk4Q4DJw1AHDxgG41MMBLgWjDhh1wKgDRh0w6oBRB4w6gG4OGAWjYMQCAD3bML1XEuu8AAAAAElFTkSuQmCC">
      <mxGeometry x="787" y="417" width="339" height="25" as="geometry" />
    </mxCell>
    <mxCell id="node17" parent="1" vertex="1" value="org.jboss.logging:jboss-logging:3.3.2.Final" style="label;fontStyle=0;strokeColor=default;fillColor=none;align=left;verticalAlign=middle;overflow=hidden;spacingLeft=28;spacingRight=4;rotatable=0;points=[[0,0.5],[1,0.5]];portConstraint=eastwest;imageWidth=16;imageHeight=16;image=data:image/png,iVBORw0KGgoAAAANSUhEUgAAACAAAAAgCAYAAABzenr0AAAAV0lEQVR4XmNgGAVkglkrNpxBxujyNAejDqC6A3AZmLTV+T8yJqTeYduD/8gYJk4Q4DJw1AHDxgG41MMBLgWjDhh1wKgDRh0w6oBRB4w6gG4OGAWjYMQCAD3bML1XEuu8AAAAAElFTkSuQmCC">
      <mxGeometry x="1476" y="180" width="272" height="25" as="geometry" />
    </mxCell>
    <mxCell id="node21" parent="1" vertex="1" value="org.slf4j:jul-to-slf4j:1.7.26" style="label;fontStyle=0;strokeColor=default;fillColor=none;align=left;verticalAlign=middle;overflow=hidden;spacingLeft=28;spacingRight=4;rotatable=0;points=[[0,0.5],[1,0.5]];portConstraint=eastwest;imageWidth=16;imageHeight=16;image=data:image/png,iVBORw0KGgoAAAANSUhEUgAAACAAAAAgCAYAAABzenr0AAAAV0lEQVR4XmNgGAVkglkrNpxBxujyNAejDqC6A3AZmLTV+T8yJqTeYduD/8gYJk4Q4DJw1AHDxgG41MMBLgWjDhh1wKgDRh0w6oBRB4w6gG4OGAWjYMQCAD3bML1XEuu8AAAAAElFTkSuQmCC">
      <mxGeometry x="2232" y="1284" width="171" height="25" as="geometry" />
    </mxCell>
    <mxCell id="node75" parent="1" vertex="1" value="org.slf4j:slf4j-api:1.7.26" style="label;fontStyle=0;strokeColor=default;fillColor=none;align=left;verticalAlign=middle;overflow=hidden;spacingLeft=28;spacingRight=4;rotatable=0;points=[[0,0.5],[1,0.5]];portConstraint=eastwest;imageWidth=16;imageHeight=16;image=data:image/png,iVBORw0KGgoAAAANSUhEUgAAACAAAAAgCAYAAABzenr0AAAAV0lEQVR4XmNgGAVkglkrNpxBxujyNAejDqC6A3AZmLTV+T8yJqTeYduD/8gYJk4Q4DJw1AHDxgG41MMBLgWjDhh1wKgDRh0w6oBRB4w6gG4OGAWjYMQCAD3bML1XEuu8AAAAAElFTkSuQmCC">
      <mxGeometry x="3136" y="1239" width="159" height="25" as="geometry" />
    </mxCell>
    <mxCell id="node89" parent="1" vertex="1" value="org.springframework.boot:spring-boot-autoconfigure:2.1.7.RELEASE" style="label;fontStyle=0;strokeColor=default;fillColor=none;align=left;verticalAlign=middle;overflow=hidden;spacingLeft=28;spacingRight=4;rotatable=0;points=[[0,0.5],[1,0.5]];portConstraint=eastwest;imageWidth=16;imageHeight=16;image=data:image/png,iVBORw0KGgoAAAANSUhEUgAAACAAAAAgCAYAAABzenr0AAAAV0lEQVR4XmNgGAVkglkrNpxBxujyNAejDqC6A3AZmLTV+T8yJqTeYduD/8gYJk4Q4DJw1AHDxgG41MMBLgWjDhh1wKgDRh0w6oBRB4w6gG4OGAWjYMQCAD3bML1XEuu8AAAAAElFTkSuQmCC">
      <mxGeometry x="1400" y="1831" width="423" height="25" as="geometry" />
    </mxCell>
    <mxCell id="node84" parent="1" vertex="1" value="org.springframework.boot:spring-boot-starter-json:2.1.7.RELEASE" style="label;fontStyle=0;strokeColor=default;fillColor=none;align=left;verticalAlign=middle;overflow=hidden;spacingLeft=28;spacingRight=4;rotatable=0;points=[[0,0.5],[1,0.5]];portConstraint=eastwest;imageWidth=16;imageHeight=16;image=data:image/png,iVBORw0KGgoAAAANSUhEUgAAACAAAAAgCAYAAABzenr0AAAAV0lEQVR4XmNgGAVkglkrNpxBxujyNAejDqC6A3AZmLTV+T8yJqTeYduD/8gYJk4Q4DJw1AHDxgG41MMBLgWjDhh1wKgDRh0w6oBRB4w6gG4OGAWjYMQCAD3bML1XEuu8AAAAAElFTkSuQmCC">
      <mxGeometry x="752" y="503" width="409" height="25" as="geometry" />
    </mxCell>
    <mxCell id="node46" parent="1" vertex="1" value="org.springframework.boot:spring-boot-starter-logging:2.1.7.RELEASE" style="label;fontStyle=0;strokeColor=default;fillColor=none;align=left;verticalAlign=middle;overflow=hidden;spacingLeft=28;spacingRight=4;rotatable=0;points=[[0,0.5],[1,0.5]];portConstraint=eastwest;imageWidth=16;imageHeight=16;image=data:image/png,iVBORw0KGgoAAAANSUhEUgAAACAAAAAgCAYAAABzenr0AAAAV0lEQVR4XmNgGAVkglkrNpxBxujyNAejDqC6A3AZmLTV+T8yJqTeYduD/8gYJk4Q4DJw1AHDxgG41MMBLgWjDhh1wKgDRh0w6oBRB4w6gG4OGAWjYMQCAD3bML1XEuu8AAAAAElFTkSuQmCC">
      <mxGeometry x="1397" y="1788" width="430" height="25" as="geometry" />
    </mxCell>
    <mxCell id="node66" parent="1" vertex="1" value="org.springframework.boot:spring-boot-starter-tomcat:2.1.7.RELEASE" style="label;fontStyle=0;strokeColor=default;fillColor=none;align=left;verticalAlign=middle;overflow=hidden;spacingLeft=28;spacingRight=4;rotatable=0;points=[[0,0.5],[1,0.5]];portConstraint=eastwest;imageWidth=16;imageHeight=16;image=data:image/png,iVBORw0KGgoAAAANSUhEUgAAACAAAAAgCAYAAABzenr0AAAAV0lEQVR4XmNgGAVkglkrNpxBxujyNAejDqC6A3AZmLTV+T8yJqTeYduD/8gYJk4Q4DJw1AHDxgG41MMBLgWjDhh1wKgDRh0w6oBRB4w6gG4OGAWjYMQCAD3bML1XEuu8AAAAAElFTkSuQmCC">
      <mxGeometry x="744" y="213" width="425" height="25" as="geometry" />
    </mxCell>
    <mxCell id="node60" parent="1" vertex="1" value="org.springframework.boot:spring-boot-starter-web:2.1.7.RELEASE" style="label;fontStyle=0;strokeColor=default;fillColor=none;align=left;verticalAlign=middle;overflow=hidden;spacingLeft=28;spacingRight=4;rotatable=0;points=[[0,0.5],[1,0.5]];portConstraint=eastwest;imageWidth=16;imageHeight=16;image=data:image/png,iVBORw0KGgoAAAANSUhEUgAAACAAAAAgCAYAAABzenr0AAAAV0lEQVR4XmNgGAVkglkrNpxBxujyNAejDqC6A3AZmLTV+T8yJqTeYduD/8gYJk4Q4DJw1AHDxgG41MMBLgWjDhh1wKgDRh0w6oBRB4w6gG4OGAWjYMQCAD3bML1XEuu8AAAAAElFTkSuQmCC">
      <mxGeometry x="242" y="669" width="409" height="25" as="geometry" />
    </mxCell>
    <mxCell id="node59" parent="1" vertex="1" value="org.springframework.boot:spring-boot-starter:2.1.7.RELEASE" style="label;fontStyle=0;strokeColor=default;fillColor=none;align=left;verticalAlign=middle;overflow=hidden;spacingLeft=28;spacingRight=4;rotatable=0;points=[[0,0.5],[1,0.5]];portConstraint=eastwest;imageWidth=16;imageHeight=16;image=data:image/png,iVBORw0KGgoAAAANSUhEUgAAACAAAAAgCAYAAABzenr0AAAAV0lEQVR4XmNgGAVkglkrNpxBxujyNAejDqC6A3AZmLTV+T8yJqTeYduD/8gYJk4Q4DJw1AHDxgG41MMBLgWjDhh1wKgDRh0w6oBRB4w6gG4OGAWjYMQCAD3bML1XEuu8AAAAAElFTkSuQmCC">
      <mxGeometry x="767" y="1437" width="380" height="25" as="geometry" />
    </mxCell>
    <mxCell id="node48" parent="1" vertex="1" value="org.springframework.boot:spring-boot-test:2.1.7.RELEASE" style="label;fontStyle=0;strokeColor=default;fillColor=none;align=left;verticalAlign=middle;overflow=hidden;spacingLeft=28;spacingRight=4;rotatable=0;points=[[0,0.5],[1,0.5]];portConstraint=eastwest;imageWidth=16;imageHeight=16;image=data:image/png,iVBORw0KGgoAAAANSUhEUgAAACAAAAAgCAYAAABzenr0AAAAV0lEQVR4XmNgGAVkglkrNpxBxujyNAejDqC6A3AZmLTV+T8yJqTeYduD/8gYJk4Q4DJw1AHDxgG41MMBLgWjDhh1wKgDRh0w6oBRB4w6gG4OGAWjYMQCAD3bML1XEuu8AAAAAElFTkSuQmCC">
      <mxGeometry x="265" y="1523" width="363" height="25" as="geometry" />
    </mxCell>
    <mxCell id="node54" parent="1" vertex="1" value="org.springframework.boot:spring-boot:2.1.7.RELEASE" style="label;fontStyle=0;strokeColor=default;fillColor=none;align=left;verticalAlign=middle;overflow=hidden;spacingLeft=28;spacingRight=4;rotatable=0;points=[[0,0.5],[1,0.5]];portConstraint=eastwest;imageWidth=16;imageHeight=16;image=data:image/png,iVBORw0KGgoAAAANSUhEUgAAACAAAAAgCAYAAABzenr0AAAAV0lEQVR4XmNgGAVkglkrNpxBxujyNAejDqC6A3AZmLTV+T8yJqTeYduD/8gYJk4Q4DJw1AHDxgG41MMBLgWjDhh1wKgDRh0w6oBRB4w6gG4OGAWjYMQCAD3bML1XEuu8AAAAAElFTkSuQmCC">
      <mxGeometry x="788" y="1523" width="337" height="25" as="geometry" />
    </mxCell>
    <mxCell id="node1" parent="1" vertex="1" value="org.springframework.cloud:spring-cloud-commons:2.1.2.RELEASE" style="label;fontStyle=0;strokeColor=default;fillColor=none;align=left;verticalAlign=middle;overflow=hidden;spacingLeft=28;spacingRight=4;rotatable=0;points=[[0,0.5],[1,0.5]];portConstraint=eastwest;imageWidth=16;imageHeight=16;image=data:image/png,iVBORw0KGgoAAAANSUhEUgAAACAAAAAgCAYAAABzenr0AAAAV0lEQVR4XmNgGAVkglkrNpxBxujyNAejDqC6A3AZmLTV+T8yJqTeYduD/8gYJk4Q4DJw1AHDxgG41MMBLgWjDhh1wKgDRh0w6oBRB4w6gG4OGAWjYMQCAD3bML1XEuu8AAAAAElFTkSuQmCC">
      <mxGeometry x="1408" y="1067" width="407" height="25" as="geometry" />
    </mxCell>
    <mxCell id="node18" parent="1" vertex="1" value="org.springframework.cloud:spring-cloud-context:2.1.2.RELEASE" style="label;fontStyle=0;strokeColor=default;fillColor=none;align=left;verticalAlign=middle;overflow=hidden;spacingLeft=28;spacingRight=4;rotatable=0;points=[[0,0.5],[1,0.5]];portConstraint=eastwest;imageWidth=16;imageHeight=16;image=data:image/png,iVBORw0KGgoAAAANSUhEUgAAACAAAAAgCAYAAABzenr0AAAAV0lEQVR4XmNgGAVkglkrNpxBxujyNAejDqC6A3AZmLTV+T8yJqTeYduD/8gYJk4Q4DJw1AHDxgG41MMBLgWjDhh1wKgDRh0w6oBRB4w6gG4OGAWjYMQCAD3bML1XEuu8AAAAAElFTkSuQmCC">
      <mxGeometry x="1416" y="906" width="392" height="25" as="geometry" />
    </mxCell>
    <mxCell id="node26" parent="1" vertex="1" value="org.springframework.cloud:spring-cloud-netflix-archaius:2.1.2.RELEASE" style="label;fontStyle=0;strokeColor=default;fillColor=none;align=left;verticalAlign=middle;overflow=hidden;spacingLeft=28;spacingRight=4;rotatable=0;points=[[0,0.5],[1,0.5]];portConstraint=eastwest;imageWidth=16;imageHeight=16;image=data:image/png,iVBORw0KGgoAAAANSUhEUgAAACAAAAAgCAYAAABzenr0AAAAV0lEQVR4XmNgGAVkglkrNpxBxujyNAejDqC6A3AZmLTV+T8yJqTeYduD/8gYJk4Q4DJw1AHDxgG41MMBLgWjDhh1wKgDRh0w6oBRB4w6gG4OGAWjYMQCAD3bML1XEuu8AAAAAElFTkSuQmCC">
      <mxGeometry x="2997" y="252" width="437" height="25" as="geometry" />
    </mxCell>
    <mxCell id="node71" parent="1" vertex="1" value="org.springframework.cloud:spring-cloud-netflix-ribbon:2.1.2.RELEASE" style="label;fontStyle=0;strokeColor=default;fillColor=none;align=left;verticalAlign=middle;overflow=hidden;spacingLeft=28;spacingRight=4;rotatable=0;points=[[0,0.5],[1,0.5]];portConstraint=eastwest;imageWidth=16;imageHeight=16;image=data:image/png,iVBORw0KGgoAAAANSUhEUgAAACAAAAAgCAYAAABzenr0AAAAV0lEQVR4XmNgGAVkglkrNpxBxujyNAejDqC6A3AZmLTV+T8yJqTeYduD/8gYJk4Q4DJw1AHDxgG41MMBLgWjDhh1wKgDRh0w6oBRB4w6gG4OGAWjYMQCAD3bML1XEuu8AAAAAElFTkSuQmCC">
      <mxGeometry x="2103" y="252" width="428" height="25" as="geometry" />
    </mxCell>
    <mxCell id="node45" parent="1" vertex="1" value="org.springframework.cloud:spring-cloud-starter-netflix-archaius:2.1.2.RELEASE" style="label;fontStyle=0;strokeColor=default;fillColor=none;align=left;verticalAlign=middle;overflow=hidden;spacingLeft=28;spacingRight=4;rotatable=0;points=[[0,0.5],[1,0.5]];portConstraint=eastwest;imageWidth=16;imageHeight=16;image=data:image/png,iVBORw0KGgoAAAANSUhEUgAAACAAAAAgCAYAAABzenr0AAAAV0lEQVR4XmNgGAVkglkrNpxBxujyNAejDqC6A3AZmLTV+T8yJqTeYduD/8gYJk4Q4DJw1AHDxgG41MMBLgWjDhh1wKgDRh0w6oBRB4w6gG4OGAWjYMQCAD3bML1XEuu8AAAAAElFTkSuQmCC">
      <mxGeometry x="2077" y="430" width="480" height="25" as="geometry" />
    </mxCell>
    <mxCell id="node22" parent="1" vertex="1" value="org.springframework.cloud:spring-cloud-starter-netflix-ribbon:2.1.2.RELEASE" style="label;fontStyle=0;strokeColor=default;fillColor=none;align=left;verticalAlign=middle;overflow=hidden;spacingLeft=28;spacingRight=4;rotatable=0;points=[[0,0.5],[1,0.5]];portConstraint=eastwest;imageWidth=16;imageHeight=16;image=data:image/png,iVBORw0KGgoAAAANSUhEUgAAACAAAAAgCAYAAABzenr0AAAAV0lEQVR4XmNgGAVkglkrNpxBxujyNAejDqC6A3AZmLTV+T8yJqTeYduD/8gYJk4Q4DJw1AHDxgG41MMBLgWjDhh1wKgDRh0w6oBRB4w6gG4OGAWjYMQCAD3bML1XEuu8AAAAAElFTkSuQmCC">
      <mxGeometry x="1376" y="609" width="471" height="25" as="geometry" />
    </mxCell>
    <mxCell id="node37" parent="1" vertex="1" value="org.springframework.cloud:spring-cloud-starter:2.1.2.RELEASE" style="label;fontStyle=0;strokeColor=default;fillColor=none;align=left;verticalAlign=middle;overflow=hidden;spacingLeft=28;spacingRight=4;rotatable=0;points=[[0,0.5],[1,0.5]];portConstraint=eastwest;imageWidth=16;imageHeight=16;image=data:image/png,iVBORw0KGgoAAAANSUhEUgAAACAAAAAgCAYAAABzenr0AAAAV0lEQVR4XmNgGAVkglkrNpxBxujyNAejDqC6A3AZmLTV+T8yJqTeYduD/8gYJk4Q4DJw1AHDxgG41MMBLgWjDhh1wKgDRh0w6oBRB4w6gG4OGAWjYMQCAD3bML1XEuu8AAAAAElFTkSuQmCC">
      <mxGeometry x="1418" y="672" width="388" height="25" as="geometry" />
    </mxCell>
    <mxCell id="node6" parent="1" vertex="1" value="org.springframework.security:spring-security-crypto:5.1.6.RELEASE" style="label;fontStyle=0;strokeColor=default;fillColor=none;align=left;verticalAlign=middle;overflow=hidden;spacingLeft=28;spacingRight=4;rotatable=0;points=[[0,0.5],[1,0.5]];portConstraint=eastwest;imageWidth=16;imageHeight=16;image=data:image/png,iVBORw0KGgoAAAANSUhEUgAAACAAAAAgCAYAAABzenr0AAAAV0lEQVR4XmNgGAVkglkrNpxBxujyNAejDqC6A3AZmLTV+T8yJqTeYduD/8gYJk4Q4DJw1AHDxgG41MMBLgWjDhh1wKgDRh0w6oBRB4w6gG4OGAWjYMQCAD3bML1XEuu8AAAAAElFTkSuQmCC">
      <mxGeometry x="2112" y="894" width="411" height="25" as="geometry" />
    </mxCell>
    <mxCell id="node61" parent="1" vertex="1" value="org.springframework.security:spring-security-rsa:1.0.7.RELEASE" style="label;fontStyle=0;strokeColor=default;fillColor=none;align=left;verticalAlign=middle;overflow=hidden;spacingLeft=28;spacingRight=4;rotatable=0;points=[[0,0.5],[1,0.5]];portConstraint=eastwest;imageWidth=16;imageHeight=16;image=data:image/png,iVBORw0KGgoAAAANSUhEUgAAACAAAAAgCAYAAABzenr0AAAAV0lEQVR4XmNgGAVkglkrNpxBxujyNAejDqC6A3AZmLTV+T8yJqTeYduD/8gYJk4Q4DJw1AHDxgG41MMBLgWjDhh1wKgDRh0w6oBRB4w6gG4OGAWjYMQCAD3bML1XEuu8AAAAAElFTkSuQmCC">
      <mxGeometry x="2121" y="295" width="392" height="25" as="geometry" />
    </mxCell>
    <mxCell id="node12" parent="1" vertex="1" value="org.springframework:spring-aop:5.1.9.RELEASE" style="label;fontStyle=0;strokeColor=default;fillColor=none;align=left;verticalAlign=middle;overflow=hidden;spacingLeft=28;spacingRight=4;rotatable=0;points=[[0,0.5],[1,0.5]];portConstraint=eastwest;imageWidth=16;imageHeight=16;image=data:image/png,iVBORw0KGgoAAAANSUhEUgAAACAAAAAgCAYAAABzenr0AAAAV0lEQVR4XmNgGAVkglkrNpxBxujyNAejDqC6A3AZmLTV+T8yJqTeYduD/8gYJk4Q4DJw1AHDxgG41MMBLgWjDhh1wKgDRh0w6oBRB4w6gG4OGAWjYMQCAD3bML1XEuu8AAAAAElFTkSuQmCC">
      <mxGeometry x="1461" y="1280" width="301" height="25" as="geometry" />
    </mxCell>
    <mxCell id="node24" parent="1" vertex="1" value="org.springframework:spring-beans:5.1.9.RELEASE" style="label;fontStyle=0;strokeColor=default;fillColor=none;align=left;verticalAlign=middle;overflow=hidden;spacingLeft=28;spacingRight=4;rotatable=0;points=[[0,0.5],[1,0.5]];portConstraint=eastwest;imageWidth=16;imageHeight=16;image=data:image/png,iVBORw0KGgoAAAANSUhEUgAAACAAAAAgCAYAAABzenr0AAAAV0lEQVR4XmNgGAVkglkrNpxBxujyNAejDqC6A3AZmLTV+T8yJqTeYduD/8gYJk4Q4DJw1AHDxgG41MMBLgWjDhh1wKgDRh0w6oBRB4w6gG4OGAWjYMQCAD3bML1XEuu8AAAAAElFTkSuQmCC">
      <mxGeometry x="1455" y="1343" width="313" height="25" as="geometry" />
    </mxCell>
    <mxCell id="node52" parent="1" vertex="1" value="org.springframework:spring-context:5.1.9.RELEASE" style="label;fontStyle=0;strokeColor=default;fillColor=none;align=left;verticalAlign=middle;overflow=hidden;spacingLeft=28;spacingRight=4;rotatable=0;points=[[0,0.5],[1,0.5]];portConstraint=eastwest;imageWidth=16;imageHeight=16;image=data:image/png,iVBORw0KGgoAAAANSUhEUgAAACAAAAAgCAYAAABzenr0AAAAV0lEQVR4XmNgGAVkglkrNpxBxujyNAejDqC6A3AZmLTV+T8yJqTeYduD/8gYJk4Q4DJw1AHDxgG41MMBLgWjDhh1wKgDRh0w6oBRB4w6gG4OGAWjYMQCAD3bML1XEuu8AAAAAElFTkSuQmCC">
      <mxGeometry x="1452" y="1217" width="320" height="25" as="geometry" />
    </mxCell>
    <mxCell id="node83" parent="1" vertex="1" value="org.springframework:spring-core:5.1.9.RELEASE" style="label;fontStyle=0;strokeColor=default;fillColor=none;align=left;verticalAlign=middle;overflow=hidden;spacingLeft=28;spacingRight=4;rotatable=0;points=[[0,0.5],[1,0.5]];portConstraint=eastwest;imageWidth=16;imageHeight=16;image=data:image/png,iVBORw0KGgoAAAANSUhEUgAAACAAAAAgCAYAAABzenr0AAAAV0lEQVR4XmNgGAVkglkrNpxBxujyNAejDqC6A3AZmLTV+T8yJqTeYduD/8gYJk4Q4DJw1AHDxgG41MMBLgWjDhh1wKgDRh0w6oBRB4w6gG4OGAWjYMQCAD3bML1XEuu8AAAAAElFTkSuQmCC">
      <mxGeometry x="1460" y="1480" width="304" height="25" as="geometry" />
    </mxCell>
    <mxCell id="node51" parent="1" vertex="1" value="org.springframework:spring-expression:5.1.9.RELEASE" style="label;fontStyle=0;strokeColor=default;fillColor=none;align=left;verticalAlign=middle;overflow=hidden;spacingLeft=28;spacingRight=4;rotatable=0;points=[[0,0.5],[1,0.5]];portConstraint=eastwest;imageWidth=16;imageHeight=16;image=data:image/png,iVBORw0KGgoAAAANSUhEUgAAACAAAAAgCAYAAABzenr0AAAAV0lEQVR4XmNgGAVkglkrNpxBxujyNAejDqC6A3AZmLTV+T8yJqTeYduD/8gYJk4Q4DJw1AHDxgG41MMBLgWjDhh1wKgDRh0w6oBRB4w6gG4OGAWjYMQCAD3bML1XEuu8AAAAAElFTkSuQmCC">
      <mxGeometry x="1441" y="1154" width="341" height="25" as="geometry" />
    </mxCell>
    <mxCell id="node15" parent="1" vertex="1" value="org.springframework:spring-jcl:5.1.9.RELEASE" style="label;fontStyle=0;strokeColor=default;fillColor=none;align=left;verticalAlign=middle;overflow=hidden;spacingLeft=28;spacingRight=4;rotatable=0;points=[[0,0.5],[1,0.5]];portConstraint=eastwest;imageWidth=16;imageHeight=16;image=data:image/png,iVBORw0KGgoAAAANSUhEUgAAACAAAAAgCAYAAABzenr0AAAAV0lEQVR4XmNgGAVkglkrNpxBxujyNAejDqC6A3AZmLTV+T8yJqTeYduD/8gYJk4Q4DJw1AHDxgG41MMBLgWjDhh1wKgDRh0w6oBRB4w6gG4OGAWjYMQCAD3bML1XEuu8AAAAAElFTkSuQmCC">
      <mxGeometry x="2172" y="1489" width="290" height="25" as="geometry" />
    </mxCell>
    <mxCell id="node2" parent="1" vertex="1" value="org.springframework:spring-web:5.1.9.RELEASE" style="label;fontStyle=0;strokeColor=default;fillColor=none;align=left;verticalAlign=middle;overflow=hidden;spacingLeft=28;spacingRight=4;rotatable=0;points=[[0,0.5],[1,0.5]];portConstraint=eastwest;imageWidth=16;imageHeight=16;image=data:image/png,iVBORw0KGgoAAAANSUhEUgAAACAAAAAgCAYAAABzenr0AAAAV0lEQVR4XmNgGAVkglkrNpxBxujyNAejDqC6A3AZmLTV+T8yJqTeYduD/8gYJk4Q4DJw1AHDxgG41MMBLgWjDhh1wKgDRh0w6oBRB4w6gG4OGAWjYMQCAD3bML1XEuu8AAAAAElFTkSuQmCC">
      <mxGeometry x="806" y="1035" width="302" height="25" as="geometry" />
    </mxCell>
    <mxCell id="node36" parent="1" vertex="1" value="org.springframework:spring-webmvc:5.1.9.RELEASE" style="label;fontStyle=0;strokeColor=default;fillColor=none;align=left;verticalAlign=middle;overflow=hidden;spacingLeft=28;spacingRight=4;rotatable=0;points=[[0,0.5],[1,0.5]];portConstraint=eastwest;imageWidth=16;imageHeight=16;image=data:image/png,iVBORw0KGgoAAAANSUhEUgAAACAAAAAgCAYAAABzenr0AAAAV0lEQVR4XmNgGAVkglkrNpxBxujyNAejDqC6A3AZmLTV+T8yJqTeYduD/8gYJk4Q4DJw1AHDxgG41MMBLgWjDhh1wKgDRh0w6oBRB4w6gG4OGAWjYMQCAD3bML1XEuu8AAAAAElFTkSuQmCC">
      <mxGeometry x="794" y="1121" width="325" height="25" as="geometry" />
    </mxCell>
    <mxCell id="node78" parent="1" vertex="1" value="org.yaml:snakeyaml:1.23" style="label;fontStyle=0;strokeColor=default;fillColor=none;align=left;verticalAlign=middle;overflow=hidden;spacingLeft=28;spacingRight=4;rotatable=0;points=[[0,0.5],[1,0.5]];portConstraint=eastwest;imageWidth=16;imageHeight=16;image=data:image/png,iVBORw0KGgoAAAANSUhEUgAAACAAAAAgCAYAAABzenr0AAAAV0lEQVR4XmNgGAVkglkrNpxBxujyNAejDqC6A3AZmLTV+T8yJqTeYduD/8gYJk4Q4DJw1AHDxgG41MMBLgWjDhh1wKgDRh0w6oBRB4w6gG4OGAWjYMQCAD3bML1XEuu8AAAAAElFTkSuQmCC">
      <mxGeometry x="1528" y="1624" width="168" height="25" as="geometry" />
    </mxCell>
    <mxCell id="edge9" edge="1" value="" parent="1" source="node41" target="node64" style="html=1;rounded=1;edgeStyle=orthogonalEdgeStyle;dashed=0;startArrow=none;endArrow=blockThin;endSize=12;strokeColor=#000082;exitX=1.000;exitY=0.500;exitDx=0;exitDy=0;entryX=0.000;entryY=0.500;entryDx=0;entryDy=0;">
      <mxGeometry width="50" height="50" relative="1" as="geometry">
        <Array as="points" />
      </mxGeometry>
    </mxCell>
    <mxCell id="edge43" edge="1" value="" parent="1" source="node41" target="node75" style="html=1;rounded=1;edgeStyle=orthogonalEdgeStyle;dashed=0;startArrow=none;endArrow=blockThin;endSize=12;strokeColor=#000082;exitX=1.000;exitY=0.500;exitDx=0;exitDy=0;entryX=0.000;entryY=0.500;entryDx=0;entryDy=0;">
      <mxGeometry width="50" height="50" relative="1" as="geometry">
        <Array as="points">
          <mxPoint x="2797" y="1975" />
          <mxPoint x="2797" y="1277" />
          <mxPoint x="2897" y="1277" />
          <mxPoint x="2897" y="1250" />
        </Array>
      </mxGeometry>
    </mxCell>
    <mxCell id="edge36" edge="1" value="" parent="1" source="node47" target="node43" style="html=1;rounded=1;edgeStyle=orthogonalEdgeStyle;dashed=0;startArrow=none;endArrow=blockThin;endSize=12;strokeColor=#000082;exitX=1.000;exitY=0.500;exitDx=0;exitDy=0;entryX=0.000;entryY=0.500;entryDx=0;entryDy=0;">
      <mxGeometry width="50" height="50" relative="1" as="geometry">
        <Array as="points">
          <mxPoint x="1216" y="1176" />
          <mxPoint x="1216" y="974" />
          <mxPoint x="1276" y="974" />
          <mxPoint x="1276" y="1035" />
        </Array>
      </mxGeometry>
    </mxCell>
    <mxCell id="edge21" edge="1" value="" parent="1" source="node47" target="node1" style="html=1;rounded=1;edgeStyle=orthogonalEdgeStyle;dashed=0;startArrow=none;endArrow=blockThin;endSize=12;strokeColor=#000082;exitX=1.000;exitY=0.500;exitDx=0;exitDy=0;entryX=0.000;entryY=0.500;entryDx=0;entryDy=0;">
      <mxGeometry width="50" height="50" relative="1" as="geometry">
        <Array as="points">
          <mxPoint x="1216" y="1176" />
          <mxPoint x="1216" y="974" />
          <mxPoint x="1266" y="974" />
          <mxPoint x="1266" y="1078" />
        </Array>
      </mxGeometry>
    </mxCell>
    <mxCell id="edge185" edge="1" value="" parent="1" source="node47" target="node18" style="html=1;rounded=1;edgeStyle=orthogonalEdgeStyle;dashed=0;startArrow=none;endArrow=blockThin;endSize=12;strokeColor=#000082;exitX=1.000;exitY=0.500;exitDx=0;exitDy=0;entryX=0.000;entryY=0.500;entryDx=0;entryDy=0;">
      <mxGeometry width="50" height="50" relative="1" as="geometry">
        <Array as="points">
          <mxPoint x="1216" y="1176" />
          <mxPoint x="1216" y="974" />
          <mxPoint x="1256" y="974" />
          <mxPoint x="1256" y="918" />
        </Array>
      </mxGeometry>
    </mxCell>
    <mxCell id="edge164" edge="1" value="" parent="1" source="node86" target="node43" style="html=1;rounded=1;edgeStyle=orthogonalEdgeStyle;dashed=0;startArrow=none;endArrow=blockThin;endSize=12;strokeColor=#000082;exitX=1.000;exitY=0.500;exitDx=0;exitDy=0;entryX=0.000;entryY=0.500;entryDx=0;entryDy=0;">
      <mxGeometry width="50" height="50" relative="1" as="geometry">
        <Array as="points">
          <mxPoint x="1226" y="1090" />
          <mxPoint x="1226" y="835" />
          <mxPoint x="1296" y="835" />
          <mxPoint x="1296" y="1035" />
        </Array>
      </mxGeometry>
    </mxCell>
    <mxCell id="edge108" edge="1" value="" parent="1" source="node86" target="node1" style="html=1;rounded=1;edgeStyle=orthogonalEdgeStyle;dashed=0;startArrow=none;endArrow=blockThin;endSize=12;strokeColor=#000082;exitX=1.000;exitY=0.500;exitDx=0;exitDy=0;entryX=0.000;entryY=0.500;entryDx=0;entryDy=0;">
      <mxGeometry width="50" height="50" relative="1" as="geometry">
        <Array as="points">
          <mxPoint x="1226" y="1090" />
          <mxPoint x="1226" y="835" />
          <mxPoint x="1286" y="835" />
          <mxPoint x="1286" y="1078" />
        </Array>
      </mxGeometry>
    </mxCell>
    <mxCell id="edge75" edge="1" value="" parent="1" source="node86" target="node18" style="html=1;rounded=1;edgeStyle=orthogonalEdgeStyle;dashed=0;startArrow=none;endArrow=blockThin;endSize=12;strokeColor=#000082;exitX=1.000;exitY=0.500;exitDx=0;exitDy=0;entryX=0.000;entryY=0.500;entryDx=0;entryDy=0;">
      <mxGeometry width="50" height="50" relative="1" as="geometry">
        <Array as="points">
          <mxPoint x="1226" y="1090" />
          <mxPoint x="1226" y="835" />
          <mxPoint x="1306" y="835" />
          <mxPoint x="1306" y="918" />
        </Array>
      </mxGeometry>
    </mxCell>
    <mxCell id="edge56" edge="1" value="" parent="1" source="node86" target="node22" style="html=1;rounded=1;edgeStyle=orthogonalEdgeStyle;dashed=0;startArrow=none;endArrow=blockThin;endSize=12;strokeColor=#000082;exitX=1.000;exitY=0.500;exitDx=0;exitDy=0;entryX=0.000;entryY=0.500;entryDx=0;entryDy=0;">
      <mxGeometry width="50" height="50" relative="1" as="geometry">
        <Array as="points">
          <mxPoint x="1226" y="1090" />
          <mxPoint x="1226" y="835" />
          <mxPoint x="1236" y="835" />
          <mxPoint x="1236" y="620" />
        </Array>
      </mxGeometry>
    </mxCell>
    <mxCell id="edge175" edge="1" value="" parent="1" source="node82" target="node47" style="html=1;rounded=1;edgeStyle=orthogonalEdgeStyle;dashed=0;startArrow=none;endArrow=blockThin;endSize=12;strokeColor=#000082;exitX=1.000;exitY=0.500;exitDx=0;exitDy=0;entryX=0.000;entryY=0.500;entryDx=0;entryDy=0;">
      <mxGeometry width="50" height="50" relative="1" as="geometry">
        <Array as="points" />
      </mxGeometry>
    </mxCell>
    <mxCell id="edge13" edge="1" value="" parent="1" source="node34" target="node86" style="html=1;rounded=1;edgeStyle=orthogonalEdgeStyle;dashed=0;startArrow=none;endArrow=blockThin;endSize=12;strokeColor=#000082;exitX=1.000;exitY=0.500;exitDx=0;exitDy=0;entryX=0.000;entryY=0.500;entryDx=0;entryDy=0;">
      <mxGeometry width="50" height="50" relative="1" as="geometry">
        <Array as="points" />
      </mxGeometry>
    </mxCell>
    <mxCell id="edge51" edge="1" value="" parent="1" source="node63" target="node85" style="html=1;rounded=1;edgeStyle=orthogonalEdgeStyle;dashed=0;startArrow=none;endArrow=blockThin;endSize=12;strokeColor=#000082;exitX=1.000;exitY=0.500;exitDx=0;exitDy=0;entryX=0.000;entryY=0.500;entryDx=0;entryDy=0;">
      <mxGeometry width="50" height="50" relative="1" as="geometry">
        <Array as="points">
          <mxPoint x="2827" y="1543" />
          <mxPoint x="2827" y="1565" />
        </Array>
      </mxGeometry>
    </mxCell>
    <mxCell id="edge154" edge="1" value="" parent="1" source="node63" target="node25" style="html=1;rounded=1;edgeStyle=orthogonalEdgeStyle;dashed=0;startArrow=none;endArrow=blockThin;endSize=12;strokeColor=#000082;exitX=1.000;exitY=0.500;exitDx=0;exitDy=0;entryX=0.000;entryY=0.500;entryDx=0;entryDy=0;">
      <mxGeometry width="50" height="50" relative="1" as="geometry">
        <Array as="points">
          <mxPoint x="2817" y="1543" />
          <mxPoint x="2817" y="1522" />
        </Array>
      </mxGeometry>
    </mxCell>
    <mxCell id="edge134" edge="1" value="" parent="1" source="node43" target="node63" style="html=1;rounded=1;edgeStyle=orthogonalEdgeStyle;dashed=0;startArrow=none;endArrow=blockThin;endSize=12;strokeColor=#000082;exitX=1.000;exitY=0.750;exitDx=0;exitDy=0;entryX=0.000;entryY=0.500;entryDx=0;entryDy=0;">
      <mxGeometry width="50" height="50" relative="1" as="geometry">
        <Array as="points">
          <mxPoint x="1897" y="1041" />
          <mxPoint x="1897" y="1119" />
          <mxPoint x="1997" y="1119" />
          <mxPoint x="1997" y="1543" />
        </Array>
      </mxGeometry>
    </mxCell>
    <mxCell id="edge27" edge="1" value="" parent="1" source="node43" target="node32" style="html=1;rounded=1;edgeStyle=orthogonalEdgeStyle;dashed=0;startArrow=none;endArrow=blockThin;endSize=12;strokeColor=#000082;exitX=1.000;exitY=0.750;exitDx=0;exitDy=0;entryX=0.000;entryY=0.500;entryDx=0;entryDy=0;">
      <mxGeometry width="50" height="50" relative="1" as="geometry">
        <Array as="points">
          <mxPoint x="1897" y="1041" />
          <mxPoint x="1897" y="1119" />
          <mxPoint x="1997" y="1119" />
          <mxPoint x="1997" y="1339" />
        </Array>
      </mxGeometry>
    </mxCell>
    <mxCell id="edge174" edge="1" value="" parent="1" source="node43" target="node42" style="html=1;rounded=1;edgeStyle=orthogonalEdgeStyle;dashed=0;startArrow=none;endArrow=blockThin;endSize=12;strokeColor=#000082;exitX=1.000;exitY=0.750;exitDx=0;exitDy=0;entryX=0.000;entryY=0.250;entryDx=0;entryDy=0;">
      <mxGeometry width="50" height="50" relative="1" as="geometry">
        <Array as="points">
          <mxPoint x="1897" y="1041" />
          <mxPoint x="1897" y="1119" />
          <mxPoint x="1977" y="1119" />
          <mxPoint x="1977" y="539" />
        </Array>
      </mxGeometry>
    </mxCell>
    <mxCell id="edge81" edge="1" value="" parent="1" source="node43" target="node5" style="html=1;rounded=1;edgeStyle=orthogonalEdgeStyle;dashed=0;startArrow=none;endArrow=blockThin;endSize=12;strokeColor=#000082;exitX=1.000;exitY=0.250;exitDx=0;exitDy=0;entryX=1.000;entryY=0.875;entryDx=0;entryDy=0;">
      <mxGeometry width="50" height="50" relative="1" as="geometry">
        <Array as="points">
          <mxPoint x="1877" y="1030" />
          <mxPoint x="1877" y="530" />
        </Array>
      </mxGeometry>
    </mxCell>
    <mxCell id="edge22" edge="1" value="" parent="1" source="node43" target="node11" style="html=1;rounded=1;edgeStyle=orthogonalEdgeStyle;dashed=0;startArrow=none;endArrow=blockThin;endSize=12;strokeColor=#000082;exitX=1.000;exitY=0.750;exitDx=0;exitDy=0;entryX=0.000;entryY=0.500;entryDx=0;entryDy=0;">
      <mxGeometry width="50" height="50" relative="1" as="geometry">
        <Array as="points">
          <mxPoint x="1897" y="1041" />
          <mxPoint x="1897" y="1119" />
          <mxPoint x="1997" y="1119" />
          <mxPoint x="1997" y="1158" />
        </Array>
      </mxGeometry>
    </mxCell>
    <mxCell id="edge94" edge="1" value="" parent="1" source="node43" target="node57" style="html=1;rounded=1;edgeStyle=orthogonalEdgeStyle;dashed=0;startArrow=none;endArrow=blockThin;endSize=12;strokeColor=#000082;exitX=1.000;exitY=0.750;exitDx=0;exitDy=0;entryX=0.000;entryY=0.500;entryDx=0;entryDy=0;">
      <mxGeometry width="50" height="50" relative="1" as="geometry">
        <Array as="points">
          <mxPoint x="1897" y="1041" />
          <mxPoint x="1897" y="1119" />
          <mxPoint x="1997" y="1119" />
          <mxPoint x="1997" y="1694" />
        </Array>
      </mxGeometry>
    </mxCell>
    <mxCell id="edge20" edge="1" value="" parent="1" source="node43" target="node56" style="html=1;rounded=1;edgeStyle=orthogonalEdgeStyle;dashed=0;startArrow=none;endArrow=blockThin;endSize=12;strokeColor=#000082;exitX=1.000;exitY=0.750;exitDx=0;exitDy=0;entryX=0.000;entryY=0.500;entryDx=0;entryDy=0;">
      <mxGeometry width="50" height="50" relative="1" as="geometry">
        <Array as="points">
          <mxPoint x="1897" y="1041" />
          <mxPoint x="1897" y="1119" />
          <mxPoint x="1997" y="1119" />
          <mxPoint x="1997" y="948" />
        </Array>
      </mxGeometry>
    </mxCell>
    <mxCell id="edge34" edge="1" value="" parent="1" source="node32" target="node80" style="html=1;rounded=1;edgeStyle=orthogonalEdgeStyle;dashed=0;startArrow=none;endArrow=blockThin;endSize=12;strokeColor=#000082;exitX=1.000;exitY=0.500;exitDx=0;exitDy=0;entryX=0.000;entryY=0.500;entryDx=0;entryDy=0;">
      <mxGeometry width="50" height="50" relative="1" as="geometry">
        <Array as="points">
          <mxPoint x="2617" y="1339" />
          <mxPoint x="2617" y="1303" />
          <mxPoint x="2807" y="1303" />
          <mxPoint x="2807" y="1293" />
        </Array>
      </mxGeometry>
    </mxCell>
    <mxCell id="edge85" edge="1" value="" parent="1" source="node32" target="node25" style="html=1;rounded=1;edgeStyle=orthogonalEdgeStyle;dashed=0;startArrow=none;endArrow=blockThin;endSize=12;strokeColor=#000082;exitX=1.000;exitY=0.500;exitDx=0;exitDy=0;entryX=0.000;entryY=0.500;entryDx=0;entryDy=0;">
      <mxGeometry width="50" height="50" relative="1" as="geometry">
        <Array as="points">
          <mxPoint x="2617" y="1339" />
          <mxPoint x="2617" y="1303" />
          <mxPoint x="2827" y="1303" />
          <mxPoint x="2827" y="1522" />
        </Array>
      </mxGeometry>
    </mxCell>
    <mxCell id="edge41" edge="1" value="" parent="1" source="node32" target="node75" style="html=1;rounded=1;edgeStyle=orthogonalEdgeStyle;dashed=0;startArrow=none;endArrow=blockThin;endSize=12;strokeColor=#000082;exitX=1.000;exitY=0.500;exitDx=0;exitDy=0;entryX=0.000;entryY=0.500;entryDx=0;entryDy=0;">
      <mxGeometry width="50" height="50" relative="1" as="geometry">
        <Array as="points">
          <mxPoint x="2617" y="1339" />
          <mxPoint x="2617" y="1303" />
          <mxPoint x="2767" y="1303" />
          <mxPoint x="2767" y="1277" />
          <mxPoint x="2897" y="1277" />
          <mxPoint x="2897" y="1250" />
        </Array>
      </mxGeometry>
    </mxCell>
    <mxCell id="edge74" edge="1" value="" parent="1" source="node5" target="node3" style="html=1;rounded=1;edgeStyle=orthogonalEdgeStyle;dashed=0;startArrow=none;endArrow=blockThin;endSize=12;strokeColor=#000082;exitX=1.000;exitY=0.625;exitDx=0;exitDy=0;entryX=0.000;entryY=0.250;entryDx=0;entryDy=0;">
      <mxGeometry width="50" height="50" relative="1" as="geometry">
        <Array as="points">
          <mxPoint x="1907" y="525" />
          <mxPoint x="1907" y="626" />
          <mxPoint x="1957" y="626" />
          <mxPoint x="1957" y="496" />
        </Array>
      </mxGeometry>
    </mxCell>
    <mxCell id="edge133" edge="1" value="" parent="1" source="node5" target="node42" style="html=1;rounded=1;edgeStyle=orthogonalEdgeStyle;dashed=0;startArrow=none;endArrow=blockThin;endSize=12;strokeColor=#000082;exitX=1.000;exitY=0.625;exitDx=0;exitDy=0;entryX=0.000;entryY=0.250;entryDx=0;entryDy=0;">
      <mxGeometry width="50" height="50" relative="1" as="geometry">
        <Array as="points">
          <mxPoint x="1907" y="525" />
          <mxPoint x="1907" y="626" />
          <mxPoint x="1967" y="626" />
          <mxPoint x="1967" y="539" />
        </Array>
      </mxGeometry>
    </mxCell>
    <mxCell id="edge101" edge="1" value="" parent="1" source="node0" target="node42" style="html=1;rounded=1;edgeStyle=orthogonalEdgeStyle;dashed=0;startArrow=none;endArrow=blockThin;endSize=12;strokeColor=#000082;exitX=1.000;exitY=0.250;exitDx=0;exitDy=0;entryX=0.000;entryY=0.250;entryDx=0;entryDy=0;">
      <mxGeometry width="50" height="50" relative="1" as="geometry">
        <Array as="points">
          <mxPoint x="1997" y="143" />
          <mxPoint x="1997" y="539" />
        </Array>
      </mxGeometry>
    </mxCell>
    <mxCell id="edge49" edge="1" value="" parent="1" source="node0" target="node5" style="html=1;rounded=1;edgeStyle=orthogonalEdgeStyle;dashed=0;startArrow=none;endArrow=blockThin;endSize=12;strokeColor=#000082;exitX=1.000;exitY=0.750;exitDx=0;exitDy=0;entryX=1.000;entryY=0.375;entryDx=0;entryDy=0;">
      <mxGeometry width="50" height="50" relative="1" as="geometry">
        <Array as="points">
          <mxPoint x="1867" y="154" />
          <mxPoint x="1867" y="519" />
        </Array>
      </mxGeometry>
    </mxCell>
    <mxCell id="edge84" edge="1" value="" parent="1" source="node77" target="node3" style="html=1;rounded=1;edgeStyle=orthogonalEdgeStyle;dashed=0;startArrow=none;endArrow=blockThin;endSize=12;strokeColor=#000082;exitX=1.000;exitY=0.250;exitDx=0;exitDy=0;entryX=0.000;entryY=0.250;entryDx=0;entryDy=0;">
      <mxGeometry width="50" height="50" relative="1" as="geometry">
        <Array as="points">
          <mxPoint x="1927" y="229" />
          <mxPoint x="1927" y="516" />
          <mxPoint x="1947" y="516" />
          <mxPoint x="1947" y="496" />
        </Array>
      </mxGeometry>
    </mxCell>
    <mxCell id="edge30" edge="1" value="" parent="1" source="node77" target="node42" style="html=1;rounded=1;edgeStyle=orthogonalEdgeStyle;dashed=0;startArrow=none;endArrow=blockThin;endSize=12;strokeColor=#000082;exitX=1.000;exitY=0.250;exitDx=0;exitDy=0;entryX=0.000;entryY=0.250;entryDx=0;entryDy=0;">
      <mxGeometry width="50" height="50" relative="1" as="geometry">
        <Array as="points">
          <mxPoint x="1927" y="229" />
          <mxPoint x="1927" y="516" />
          <mxPoint x="1987" y="516" />
          <mxPoint x="1987" y="539" />
        </Array>
      </mxGeometry>
    </mxCell>
    <mxCell id="edge118" edge="1" value="" parent="1" source="node77" target="node5" style="html=1;rounded=1;edgeStyle=orthogonalEdgeStyle;dashed=0;startArrow=none;endArrow=blockThin;endSize=12;strokeColor=#000082;exitX=1.000;exitY=0.750;exitDx=0;exitDy=0;entryX=1.000;entryY=0.125;entryDx=0;entryDy=0;">
      <mxGeometry width="50" height="50" relative="1" as="geometry">
        <Array as="points">
          <mxPoint x="1857" y="240" />
          <mxPoint x="1857" y="513" />
        </Array>
      </mxGeometry>
    </mxCell>
    <mxCell id="edge71" edge="1" value="" parent="1" source="node14" target="node42" style="html=1;rounded=1;edgeStyle=orthogonalEdgeStyle;dashed=0;startArrow=none;endArrow=blockThin;endSize=12;strokeColor=#000082;exitX=1.000;exitY=0.500;exitDx=0;exitDy=0;entryX=0.000;entryY=0.250;entryDx=0;entryDy=0;">
      <mxGeometry width="50" height="50" relative="1" as="geometry">
        <Array as="points">
          <mxPoint x="1997" y="363" />
          <mxPoint x="1997" y="539" />
        </Array>
      </mxGeometry>
    </mxCell>
    <mxCell id="edge148" edge="1" value="" parent="1" source="node14" target="node5" style="html=1;rounded=1;edgeStyle=orthogonalEdgeStyle;dashed=0;startArrow=none;endArrow=blockThin;endSize=12;strokeColor=#000082;exitX=0.500;exitY=1.001;exitDx=0;exitDy=0;entryX=0.500;entryY=0.001;entryDx=0;entryDy=0;">
      <mxGeometry width="50" height="50" relative="1" as="geometry">
        <Array as="points" />
      </mxGeometry>
    </mxCell>
    <mxCell id="edge117" edge="1" value="" parent="1" source="node67" target="node11" style="html=1;rounded=1;edgeStyle=orthogonalEdgeStyle;dashed=1;startArrow=blockThin;startSize=12;endArrow=blockThin;endSize=12;strokeColor=#ff0000;exitX=0.000;exitY=0.750;exitDx=0;exitDy=0;entryX=1.000;entryY=0.500;entryDx=0;entryDy=0;">
      <mxGeometry width="50" height="50" relative="1" as="geometry">
        <Array as="points">
          <mxPoint x="2747" y="1042" />
          <mxPoint x="2747" y="1158" />
        </Array>
      </mxGeometry>
    </mxCell>
    <mxCell id="label704" parent="edge117" vertex="1" connectable="0" value="16.0:19.0" style="edgeLabel;resizable=0;html=1;align=left;verticalAlign=top;strokeColor=default;">
      <mxGeometry x="3056" y="1033" as="geometry" />
    </mxCell>
    <mxCell id="edge180" edge="1" value="" parent="1" source="node16" target="node11" style="html=1;rounded=1;edgeStyle=orthogonalEdgeStyle;dashed=1;startArrow=blockThin;startSize=12;endArrow=blockThin;endSize=12;strokeColor=#ff0000;exitX=0.000;exitY=0.750;exitDx=0;exitDy=0;entryX=1.000;entryY=0.167;entryDx=0;entryDy=0;">
      <mxGeometry width="50" height="50" relative="1" as="geometry">
        <Array as="points">
          <mxPoint x="2737" y="999" />
          <mxPoint x="2737" y="1150" />
        </Array>
      </mxGeometry>
    </mxCell>
    <mxCell id="label1082" parent="edge180" vertex="1" connectable="0" value="16.0.1:19.0" style="edgeLabel;resizable=0;html=1;align=left;verticalAlign=top;strokeColor=default;">
      <mxGeometry x="3041" y="990" as="geometry" />
    </mxCell>
    <mxCell id="edge44" edge="1" value="" parent="1" source="node88" target="node3" style="html=1;rounded=1;edgeStyle=orthogonalEdgeStyle;dashed=0;startArrow=none;endArrow=blockThin;endSize=12;strokeColor=#000082;exitX=0.000;exitY=0.375;exitDx=0;exitDy=0;entryX=0.000;entryY=0.750;entryDx=0;entryDy=0;">
      <mxGeometry width="50" height="50" relative="1" as="geometry">
        <Array as="points">
          <mxPoint x="2047" y="835" />
          <mxPoint x="2047" y="508" />
        </Array>
      </mxGeometry>
    </mxCell>
    <mxCell id="edge76" edge="1" value="" parent="1" source="node88" target="node42" style="html=1;rounded=1;edgeStyle=orthogonalEdgeStyle;dashed=0;startArrow=none;endArrow=blockThin;endSize=12;strokeColor=#000082;exitX=0.000;exitY=0.125;exitDx=0;exitDy=0;entryX=0.000;entryY=0.750;entryDx=0;entryDy=0;">
      <mxGeometry width="50" height="50" relative="1" as="geometry">
        <Array as="points">
          <mxPoint x="2057" y="829" />
          <mxPoint x="2057" y="551" />
        </Array>
      </mxGeometry>
    </mxCell>
    <mxCell id="edge15" edge="1" value="" parent="1" source="node88" target="node5" style="html=1;rounded=1;edgeStyle=orthogonalEdgeStyle;dashed=0;startArrow=none;endArrow=blockThin;endSize=12;strokeColor=#000082;exitX=0.000;exitY=0.625;exitDx=0;exitDy=0;entryX=1.000;entryY=0.625;entryDx=0;entryDy=0;">
      <mxGeometry width="50" height="50" relative="1" as="geometry">
        <Array as="points">
          <mxPoint x="1987" y="841" />
          <mxPoint x="1987" y="626" />
          <mxPoint x="1907" y="626" />
          <mxPoint x="1907" y="525" />
        </Array>
      </mxGeometry>
    </mxCell>
    <mxCell id="edge39" edge="1" value="" parent="1" source="node88" target="node27" style="html=1;rounded=1;edgeStyle=orthogonalEdgeStyle;dashed=0;startArrow=none;endArrow=blockThin;endSize=12;strokeColor=#000082;exitX=1.000;exitY=0.300;exitDx=0;exitDy=0;entryX=0.000;entryY=0.500;entryDx=0;entryDy=0;">
      <mxGeometry width="50" height="50" relative="1" as="geometry">
        <Array as="points">
          <mxPoint x="2657" y="833" />
          <mxPoint x="2657" y="350" />
        </Array>
      </mxGeometry>
    </mxCell>
    <mxCell id="edge14" edge="1" value="" parent="1" source="node88" target="node67" style="html=1;rounded=1;edgeStyle=orthogonalEdgeStyle;dashed=0;startArrow=none;endArrow=blockThin;endSize=12;strokeColor=#595959;exitX=1.000;exitY=0.500;exitDx=0;exitDy=0;entryX=0.000;entryY=0.250;entryDx=0;entryDy=0;">
      <mxGeometry width="50" height="50" relative="1" as="geometry">
        <Array as="points">
          <mxPoint x="2877" y="838" />
          <mxPoint x="2877" y="1101" />
          <mxPoint x="2957" y="1101" />
          <mxPoint x="2957" y="1031" />
        </Array>
      </mxGeometry>
    </mxCell>
    <mxCell id="edge4" edge="1" value="" parent="1" source="node88" target="node79" style="html=1;rounded=1;edgeStyle=orthogonalEdgeStyle;dashed=0;startArrow=none;endArrow=blockThin;endSize=12;strokeColor=#000082;exitX=1.000;exitY=0.300;exitDx=0;exitDy=0;entryX=0.000;entryY=0.500;entryDx=0;entryDy=0;">
      <mxGeometry width="50" height="50" relative="1" as="geometry">
        <Array as="points">
          <mxPoint x="2687" y="833" />
          <mxPoint x="2687" y="436" />
        </Array>
      </mxGeometry>
    </mxCell>
    <mxCell id="edge61" edge="1" value="" parent="1" source="node88" target="node75" style="html=1;rounded=1;edgeStyle=orthogonalEdgeStyle;dashed=0;startArrow=none;endArrow=blockThin;endSize=12;strokeColor=#000082;exitX=1.000;exitY=0.300;exitDx=0;exitDy=0;entryX=0.000;entryY=0.500;entryDx=0;entryDy=0;">
      <mxGeometry width="50" height="50" relative="1" as="geometry">
        <Array as="points">
          <mxPoint x="2887" y="833" />
          <mxPoint x="2887" y="1277" />
          <mxPoint x="2897" y="1277" />
          <mxPoint x="2897" y="1250" />
        </Array>
      </mxGeometry>
    </mxCell>
    <mxCell id="edge82" edge="1" value="" parent="1" source="node87" target="node88" style="html=1;rounded=1;edgeStyle=orthogonalEdgeStyle;dashed=0;startArrow=none;endArrow=blockThin;endSize=12;strokeColor=#000082;exitX=0.000;exitY=0.500;exitDx=0;exitDy=0;entryX=1.000;entryY=0.300;entryDx=0;entryDy=0;">
      <mxGeometry width="50" height="50" relative="1" as="geometry">
        <Array as="points">
          <mxPoint x="2967" y="1080" />
          <mxPoint x="2967" y="1030" />
          <mxPoint x="2897" y="1030" />
          <mxPoint x="2897" y="833" />
        </Array>
      </mxGeometry>
    </mxCell>
    <mxCell id="edge29" edge="1" value="" parent="1" source="node87" target="node73" style="html=1;rounded=1;edgeStyle=orthogonalEdgeStyle;dashed=0;startArrow=none;endArrow=blockThin;endSize=12;strokeColor=#000082;exitX=0.000;exitY=0.500;exitDx=0;exitDy=0;entryX=1.000;entryY=0.500;entryDx=0;entryDy=0;">
      <mxGeometry width="50" height="50" relative="1" as="geometry">
        <Array as="points">
          <mxPoint x="2967" y="1080" />
          <mxPoint x="2967" y="1030" />
          <mxPoint x="2947" y="1030" />
          <mxPoint x="2947" y="605" />
        </Array>
      </mxGeometry>
    </mxCell>
    <mxCell id="edge106" edge="1" value="" parent="1" source="node87" target="node58" style="html=1;rounded=1;edgeStyle=orthogonalEdgeStyle;dashed=0;startArrow=none;endArrow=blockThin;endSize=12;strokeColor=#000082;exitX=1.000;exitY=0.250;exitDx=0;exitDy=0;entryX=0.000;entryY=0.500;entryDx=0;entryDy=0;">
      <mxGeometry width="50" height="50" relative="1" as="geometry">
        <Array as="points" />
      </mxGeometry>
    </mxCell>
    <mxCell id="edge131" edge="1" value="" parent="1" source="node87" target="node75" style="html=1;rounded=1;edgeStyle=orthogonalEdgeStyle;dashed=0;startArrow=none;endArrow=blockThin;endSize=12;strokeColor=#000082;exitX=1.000;exitY=0.750;exitDx=0;exitDy=0;entryX=1.000;entryY=0.100;entryDx=0;entryDy=0;">
      <mxGeometry width="50" height="50" relative="1" as="geometry">
        <Array as="points">
          <mxPoint x="3444" y="1085" />
          <mxPoint x="3444" y="1241" />
        </Array>
      </mxGeometry>
    </mxCell>
    <mxCell id="edge138" edge="1" value="" parent="1" source="node10" target="node90" style="html=1;rounded=1;edgeStyle=orthogonalEdgeStyle;dashed=0;startArrow=none;endArrow=blockThin;endSize=12;strokeColor=#000082;exitX=1.000;exitY=0.750;exitDx=0;exitDy=0;entryX=1.000;entryY=0.500;entryDx=0;entryDy=0;">
      <mxGeometry width="50" height="50" relative="1" as="geometry">
        <Array as="points">
          <mxPoint x="3464" y="1342" />
          <mxPoint x="3464" y="951" />
        </Array>
      </mxGeometry>
    </mxCell>
    <mxCell id="edge47" edge="1" value="" parent="1" source="node10" target="node75" style="html=1;rounded=1;edgeStyle=orthogonalEdgeStyle;dashed=0;startArrow=none;endArrow=blockThin;endSize=12;strokeColor=#000082;exitX=1.000;exitY=0.250;exitDx=0;exitDy=0;entryX=1.000;entryY=0.900;entryDx=0;entryDy=0;">
      <mxGeometry width="50" height="50" relative="1" as="geometry">
        <Array as="points">
          <mxPoint x="3444" y="1331" />
          <mxPoint x="3444" y="1260" />
        </Array>
      </mxGeometry>
    </mxCell>
    <mxCell id="edge140" edge="1" value="" parent="1" source="node44" target="node75" style="html=1;rounded=1;edgeStyle=orthogonalEdgeStyle;dashed=0;startArrow=none;endArrow=blockThin;endSize=12;strokeColor=#000082;exitX=1.000;exitY=0.500;exitDx=0;exitDy=0;entryX=1.000;entryY=0.700;entryDx=0;entryDy=0;">
      <mxGeometry width="50" height="50" relative="1" as="geometry">
        <Array as="points">
          <mxPoint x="3454" y="1608" />
          <mxPoint x="3454" y="1255" />
        </Array>
      </mxGeometry>
    </mxCell>
    <mxCell id="edge64" edge="1" value="" parent="1" source="node72" target="node67" style="html=1;rounded=1;edgeStyle=orthogonalEdgeStyle;dashed=0;startArrow=none;endArrow=blockThin;endSize=12;strokeColor=#595959;exitX=1.000;exitY=0.875;exitDx=0;exitDy=0;entryX=0.000;entryY=0.250;entryDx=0;entryDy=0;">
      <mxGeometry width="50" height="50" relative="1" as="geometry">
        <Array as="points">
          <mxPoint x="2877" y="1000" />
          <mxPoint x="2877" y="1101" />
          <mxPoint x="2957" y="1101" />
          <mxPoint x="2957" y="1031" />
        </Array>
      </mxGeometry>
    </mxCell>
    <mxCell id="edge10" edge="1" value="" parent="1" source="node72" target="node88" style="html=1;rounded=1;edgeStyle=orthogonalEdgeStyle;dashed=0;startArrow=none;endArrow=blockThin;endSize=12;strokeColor=#000082;exitX=1.000;exitY=0.125;exitDx=0;exitDy=0;entryX=1.000;entryY=0.900;entryDx=0;entryDy=0;">
      <mxGeometry width="50" height="50" relative="1" as="geometry">
        <Array as="points">
          <mxPoint x="2577" y="983" />
          <mxPoint x="2577" y="847" />
        </Array>
      </mxGeometry>
    </mxCell>
    <mxCell id="edge98" edge="1" value="" parent="1" source="node72" target="node79" style="html=1;rounded=1;edgeStyle=orthogonalEdgeStyle;dashed=0;startArrow=none;endArrow=blockThin;endSize=12;strokeColor=#000082;exitX=1.000;exitY=0.625;exitDx=0;exitDy=0;entryX=0.000;entryY=0.500;entryDx=0;entryDy=0;">
      <mxGeometry width="50" height="50" relative="1" as="geometry">
        <Array as="points">
          <mxPoint x="2697" y="994" />
          <mxPoint x="2697" y="436" />
        </Array>
      </mxGeometry>
    </mxCell>
    <mxCell id="edge119" edge="1" value="" parent="1" source="node72" target="node7" style="html=1;rounded=1;edgeStyle=orthogonalEdgeStyle;dashed=0;startArrow=none;endArrow=blockThin;endSize=12;strokeColor=#000082;exitX=1.000;exitY=0.625;exitDx=0;exitDy=0;entryX=0.000;entryY=0.500;entryDx=0;entryDy=0;">
      <mxGeometry width="50" height="50" relative="1" as="geometry">
        <Array as="points">
          <mxPoint x="2707" y="994" />
          <mxPoint x="2707" y="499" />
        </Array>
      </mxGeometry>
    </mxCell>
    <mxCell id="edge161" edge="1" value="" parent="1" source="node72" target="node75" style="html=1;rounded=1;edgeStyle=orthogonalEdgeStyle;dashed=0;startArrow=none;endArrow=blockThin;endSize=12;strokeColor=#000082;exitX=1.000;exitY=0.625;exitDx=0;exitDy=0;entryX=0.000;entryY=0.500;entryDx=0;entryDy=0;">
      <mxGeometry width="50" height="50" relative="1" as="geometry">
        <Array as="points">
          <mxPoint x="2867" y="994" />
          <mxPoint x="2867" y="1277" />
          <mxPoint x="2897" y="1277" />
          <mxPoint x="2897" y="1250" />
        </Array>
      </mxGeometry>
    </mxCell>
    <mxCell id="edge73" edge="1" value="" parent="1" source="node39" target="node16" style="html=1;rounded=1;edgeStyle=orthogonalEdgeStyle;dashed=0;startArrow=none;endArrow=blockThin;endSize=12;strokeColor=#595959;exitX=1.000;exitY=0.250;exitDx=0;exitDy=0;entryX=0.000;entryY=0.250;entryDx=0;entryDy=0;">
      <mxGeometry width="50" height="50" relative="1" as="geometry">
        <Array as="points">
          <mxPoint x="2647" y="1195" />
          <mxPoint x="2647" y="1069" />
          <mxPoint x="2977" y="1069" />
          <mxPoint x="2977" y="988" />
        </Array>
      </mxGeometry>
    </mxCell>
    <mxCell id="edge170" edge="1" value="" parent="1" source="node39" target="node88" style="html=1;rounded=1;edgeStyle=orthogonalEdgeStyle;dashed=0;startArrow=none;endArrow=blockThin;endSize=12;strokeColor=#000082;exitX=0.000;exitY=0.625;exitDx=0;exitDy=0;entryX=0.000;entryY=0.875;entryDx=0;entryDy=0;">
      <mxGeometry width="50" height="50" relative="1" as="geometry">
        <Array as="points">
          <mxPoint x="2017" y="1203" />
          <mxPoint x="2017" y="846" />
        </Array>
      </mxGeometry>
    </mxCell>
    <mxCell id="edge40" edge="1" value="" parent="1" source="node39" target="node10" style="html=1;rounded=1;edgeStyle=orthogonalEdgeStyle;dashed=0;startArrow=none;endArrow=blockThin;endSize=12;strokeColor=#000082;exitX=1.000;exitY=0.750;exitDx=0;exitDy=0;entryX=0.000;entryY=0.500;entryDx=0;entryDy=0;">
      <mxGeometry width="50" height="50" relative="1" as="geometry">
        <Array as="points">
          <mxPoint x="2627" y="1206" />
          <mxPoint x="2627" y="1645" />
          <mxPoint x="2807" y="1645" />
          <mxPoint x="2807" y="1336" />
        </Array>
      </mxGeometry>
    </mxCell>
    <mxCell id="edge97" edge="1" value="" parent="1" source="node39" target="node72" style="html=1;rounded=1;edgeStyle=orthogonalEdgeStyle;dashed=0;startArrow=none;endArrow=blockThin;endSize=12;strokeColor=#000082;exitX=0.000;exitY=0.375;exitDx=0;exitDy=0;entryX=0.000;entryY=0.750;entryDx=0;entryDy=0;">
      <mxGeometry width="50" height="50" relative="1" as="geometry">
        <Array as="points">
          <mxPoint x="2027" y="1198" />
          <mxPoint x="2027" y="997" />
        </Array>
      </mxGeometry>
    </mxCell>
    <mxCell id="edge69" edge="1" value="" parent="1" source="node39" target="node4" style="html=1;rounded=1;edgeStyle=orthogonalEdgeStyle;dashed=0;startArrow=none;endArrow=blockThin;endSize=12;strokeColor=#000082;exitX=0.000;exitY=0.125;exitDx=0;exitDy=0;entryX=0.000;entryY=0.833;entryDx=0;entryDy=0;">
      <mxGeometry width="50" height="50" relative="1" as="geometry">
        <Array as="points">
          <mxPoint x="2037" y="1192" />
          <mxPoint x="2037" y="1062" />
        </Array>
      </mxGeometry>
    </mxCell>
    <mxCell id="edge11" edge="1" value="" parent="1" source="node39" target="node50" style="html=1;rounded=1;edgeStyle=orthogonalEdgeStyle;dashed=0;startArrow=none;endArrow=blockThin;endSize=12;strokeColor=#000082;exitX=1.000;exitY=0.750;exitDx=0;exitDy=0;entryX=0.000;entryY=0.500;entryDx=0;entryDy=0;">
      <mxGeometry width="50" height="50" relative="1" as="geometry">
        <Array as="points">
          <mxPoint x="2627" y="1206" />
          <mxPoint x="2627" y="1645" />
          <mxPoint x="2747" y="1645" />
          <mxPoint x="2747" y="1187" />
        </Array>
      </mxGeometry>
    </mxCell>
    <mxCell id="edge123" edge="1" value="" parent="1" source="node39" target="node19" style="html=1;rounded=1;edgeStyle=orthogonalEdgeStyle;dashed=0;startArrow=none;endArrow=blockThin;endSize=12;strokeColor=#000082;exitX=1.000;exitY=0.750;exitDx=0;exitDy=0;entryX=0.000;entryY=0.500;entryDx=0;entryDy=0;">
      <mxGeometry width="50" height="50" relative="1" as="geometry">
        <Array as="points">
          <mxPoint x="2627" y="1206" />
          <mxPoint x="2627" y="1645" />
          <mxPoint x="2817" y="1645" />
          <mxPoint x="2817" y="1757" />
        </Array>
      </mxGeometry>
    </mxCell>
    <mxCell id="edge159" edge="1" value="" parent="1" source="node39" target="node74" style="html=1;rounded=1;edgeStyle=orthogonalEdgeStyle;dashed=0;startArrow=none;endArrow=blockThin;endSize=12;strokeColor=#000082;exitX=1.000;exitY=0.750;exitDx=0;exitDy=0;entryX=0.000;entryY=0.500;entryDx=0;entryDy=0;">
      <mxGeometry width="50" height="50" relative="1" as="geometry">
        <Array as="points">
          <mxPoint x="2627" y="1206" />
          <mxPoint x="2627" y="1645" />
          <mxPoint x="2817" y="1645" />
          <mxPoint x="2817" y="1843" />
        </Array>
      </mxGeometry>
    </mxCell>
    <mxCell id="edge28" edge="1" value="" parent="1" source="node39" target="node23" style="html=1;rounded=1;edgeStyle=orthogonalEdgeStyle;dashed=0;startArrow=none;endArrow=blockThin;endSize=12;strokeColor=#000082;exitX=1.000;exitY=0.750;exitDx=0;exitDy=0;entryX=0.000;entryY=0.500;entryDx=0;entryDy=0;">
      <mxGeometry width="50" height="50" relative="1" as="geometry">
        <Array as="points">
          <mxPoint x="2627" y="1206" />
          <mxPoint x="2627" y="1645" />
          <mxPoint x="2817" y="1645" />
          <mxPoint x="2817" y="1651" />
        </Array>
      </mxGeometry>
    </mxCell>
    <mxCell id="edge89" edge="1" value="" parent="1" source="node39" target="node30" style="html=1;rounded=1;edgeStyle=orthogonalEdgeStyle;dashed=0;startArrow=none;endArrow=blockThin;endSize=12;strokeColor=#000082;exitX=1.000;exitY=0.750;exitDx=0;exitDy=0;entryX=0.000;entryY=0.500;entryDx=0;entryDy=0;">
      <mxGeometry width="50" height="50" relative="1" as="geometry">
        <Array as="points">
          <mxPoint x="2627" y="1206" />
          <mxPoint x="2627" y="1645" />
          <mxPoint x="2827" y="1645" />
          <mxPoint x="2827" y="1694" />
        </Array>
      </mxGeometry>
    </mxCell>
    <mxCell id="edge26" edge="1" value="" parent="1" source="node39" target="node75" style="html=1;rounded=1;edgeStyle=orthogonalEdgeStyle;dashed=0;startArrow=none;endArrow=blockThin;endSize=12;strokeColor=#000082;exitX=1.000;exitY=0.750;exitDx=0;exitDy=0;entryX=0.000;entryY=0.500;entryDx=0;entryDy=0;">
      <mxGeometry width="50" height="50" relative="1" as="geometry">
        <Array as="points">
          <mxPoint x="2627" y="1206" />
          <mxPoint x="2627" y="1645" />
          <mxPoint x="2777" y="1645" />
          <mxPoint x="2777" y="1277" />
          <mxPoint x="2897" y="1277" />
          <mxPoint x="2897" y="1250" />
        </Array>
      </mxGeometry>
    </mxCell>
    <mxCell id="edge66" edge="1" value="" parent="1" source="node4" target="node16" style="html=1;rounded=1;edgeStyle=orthogonalEdgeStyle;dashed=0;startArrow=none;endArrow=blockThin;endSize=12;strokeColor=#595959;exitX=1.000;exitY=0.500;exitDx=0;exitDy=0;entryX=0.000;entryY=0.250;entryDx=0;entryDy=0;">
      <mxGeometry width="50" height="50" relative="1" as="geometry">
        <Array as="points">
          <mxPoint x="2647" y="1054" />
          <mxPoint x="2647" y="1069" />
          <mxPoint x="2977" y="1069" />
          <mxPoint x="2977" y="988" />
        </Array>
      </mxGeometry>
    </mxCell>
    <mxCell id="edge114" edge="1" value="" parent="1" source="node4" target="node88" style="html=1;rounded=1;edgeStyle=orthogonalEdgeStyle;dashed=0;startArrow=none;endArrow=blockThin;endSize=12;strokeColor=#000082;exitX=1.000;exitY=0.167;exitDx=0;exitDy=0;entryX=1.000;entryY=0.700;entryDx=0;entryDy=0;">
      <mxGeometry width="50" height="50" relative="1" as="geometry">
        <Array as="points">
          <mxPoint x="2587" y="1046" />
          <mxPoint x="2587" y="842" />
        </Array>
      </mxGeometry>
    </mxCell>
    <mxCell id="edge167" edge="1" value="" parent="1" source="node4" target="node10" style="html=1;rounded=1;edgeStyle=orthogonalEdgeStyle;dashed=0;startArrow=none;endArrow=blockThin;endSize=12;strokeColor=#000082;exitX=1.000;exitY=0.833;exitDx=0;exitDy=0;entryX=0.000;entryY=0.500;entryDx=0;entryDy=0;">
      <mxGeometry width="50" height="50" relative="1" as="geometry">
        <Array as="points">
          <mxPoint x="2637" y="1062" />
          <mxPoint x="2637" y="1250" />
          <mxPoint x="2847" y="1250" />
          <mxPoint x="2847" y="1336" />
        </Array>
      </mxGeometry>
    </mxCell>
    <mxCell id="edge169" edge="1" value="" parent="1" source="node4" target="node44" style="html=1;rounded=1;edgeStyle=orthogonalEdgeStyle;dashed=0;startArrow=none;endArrow=blockThin;endSize=12;strokeColor=#000082;exitX=1.000;exitY=0.833;exitDx=0;exitDy=0;entryX=0.000;entryY=0.500;entryDx=0;entryDy=0;">
      <mxGeometry width="50" height="50" relative="1" as="geometry">
        <Array as="points">
          <mxPoint x="2637" y="1062" />
          <mxPoint x="2637" y="1250" />
          <mxPoint x="2837" y="1250" />
          <mxPoint x="2837" y="1608" />
        </Array>
      </mxGeometry>
    </mxCell>
    <mxCell id="edge142" edge="1" value="" parent="1" source="node4" target="node72" style="html=1;rounded=1;edgeStyle=orthogonalEdgeStyle;dashed=0;startArrow=none;endArrow=blockThin;endSize=12;strokeColor=#000082;exitX=0.500;exitY=0.002;exitDx=0;exitDy=0;entryX=0.500;entryY=1.002;entryDx=0;entryDy=0;">
      <mxGeometry width="50" height="50" relative="1" as="geometry">
        <Array as="points" />
      </mxGeometry>
    </mxCell>
    <mxCell id="edge65" edge="1" value="" parent="1" source="node4" target="node50" style="html=1;rounded=1;edgeStyle=orthogonalEdgeStyle;dashed=0;startArrow=none;endArrow=blockThin;endSize=12;strokeColor=#000082;exitX=1.000;exitY=0.833;exitDx=0;exitDy=0;entryX=0.000;entryY=0.500;entryDx=0;entryDy=0;">
      <mxGeometry width="50" height="50" relative="1" as="geometry">
        <Array as="points">
          <mxPoint x="2637" y="1062" />
          <mxPoint x="2637" y="1250" />
          <mxPoint x="2737" y="1250" />
          <mxPoint x="2737" y="1187" />
        </Array>
      </mxGeometry>
    </mxCell>
    <mxCell id="edge147" edge="1" value="" parent="1" source="node4" target="node73" style="html=1;rounded=1;edgeStyle=orthogonalEdgeStyle;dashed=0;startArrow=none;endArrow=blockThin;endSize=12;strokeColor=#000082;exitX=0.000;exitY=0.167;exitDx=0;exitDy=0;entryX=0.000;entryY=0.750;entryDx=0;entryDy=0;">
      <mxGeometry width="50" height="50" relative="1" as="geometry">
        <Array as="points">
          <mxPoint x="2037" y="1046" />
          <mxPoint x="2037" y="611" />
        </Array>
      </mxGeometry>
    </mxCell>
    <mxCell id="edge72" edge="1" value="" parent="1" source="node4" target="node75" style="html=1;rounded=1;edgeStyle=orthogonalEdgeStyle;dashed=0;startArrow=none;endArrow=blockThin;endSize=12;strokeColor=#000082;exitX=1.000;exitY=0.833;exitDx=0;exitDy=0;entryX=0.000;entryY=0.500;entryDx=0;entryDy=0;">
      <mxGeometry width="50" height="50" relative="1" as="geometry">
        <Array as="points">
          <mxPoint x="2637" y="1062" />
          <mxPoint x="2637" y="1250" />
          <mxPoint x="2857" y="1250" />
          <mxPoint x="2857" y="1277" />
          <mxPoint x="2897" y="1277" />
          <mxPoint x="2897" y="1250" />
        </Array>
      </mxGeometry>
    </mxCell>
    <mxCell id="edge149" edge="1" value="" parent="1" source="node29" target="node16" style="html=1;rounded=1;edgeStyle=orthogonalEdgeStyle;dashed=0;startArrow=none;endArrow=blockThin;endSize=12;strokeColor=#595959;exitX=1.000;exitY=0.875;exitDx=0;exitDy=0;entryX=1.000;entryY=0.500;entryDx=0;entryDy=0;">
      <mxGeometry width="50" height="50" relative="1" as="geometry">
        <Array as="points">
          <mxPoint x="3474" y="877" />
          <mxPoint x="3474" y="994" />
        </Array>
      </mxGeometry>
    </mxCell>
    <mxCell id="edge99" edge="1" value="" parent="1" source="node29" target="node88" style="html=1;rounded=1;edgeStyle=orthogonalEdgeStyle;dashed=0;startArrow=none;endArrow=blockThin;endSize=12;strokeColor=#000082;exitX=0.000;exitY=0.500;exitDx=0;exitDy=0;entryX=1.000;entryY=0.300;entryDx=0;entryDy=0;">
      <mxGeometry width="50" height="50" relative="1" as="geometry">
        <Array as="points">
          <mxPoint x="2907" y="868" />
          <mxPoint x="2907" y="833" />
        </Array>
      </mxGeometry>
    </mxCell>
    <mxCell id="edge152" edge="1" value="" parent="1" source="node29" target="node72" style="html=1;rounded=1;edgeStyle=orthogonalEdgeStyle;dashed=0;startArrow=none;endArrow=blockThin;endSize=12;strokeColor=#000082;exitX=0.000;exitY=0.500;exitDx=0;exitDy=0;entryX=1.000;entryY=0.625;entryDx=0;entryDy=0;">
      <mxGeometry width="50" height="50" relative="1" as="geometry">
        <Array as="points">
          <mxPoint x="2717" y="868" />
          <mxPoint x="2717" y="994" />
        </Array>
      </mxGeometry>
    </mxCell>
    <mxCell id="edge146" edge="1" value="" parent="1" source="node29" target="node4" style="html=1;rounded=1;edgeStyle=orthogonalEdgeStyle;dashed=0;startArrow=none;endArrow=blockThin;endSize=12;strokeColor=#000082;exitX=0.000;exitY=0.500;exitDx=0;exitDy=0;entryX=1.000;entryY=0.833;entryDx=0;entryDy=0;">
      <mxGeometry width="50" height="50" relative="1" as="geometry">
        <Array as="points">
          <mxPoint x="2727" y="868" />
          <mxPoint x="2727" y="1250" />
          <mxPoint x="2637" y="1250" />
          <mxPoint x="2637" y="1062" />
        </Array>
      </mxGeometry>
    </mxCell>
    <mxCell id="edge57" edge="1" value="" parent="1" source="node29" target="node73" style="html=1;rounded=1;edgeStyle=orthogonalEdgeStyle;dashed=0;startArrow=none;endArrow=blockThin;endSize=12;strokeColor=#000082;exitX=0.000;exitY=0.500;exitDx=0;exitDy=0;entryX=1.000;entryY=0.500;entryDx=0;entryDy=0;">
      <mxGeometry width="50" height="50" relative="1" as="geometry">
        <Array as="points">
          <mxPoint x="2957" y="868" />
          <mxPoint x="2957" y="605" />
        </Array>
      </mxGeometry>
    </mxCell>
    <mxCell id="edge0" edge="1" value="" parent="1" source="node29" target="node49" style="html=1;rounded=1;edgeStyle=orthogonalEdgeStyle;dashed=0;startArrow=none;endArrow=blockThin;endSize=12;strokeColor=#000082;exitX=1.000;exitY=0.375;exitDx=0;exitDy=0;entryX=1.000;entryY=0.250;entryDx=0;entryDy=0;">
      <mxGeometry width="50" height="50" relative="1" as="geometry">
        <Array as="points">
          <mxPoint x="3524" y="866" />
          <mxPoint x="3524" y="387" />
        </Array>
      </mxGeometry>
    </mxCell>
    <mxCell id="edge150" edge="1" value="" parent="1" source="node29" target="node53" style="html=1;rounded=1;edgeStyle=orthogonalEdgeStyle;dashed=0;startArrow=none;endArrow=blockThin;endSize=12;strokeColor=#000082;exitX=0.500;exitY=0.001;exitDx=0;exitDy=0;entryX=0.500;entryY=1.001;entryDx=0;entryDy=0;">
      <mxGeometry width="50" height="50" relative="1" as="geometry">
        <Array as="points" />
      </mxGeometry>
    </mxCell>
    <mxCell id="edge37" edge="1" value="" parent="1" source="node29" target="node28" style="html=1;rounded=1;edgeStyle=orthogonalEdgeStyle;dashed=0;startArrow=none;endArrow=blockThin;endSize=12;strokeColor=#000082;exitX=1.000;exitY=0.125;exitDx=0;exitDy=0;entryX=1.000;entryY=0.833;entryDx=0;entryDy=0;">
      <mxGeometry width="50" height="50" relative="1" as="geometry">
        <Array as="points">
          <mxPoint x="3504" y="860" />
          <mxPoint x="3504" y="550" />
        </Array>
      </mxGeometry>
    </mxCell>
    <mxCell id="edge129" edge="1" value="" parent="1" source="node29" target="node90" style="html=1;rounded=1;edgeStyle=orthogonalEdgeStyle;dashed=0;startArrow=none;endArrow=blockThin;endSize=12;strokeColor=#000082;exitX=0.500;exitY=1.001;exitDx=0;exitDy=0;entryX=0.500;entryY=0.001;entryDx=0;entryDy=0;">
      <mxGeometry width="50" height="50" relative="1" as="geometry">
        <Array as="points" />
      </mxGeometry>
    </mxCell>
    <mxCell id="edge156" edge="1" value="" parent="1" source="node29" target="node75" style="html=1;rounded=1;edgeStyle=orthogonalEdgeStyle;dashed=0;startArrow=none;endArrow=blockThin;endSize=12;strokeColor=#000082;exitX=1.000;exitY=0.625;exitDx=0;exitDy=0;entryX=1.000;entryY=0.300;entryDx=0;entryDy=0;">
      <mxGeometry width="50" height="50" relative="1" as="geometry">
        <Array as="points">
          <mxPoint x="3484" y="871" />
          <mxPoint x="3484" y="1246" />
        </Array>
      </mxGeometry>
    </mxCell>
    <mxCell id="edge135" edge="1" value="" parent="1" source="node38" target="node16" style="html=1;rounded=1;edgeStyle=orthogonalEdgeStyle;dashed=0;startArrow=none;endArrow=blockThin;endSize=12;strokeColor=#595959;exitX=1.000;exitY=0.500;exitDx=0;exitDy=0;entryX=0.000;entryY=0.250;entryDx=0;entryDy=0;">
      <mxGeometry width="50" height="50" relative="1" as="geometry">
        <Array as="points">
          <mxPoint x="2647" y="758" />
          <mxPoint x="2647" y="1069" />
          <mxPoint x="2977" y="1069" />
          <mxPoint x="2977" y="988" />
        </Array>
      </mxGeometry>
    </mxCell>
    <mxCell id="edge80" edge="1" value="" parent="1" source="node38" target="node88" style="html=1;rounded=1;edgeStyle=orthogonalEdgeStyle;dashed=0;startArrow=none;endArrow=blockThin;endSize=12;strokeColor=#000082;exitX=0.500;exitY=1.001;exitDx=0;exitDy=0;entryX=0.500;entryY=0.001;entryDx=0;entryDy=0;">
      <mxGeometry width="50" height="50" relative="1" as="geometry">
        <Array as="points" />
      </mxGeometry>
    </mxCell>
    <mxCell id="edge176" edge="1" value="" parent="1" source="node38" target="node87" style="html=1;rounded=1;edgeStyle=orthogonalEdgeStyle;dashed=0;startArrow=none;endArrow=blockThin;endSize=12;strokeColor=#000082;exitX=1.000;exitY=0.167;exitDx=0;exitDy=0;entryX=0.000;entryY=0.500;entryDx=0;entryDy=0;">
      <mxGeometry width="50" height="50" relative="1" as="geometry">
        <Array as="points">
          <mxPoint x="2917" y="751" />
          <mxPoint x="2917" y="1030" />
          <mxPoint x="2967" y="1030" />
          <mxPoint x="2967" y="1080" />
        </Array>
      </mxGeometry>
    </mxCell>
    <mxCell id="edge157" edge="1" value="" parent="1" source="node38" target="node72" style="html=1;rounded=1;edgeStyle=orthogonalEdgeStyle;dashed=0;startArrow=none;endArrow=blockThin;endSize=12;strokeColor=#000082;exitX=1.000;exitY=0.833;exitDx=0;exitDy=0;entryX=1.000;entryY=0.375;entryDx=0;entryDy=0;">
      <mxGeometry width="50" height="50" relative="1" as="geometry">
        <Array as="points">
          <mxPoint x="2597" y="766" />
          <mxPoint x="2597" y="988" />
        </Array>
      </mxGeometry>
    </mxCell>
    <mxCell id="edge125" edge="1" value="" parent="1" source="node38" target="node29" style="html=1;rounded=1;edgeStyle=orthogonalEdgeStyle;dashed=0;startArrow=none;endArrow=blockThin;endSize=12;strokeColor=#000082;exitX=1.000;exitY=0.167;exitDx=0;exitDy=0;entryX=0.000;entryY=0.500;entryDx=0;entryDy=0;">
      <mxGeometry width="50" height="50" relative="1" as="geometry">
        <Array as="points">
          <mxPoint x="2937" y="751" />
          <mxPoint x="2937" y="868" />
        </Array>
      </mxGeometry>
    </mxCell>
    <mxCell id="edge31" edge="1" value="" parent="1" source="node38" target="node79" style="html=1;rounded=1;edgeStyle=orthogonalEdgeStyle;dashed=0;startArrow=none;endArrow=blockThin;endSize=12;strokeColor=#000082;exitX=1.000;exitY=0.167;exitDx=0;exitDy=0;entryX=0.000;entryY=0.500;entryDx=0;entryDy=0;">
      <mxGeometry width="50" height="50" relative="1" as="geometry">
        <Array as="points">
          <mxPoint x="2677" y="751" />
          <mxPoint x="2677" y="436" />
        </Array>
      </mxGeometry>
    </mxCell>
    <mxCell id="edge130" edge="1" value="" parent="1" source="node38" target="node73" style="html=1;rounded=1;edgeStyle=orthogonalEdgeStyle;dashed=0;startArrow=none;endArrow=blockThin;endSize=12;strokeColor=#000082;exitX=0.500;exitY=0.001;exitDx=0;exitDy=0;entryX=0.500;entryY=1.001;entryDx=0;entryDy=0;">
      <mxGeometry width="50" height="50" relative="1" as="geometry">
        <Array as="points" />
      </mxGeometry>
    </mxCell>
    <mxCell id="edge54" edge="1" value="" parent="1" source="node38" target="node28" style="html=1;rounded=1;edgeStyle=orthogonalEdgeStyle;dashed=0;startArrow=none;endArrow=blockThin;endSize=12;strokeColor=#000082;exitX=1.000;exitY=0.167;exitDx=0;exitDy=0;entryX=0.000;entryY=0.500;entryDx=0;entryDy=0;">
      <mxGeometry width="50" height="50" relative="1" as="geometry">
        <Array as="points">
          <mxPoint x="2727" y="751" />
          <mxPoint x="2727" y="515" />
          <mxPoint x="2737" y="515" />
          <mxPoint x="2737" y="542" />
        </Array>
      </mxGeometry>
    </mxCell>
    <mxCell id="edge63" edge="1" value="" parent="1" source="node38" target="node90" style="html=1;rounded=1;edgeStyle=orthogonalEdgeStyle;dashed=0;startArrow=none;endArrow=blockThin;endSize=12;strokeColor=#000082;exitX=1.000;exitY=0.167;exitDx=0;exitDy=0;entryX=0.000;entryY=0.500;entryDx=0;entryDy=0;">
      <mxGeometry width="50" height="50" relative="1" as="geometry">
        <Array as="points">
          <mxPoint x="2927" y="751" />
          <mxPoint x="2927" y="951" />
        </Array>
      </mxGeometry>
    </mxCell>
    <mxCell id="edge124" edge="1" value="" parent="1" source="node50" target="node11" style="html=1;rounded=1;edgeStyle=orthogonalEdgeStyle;dashed=0;startArrow=none;endArrow=blockThin;endSize=12;strokeColor=#000082;exitX=0.000;exitY=0.500;exitDx=0;exitDy=0;entryX=1.000;entryY=0.833;entryDx=0;entryDy=0;">
      <mxGeometry width="50" height="50" relative="1" as="geometry">
        <Array as="points">
          <mxPoint x="2757" y="1187" />
          <mxPoint x="2757" y="1165" />
        </Array>
      </mxGeometry>
    </mxCell>
    <mxCell id="edge103" edge="1" value="" parent="1" source="node50" target="node75" style="html=1;rounded=1;edgeStyle=orthogonalEdgeStyle;dashed=0;startArrow=none;endArrow=blockThin;endSize=12;strokeColor=#000082;exitX=0.500;exitY=1.002;exitDx=0;exitDy=0;entryX=0.500;entryY=0.002;entryDx=0;entryDy=0;">
      <mxGeometry width="50" height="50" relative="1" as="geometry">
        <Array as="points" />
      </mxGeometry>
    </mxCell>
    <mxCell id="edge100" edge="1" value="" parent="1" source="node65" target="node82" style="html=1;rounded=1;edgeStyle=orthogonalEdgeStyle;dashed=0;startArrow=none;endArrow=blockThin;endSize=12;strokeColor=#000082;exitX=1.000;exitY=0.500;exitDx=0;exitDy=0;entryX=0.000;entryY=0.500;entryDx=0;entryDy=0;">
      <mxGeometry width="50" height="50" relative="1" as="geometry">
        <Array as="points" />
      </mxGeometry>
    </mxCell>
    <mxCell id="edge52" edge="1" value="" parent="1" source="node65" target="node34" style="html=1;rounded=1;edgeStyle=orthogonalEdgeStyle;dashed=0;startArrow=none;endArrow=blockThin;endSize=12;strokeColor=#000082;exitX=1.000;exitY=0.500;exitDx=0;exitDy=0;entryX=0.000;entryY=0.500;entryDx=0;entryDy=0;">
      <mxGeometry width="50" height="50" relative="1" as="geometry">
        <Array as="points">
          <mxPoint x="185" y="1176" />
          <mxPoint x="185" y="1090" />
        </Array>
      </mxGeometry>
    </mxCell>
    <mxCell id="edge109" edge="1" value="" parent="1" source="node65" target="node20" style="html=1;rounded=1;edgeStyle=orthogonalEdgeStyle;dashed=0;startArrow=none;endArrow=blockThin;endSize=12;strokeColor=#000082;exitX=1.000;exitY=0.500;exitDx=0;exitDy=0;entryX=0.000;entryY=0.500;entryDx=0;entryDy=0;">
      <mxGeometry width="50" height="50" relative="1" as="geometry">
        <Array as="points">
          <mxPoint x="185" y="1176" />
          <mxPoint x="185" y="1492" />
        </Array>
      </mxGeometry>
    </mxCell>
    <mxCell id="edge24" edge="1" value="" parent="1" source="node65" target="node60" style="html=1;rounded=1;edgeStyle=orthogonalEdgeStyle;dashed=0;startArrow=none;endArrow=blockThin;endSize=12;strokeColor=#000082;exitX=1.000;exitY=0.500;exitDx=0;exitDy=0;entryX=0.000;entryY=0.500;entryDx=0;entryDy=0;">
      <mxGeometry width="50" height="50" relative="1" as="geometry">
        <Array as="points">
          <mxPoint x="185" y="1176" />
          <mxPoint x="185" y="680" />
        </Array>
      </mxGeometry>
    </mxCell>
    <mxCell id="edge93" edge="1" value="" parent="1" source="node65" target="node48" style="html=1;rounded=1;edgeStyle=orthogonalEdgeStyle;dashed=0;startArrow=none;endArrow=blockThin;endSize=12;strokeColor=#000082;exitX=1.000;exitY=0.500;exitDx=0;exitDy=0;entryX=0.000;entryY=0.500;entryDx=0;entryDy=0;">
      <mxGeometry width="50" height="50" relative="1" as="geometry">
        <Array as="points">
          <mxPoint x="185" y="1176" />
          <mxPoint x="185" y="1535" />
        </Array>
      </mxGeometry>
    </mxCell>
    <mxCell id="edge184" edge="1" value="" parent="1" source="node19" target="node74" style="html=1;rounded=1;edgeStyle=orthogonalEdgeStyle;dashed=0;startArrow=none;endArrow=blockThin;endSize=12;strokeColor=#000082;exitX=1.000;exitY=0.500;exitDx=0;exitDy=0;entryX=1.000;entryY=0.250;entryDx=0;entryDy=0;">
      <mxGeometry width="50" height="50" relative="1" as="geometry">
        <Array as="points">
          <mxPoint x="3444" y="1757" />
          <mxPoint x="3444" y="1837" />
        </Array>
      </mxGeometry>
    </mxCell>
    <mxCell id="edge46" edge="1" value="" parent="1" source="node19" target="node30" style="html=1;rounded=1;edgeStyle=orthogonalEdgeStyle;dashed=0;startArrow=none;endArrow=blockThin;endSize=12;strokeColor=#000082;exitX=0.500;exitY=0.002;exitDx=0;exitDy=0;entryX=0.500;entryY=1.002;entryDx=0;entryDy=0;">
      <mxGeometry width="50" height="50" relative="1" as="geometry">
        <Array as="points" />
      </mxGeometry>
    </mxCell>
    <mxCell id="edge62" edge="1" value="" parent="1" source="node74" target="node40" style="html=1;rounded=1;edgeStyle=orthogonalEdgeStyle;dashed=0;startArrow=none;endArrow=blockThin;endSize=12;strokeColor=#000082;exitX=1.000;exitY=0.750;exitDx=0;exitDy=0;entryX=0.000;entryY=0.500;entryDx=0;entryDy=0;">
      <mxGeometry width="50" height="50" relative="1" as="geometry">
        <Array as="points" />
      </mxGeometry>
    </mxCell>
    <mxCell id="edge77" edge="1" value="" parent="1" source="node40" target="node69" style="html=1;rounded=1;edgeStyle=orthogonalEdgeStyle;dashed=0;startArrow=none;endArrow=blockThin;endSize=12;strokeColor=#000082;exitX=1.000;exitY=0.500;exitDx=0;exitDy=0;entryX=0.000;entryY=0.500;entryDx=0;entryDy=0;">
      <mxGeometry width="50" height="50" relative="1" as="geometry">
        <Array as="points" />
      </mxGeometry>
    </mxCell>
    <mxCell id="edge136" edge="1" value="" parent="1" source="node79" target="node7" style="html=1;rounded=1;edgeStyle=orthogonalEdgeStyle;dashed=0;startArrow=none;endArrow=blockThin;endSize=12;strokeColor=#000082;exitX=0.500;exitY=1.002;exitDx=0;exitDy=0;entryX=0.500;entryY=0.002;entryDx=0;entryDy=0;">
      <mxGeometry width="50" height="50" relative="1" as="geometry">
        <Array as="points" />
      </mxGeometry>
    </mxCell>
    <mxCell id="edge3" edge="1" value="" parent="1" source="node49" target="node73" style="html=1;rounded=1;edgeStyle=orthogonalEdgeStyle;dashed=0;startArrow=none;endArrow=blockThin;endSize=12;strokeColor=#000082;exitX=0.000;exitY=0.500;exitDx=0;exitDy=0;entryX=1.000;entryY=0.500;entryDx=0;entryDy=0;">
      <mxGeometry width="50" height="50" relative="1" as="geometry">
        <Array as="points">
          <mxPoint x="2667" y="393" />
          <mxPoint x="2667" y="605" />
        </Array>
      </mxGeometry>
    </mxCell>
    <mxCell id="edge79" edge="1" value="" parent="1" source="node49" target="node28" style="html=1;rounded=1;edgeStyle=orthogonalEdgeStyle;dashed=0;startArrow=none;endArrow=blockThin;endSize=12;strokeColor=#000082;exitX=1.000;exitY=0.750;exitDx=0;exitDy=0;entryX=1.000;entryY=0.167;entryDx=0;entryDy=0;">
      <mxGeometry width="50" height="50" relative="1" as="geometry">
        <Array as="points">
          <mxPoint x="3444" y="399" />
          <mxPoint x="3444" y="534" />
        </Array>
      </mxGeometry>
    </mxCell>
    <mxCell id="edge8" edge="1" value="" parent="1" source="node53" target="node50" style="html=1;rounded=1;edgeStyle=orthogonalEdgeStyle;dashed=0;startArrow=none;endArrow=blockThin;endSize=12;strokeColor=#000082;exitX=1.000;exitY=0.500;exitDx=0;exitDy=0;entryX=1.000;entryY=0.500;entryDx=0;entryDy=0;">
      <mxGeometry width="50" height="50" relative="1" as="geometry">
        <Array as="points">
          <mxPoint x="3494" y="605" />
          <mxPoint x="3494" y="1187" />
        </Array>
      </mxGeometry>
    </mxCell>
    <mxCell id="edge183" edge="1" value="" parent="1" source="node53" target="node73" style="html=1;rounded=1;edgeStyle=orthogonalEdgeStyle;dashed=0;startArrow=none;endArrow=blockThin;endSize=12;strokeColor=#000082;exitX=0.000;exitY=0.500;exitDx=0;exitDy=0;entryX=1.000;entryY=0.500;entryDx=0;entryDy=0;">
      <mxGeometry width="50" height="50" relative="1" as="geometry">
        <Array as="points" />
      </mxGeometry>
    </mxCell>
    <mxCell id="edge110" edge="1" value="" parent="1" source="node53" target="node28" style="html=1;rounded=1;edgeStyle=orthogonalEdgeStyle;dashed=0;startArrow=none;endArrow=blockThin;endSize=12;strokeColor=#000082;exitX=0.500;exitY=0.002;exitDx=0;exitDy=0;entryX=0.500;entryY=1.002;entryDx=0;entryDy=0;">
      <mxGeometry width="50" height="50" relative="1" as="geometry">
        <Array as="points" />
      </mxGeometry>
    </mxCell>
    <mxCell id="edge88" edge="1" value="" parent="1" source="node28" target="node73" style="html=1;rounded=1;edgeStyle=orthogonalEdgeStyle;dashed=0;startArrow=none;endArrow=blockThin;endSize=12;strokeColor=#000082;exitX=0.000;exitY=0.500;exitDx=0;exitDy=0;entryX=1.000;entryY=0.500;entryDx=0;entryDy=0;">
      <mxGeometry width="50" height="50" relative="1" as="geometry">
        <Array as="points">
          <mxPoint x="2737" y="542" />
          <mxPoint x="2737" y="515" />
          <mxPoint x="2717" y="515" />
          <mxPoint x="2717" y="605" />
        </Array>
      </mxGeometry>
    </mxCell>
    <mxCell id="edge171" edge="1" value="" parent="1" source="node28" target="node75" style="html=1;rounded=1;edgeStyle=orthogonalEdgeStyle;dashed=0;startArrow=none;endArrow=blockThin;endSize=12;strokeColor=#000082;exitX=1.000;exitY=0.500;exitDx=0;exitDy=0;entryX=1.000;entryY=0.500;entryDx=0;entryDy=0;">
      <mxGeometry width="50" height="50" relative="1" as="geometry">
        <Array as="points">
          <mxPoint x="3514" y="542" />
          <mxPoint x="3514" y="1250" />
        </Array>
      </mxGeometry>
    </mxCell>
    <mxCell id="edge139" edge="1" value="" parent="1" source="node20" target="node68" style="html=1;rounded=1;edgeStyle=orthogonalEdgeStyle;dashed=0;startArrow=none;endArrow=blockThin;endSize=12;strokeColor=#000082;exitX=1.000;exitY=0.500;exitDx=0;exitDy=0;entryX=0.000;entryY=0.500;entryDx=0;entryDy=0;">
      <mxGeometry width="50" height="50" relative="1" as="geometry">
        <Array as="points" />
      </mxGeometry>
    </mxCell>
    <mxCell id="edge2" edge="1" value="" parent="1" source="node30" target="node57" style="html=1;rounded=1;edgeStyle=orthogonalEdgeStyle;dashed=0;startArrow=none;endArrow=blockThin;endSize=12;strokeColor=#000082;exitX=0.000;exitY=0.500;exitDx=0;exitDy=0;entryX=1.000;entryY=0.500;entryDx=0;entryDy=0;">
      <mxGeometry width="50" height="50" relative="1" as="geometry">
        <Array as="points" />
      </mxGeometry>
    </mxCell>
    <mxCell id="edge141" edge="1" value="" parent="1" source="node30" target="node81" style="html=1;rounded=1;edgeStyle=orthogonalEdgeStyle;dashed=0;startArrow=none;endArrow=blockThin;endSize=12;strokeColor=#000082;exitX=1.000;exitY=0.500;exitDx=0;exitDy=0;entryX=0.000;entryY=0.500;entryDx=0;entryDy=0;">
      <mxGeometry width="50" height="50" relative="1" as="geometry">
        <Array as="points" />
      </mxGeometry>
    </mxCell>
    <mxCell id="edge186" edge="1" value="" parent="1" source="node13" target="node62" style="html=1;rounded=1;edgeStyle=orthogonalEdgeStyle;dashed=0;startArrow=none;endArrow=blockThin;endSize=12;strokeColor=#000082;exitX=1.000;exitY=0.500;exitDx=0;exitDy=0;entryX=0.000;entryY=0.500;entryDx=0;entryDy=0;">
      <mxGeometry width="50" height="50" relative="1" as="geometry">
        <Array as="points">
          <mxPoint x="2807" y="1910" />
          <mxPoint x="2807" y="1800" />
        </Array>
      </mxGeometry>
    </mxCell>
    <mxCell id="edge32" edge="1" value="" parent="1" source="node13" target="node75" style="html=1;rounded=1;edgeStyle=orthogonalEdgeStyle;dashed=0;startArrow=none;endArrow=blockThin;endSize=12;strokeColor=#000082;exitX=1.000;exitY=0.500;exitDx=0;exitDy=0;entryX=0.000;entryY=0.500;entryDx=0;entryDy=0;">
      <mxGeometry width="50" height="50" relative="1" as="geometry">
        <Array as="points">
          <mxPoint x="2787" y="1910" />
          <mxPoint x="2787" y="1277" />
          <mxPoint x="2897" y="1277" />
          <mxPoint x="2897" y="1250" />
        </Array>
      </mxGeometry>
    </mxCell>
    <mxCell id="edge67" edge="1" value="" parent="1" source="node9" target="node33" style="html=1;rounded=1;edgeStyle=orthogonalEdgeStyle;dashed=0;startArrow=none;endArrow=blockThin;endSize=12;strokeColor=#000082;exitX=0.500;exitY=0.002;exitDx=0;exitDy=0;entryX=0.500;entryY=1.002;entryDx=0;entryDy=0;">
      <mxGeometry width="50" height="50" relative="1" as="geometry">
        <Array as="points" />
      </mxGeometry>
    </mxCell>
    <mxCell id="edge95" edge="1" value="" parent="1" source="node55" target="node35" style="html=1;rounded=1;edgeStyle=orthogonalEdgeStyle;dashed=0;startArrow=none;endArrow=blockThin;endSize=12;strokeColor=#000082;exitX=1.000;exitY=0.500;exitDx=0;exitDy=0;entryX=0.000;entryY=0.500;entryDx=0;entryDy=0;">
      <mxGeometry width="50" height="50" relative="1" as="geometry">
        <Array as="points" />
      </mxGeometry>
    </mxCell>
    <mxCell id="edge48" edge="1" value="" parent="1" source="node70" target="node76" style="html=1;rounded=1;edgeStyle=orthogonalEdgeStyle;dashed=0;startArrow=none;endArrow=blockThin;endSize=12;strokeColor=#000082;exitX=1.000;exitY=0.500;exitDx=0;exitDy=0;entryX=0.000;entryY=0.500;entryDx=0;entryDy=0;">
      <mxGeometry width="50" height="50" relative="1" as="geometry">
        <Array as="points">
          <mxPoint x="1206" y="428" />
          <mxPoint x="1206" y="320" />
        </Array>
      </mxGeometry>
    </mxCell>
    <mxCell id="edge163" edge="1" value="" parent="1" source="node70" target="node8" style="html=1;rounded=1;edgeStyle=orthogonalEdgeStyle;dashed=0;startArrow=none;endArrow=blockThin;endSize=12;strokeColor=#000082;exitX=1.000;exitY=0.500;exitDx=0;exitDy=0;entryX=0.000;entryY=0.500;entryDx=0;entryDy=0;">
      <mxGeometry width="50" height="50" relative="1" as="geometry">
        <Array as="points">
          <mxPoint x="1206" y="428" />
          <mxPoint x="1206" y="277" />
        </Array>
      </mxGeometry>
    </mxCell>
    <mxCell id="edge90" edge="1" value="" parent="1" source="node70" target="node17" style="html=1;rounded=1;edgeStyle=orthogonalEdgeStyle;dashed=0;startArrow=none;endArrow=blockThin;endSize=12;strokeColor=#000082;exitX=1.000;exitY=0.500;exitDx=0;exitDy=0;entryX=0.000;entryY=0.500;entryDx=0;entryDy=0;">
      <mxGeometry width="50" height="50" relative="1" as="geometry">
        <Array as="points">
          <mxPoint x="1206" y="428" />
          <mxPoint x="1206" y="191" />
        </Array>
      </mxGeometry>
    </mxCell>
    <mxCell id="edge16" edge="1" value="" parent="1" source="node21" target="node75" style="html=1;rounded=1;edgeStyle=orthogonalEdgeStyle;dashed=0;startArrow=none;endArrow=blockThin;endSize=12;strokeColor=#000082;exitX=1.000;exitY=0.500;exitDx=0;exitDy=0;entryX=0.000;entryY=0.500;entryDx=0;entryDy=0;">
      <mxGeometry width="50" height="50" relative="1" as="geometry">
        <Array as="points">
          <mxPoint x="2757" y="1296" />
          <mxPoint x="2757" y="1277" />
          <mxPoint x="2897" y="1277" />
          <mxPoint x="2897" y="1250" />
        </Array>
      </mxGeometry>
    </mxCell>
    <mxCell id="edge168" edge="1" value="" parent="1" source="node89" target="node54" style="html=1;rounded=1;edgeStyle=orthogonalEdgeStyle;dashed=0;startArrow=none;endArrow=blockThin;endSize=12;strokeColor=#000082;exitX=0.000;exitY=0.500;exitDx=0;exitDy=0;entryX=1.000;entryY=0.750;entryDx=0;entryDy=0;">
      <mxGeometry width="50" height="50" relative="1" as="geometry">
        <Array as="points">
          <mxPoint x="1296" y="1843" />
          <mxPoint x="1296" y="1541" />
        </Array>
      </mxGeometry>
    </mxCell>
    <mxCell id="edge128" edge="1" value="" parent="1" source="node84" target="node5" style="html=1;rounded=1;edgeStyle=orthogonalEdgeStyle;dashed=0;startArrow=none;endArrow=blockThin;endSize=12;strokeColor=#000082;exitX=1.000;exitY=0.500;exitDx=0;exitDy=0;entryX=0.000;entryY=0.500;entryDx=0;entryDy=0;">
      <mxGeometry width="50" height="50" relative="1" as="geometry">
        <Array as="points">
          <mxPoint x="1266" y="514" />
          <mxPoint x="1266" y="522" />
        </Array>
      </mxGeometry>
    </mxCell>
    <mxCell id="edge137" edge="1" value="" parent="1" source="node84" target="node0" style="html=1;rounded=1;edgeStyle=orthogonalEdgeStyle;dashed=0;startArrow=none;endArrow=blockThin;endSize=12;strokeColor=#000082;exitX=1.000;exitY=0.500;exitDx=0;exitDy=0;entryX=0.000;entryY=0.500;entryDx=0;entryDy=0;">
      <mxGeometry width="50" height="50" relative="1" as="geometry">
        <Array as="points">
          <mxPoint x="1266" y="514" />
          <mxPoint x="1266" y="148" />
        </Array>
      </mxGeometry>
    </mxCell>
    <mxCell id="edge58" edge="1" value="" parent="1" source="node84" target="node77" style="html=1;rounded=1;edgeStyle=orthogonalEdgeStyle;dashed=0;startArrow=none;endArrow=blockThin;endSize=12;strokeColor=#000082;exitX=1.000;exitY=0.500;exitDx=0;exitDy=0;entryX=0.000;entryY=0.500;entryDx=0;entryDy=0;">
      <mxGeometry width="50" height="50" relative="1" as="geometry">
        <Array as="points">
          <mxPoint x="1266" y="514" />
          <mxPoint x="1266" y="234" />
        </Array>
      </mxGeometry>
    </mxCell>
    <mxCell id="edge87" edge="1" value="" parent="1" source="node84" target="node14" style="html=1;rounded=1;edgeStyle=orthogonalEdgeStyle;dashed=0;startArrow=none;endArrow=blockThin;endSize=12;strokeColor=#000082;exitX=1.000;exitY=0.500;exitDx=0;exitDy=0;entryX=0.000;entryY=0.500;entryDx=0;entryDy=0;">
      <mxGeometry width="50" height="50" relative="1" as="geometry">
        <Array as="points">
          <mxPoint x="1266" y="514" />
          <mxPoint x="1266" y="363" />
        </Array>
      </mxGeometry>
    </mxCell>
    <mxCell id="edge45" edge="1" value="" parent="1" source="node84" target="node59" style="html=1;rounded=1;edgeStyle=orthogonalEdgeStyle;dashed=0;startArrow=none;endArrow=blockThin;endSize=12;strokeColor=#000082;exitX=0.000;exitY=0.750;exitDx=0;exitDy=0;entryX=0.000;entryY=0.250;entryDx=0;entryDy=0;">
      <mxGeometry width="50" height="50" relative="1" as="geometry">
        <Array as="points">
          <mxPoint x="717" y="520" />
          <mxPoint x="717" y="1443" />
        </Array>
      </mxGeometry>
    </mxCell>
    <mxCell id="edge19" edge="1" value="" parent="1" source="node84" target="node2" style="html=1;rounded=1;edgeStyle=orthogonalEdgeStyle;dashed=0;startArrow=none;endArrow=blockThin;endSize=12;strokeColor=#000082;exitX=0.500;exitY=1.001;exitDx=0;exitDy=0;entryX=0.500;entryY=0.001;entryDx=0;entryDy=0;">
      <mxGeometry width="50" height="50" relative="1" as="geometry">
        <Array as="points" />
      </mxGeometry>
    </mxCell>
    <mxCell id="edge42" edge="1" value="" parent="1" source="node46" target="node41" style="html=1;rounded=1;edgeStyle=orthogonalEdgeStyle;dashed=0;startArrow=none;endArrow=blockThin;endSize=12;strokeColor=#000082;exitX=1.000;exitY=0.500;exitDx=0;exitDy=0;entryX=0.000;entryY=0.500;entryDx=0;entryDy=0;">
      <mxGeometry width="50" height="50" relative="1" as="geometry">
        <Array as="points">
          <mxPoint x="1897" y="1800" />
          <mxPoint x="1897" y="1975" />
        </Array>
      </mxGeometry>
    </mxCell>
    <mxCell id="edge127" edge="1" value="" parent="1" source="node46" target="node13" style="html=1;rounded=1;edgeStyle=orthogonalEdgeStyle;dashed=0;startArrow=none;endArrow=blockThin;endSize=12;strokeColor=#000082;exitX=1.000;exitY=0.500;exitDx=0;exitDy=0;entryX=0.000;entryY=0.500;entryDx=0;entryDy=0;">
      <mxGeometry width="50" height="50" relative="1" as="geometry">
        <Array as="points">
          <mxPoint x="1897" y="1800" />
          <mxPoint x="1897" y="1910" />
        </Array>
      </mxGeometry>
    </mxCell>
    <mxCell id="edge96" edge="1" value="" parent="1" source="node46" target="node21" style="html=1;rounded=1;edgeStyle=orthogonalEdgeStyle;dashed=0;startArrow=none;endArrow=blockThin;endSize=12;strokeColor=#000082;exitX=1.000;exitY=0.500;exitDx=0;exitDy=0;entryX=0.000;entryY=0.500;entryDx=0;entryDy=0;">
      <mxGeometry width="50" height="50" relative="1" as="geometry">
        <Array as="points">
          <mxPoint x="1897" y="1800" />
          <mxPoint x="1897" y="1296" />
        </Array>
      </mxGeometry>
    </mxCell>
    <mxCell id="edge165" edge="1" value="" parent="1" source="node66" target="node31" style="html=1;rounded=1;edgeStyle=orthogonalEdgeStyle;dashed=0;startArrow=none;endArrow=blockThin;endSize=12;strokeColor=#000082;exitX=1.000;exitY=0.500;exitDx=0;exitDy=0;entryX=0.000;entryY=0.500;entryDx=0;entryDy=0;">
      <mxGeometry width="50" height="50" relative="1" as="geometry">
        <Array as="points">
          <mxPoint x="1256" y="225" />
          <mxPoint x="1256" y="792" />
        </Array>
      </mxGeometry>
    </mxCell>
    <mxCell id="edge38" edge="1" value="" parent="1" source="node66" target="node33" style="html=1;rounded=1;edgeStyle=orthogonalEdgeStyle;dashed=0;startArrow=none;endArrow=blockThin;endSize=12;strokeColor=#000082;exitX=1.000;exitY=0.500;exitDx=0;exitDy=0;entryX=0.000;entryY=0.500;entryDx=0;entryDy=0;">
      <mxGeometry width="50" height="50" relative="1" as="geometry">
        <Array as="points">
          <mxPoint x="1196" y="225" />
          <mxPoint x="1196" y="42" />
        </Array>
      </mxGeometry>
    </mxCell>
    <mxCell id="edge179" edge="1" value="" parent="1" source="node66" target="node91" style="html=1;rounded=1;edgeStyle=orthogonalEdgeStyle;dashed=0;startArrow=none;endArrow=blockThin;endSize=12;strokeColor=#000082;exitX=1.000;exitY=0.500;exitDx=0;exitDy=0;entryX=0.000;entryY=0.500;entryDx=0;entryDy=0;">
      <mxGeometry width="50" height="50" relative="1" as="geometry">
        <Array as="points">
          <mxPoint x="1196" y="225" />
          <mxPoint x="1196" y="0" />
        </Array>
      </mxGeometry>
    </mxCell>
    <mxCell id="edge102" edge="1" value="" parent="1" source="node66" target="node9" style="html=1;rounded=1;edgeStyle=orthogonalEdgeStyle;dashed=0;startArrow=none;endArrow=blockThin;endSize=12;strokeColor=#000082;exitX=1.000;exitY=0.500;exitDx=0;exitDy=0;entryX=0.000;entryY=0.500;entryDx=0;entryDy=0;">
      <mxGeometry width="50" height="50" relative="1" as="geometry">
        <Array as="points">
          <mxPoint x="1196" y="225" />
          <mxPoint x="1196" y="105" />
        </Array>
      </mxGeometry>
    </mxCell>
    <mxCell id="edge177" edge="1" value="" parent="1" source="node60" target="node70" style="html=1;rounded=1;edgeStyle=orthogonalEdgeStyle;dashed=0;startArrow=none;endArrow=blockThin;endSize=12;strokeColor=#000082;exitX=1.000;exitY=0.500;exitDx=0;exitDy=0;entryX=0.000;entryY=0.500;entryDx=0;entryDy=0;">
      <mxGeometry width="50" height="50" relative="1" as="geometry">
        <Array as="points">
          <mxPoint x="707" y="680" />
          <mxPoint x="707" y="428" />
        </Array>
      </mxGeometry>
    </mxCell>
    <mxCell id="edge53" edge="1" value="" parent="1" source="node60" target="node84" style="html=1;rounded=1;edgeStyle=orthogonalEdgeStyle;dashed=0;startArrow=none;endArrow=blockThin;endSize=12;strokeColor=#000082;exitX=1.000;exitY=0.500;exitDx=0;exitDy=0;entryX=0.000;entryY=0.250;entryDx=0;entryDy=0;">
      <mxGeometry width="50" height="50" relative="1" as="geometry">
        <Array as="points">
          <mxPoint x="707" y="680" />
          <mxPoint x="707" y="509" />
        </Array>
      </mxGeometry>
    </mxCell>
    <mxCell id="edge187" edge="1" value="" parent="1" source="node60" target="node66" style="html=1;rounded=1;edgeStyle=orthogonalEdgeStyle;dashed=0;startArrow=none;endArrow=blockThin;endSize=12;strokeColor=#000082;exitX=1.000;exitY=0.500;exitDx=0;exitDy=0;entryX=0.000;entryY=0.500;entryDx=0;entryDy=0;">
      <mxGeometry width="50" height="50" relative="1" as="geometry">
        <Array as="points">
          <mxPoint x="707" y="680" />
          <mxPoint x="707" y="225" />
        </Array>
      </mxGeometry>
    </mxCell>
    <mxCell id="edge91" edge="1" value="" parent="1" source="node60" target="node59" style="html=1;rounded=1;edgeStyle=orthogonalEdgeStyle;dashed=0;startArrow=none;endArrow=blockThin;endSize=12;strokeColor=#000082;exitX=1.000;exitY=0.500;exitDx=0;exitDy=0;entryX=0.000;entryY=0.750;entryDx=0;entryDy=0;">
      <mxGeometry width="50" height="50" relative="1" as="geometry">
        <Array as="points">
          <mxPoint x="707" y="680" />
          <mxPoint x="707" y="1455" />
        </Array>
      </mxGeometry>
    </mxCell>
    <mxCell id="edge59" edge="1" value="" parent="1" source="node60" target="node2" style="html=1;rounded=1;edgeStyle=orthogonalEdgeStyle;dashed=0;startArrow=none;endArrow=blockThin;endSize=12;strokeColor=#000082;exitX=1.000;exitY=0.500;exitDx=0;exitDy=0;entryX=0.000;entryY=0.250;entryDx=0;entryDy=0;">
      <mxGeometry width="50" height="50" relative="1" as="geometry">
        <Array as="points">
          <mxPoint x="707" y="680" />
          <mxPoint x="707" y="1041" />
        </Array>
      </mxGeometry>
    </mxCell>
    <mxCell id="edge55" edge="1" value="" parent="1" source="node60" target="node36" style="html=1;rounded=1;edgeStyle=orthogonalEdgeStyle;dashed=0;startArrow=none;endArrow=blockThin;endSize=12;strokeColor=#000082;exitX=1.000;exitY=0.500;exitDx=0;exitDy=0;entryX=0.000;entryY=0.750;entryDx=0;entryDy=0;">
      <mxGeometry width="50" height="50" relative="1" as="geometry">
        <Array as="points">
          <mxPoint x="707" y="680" />
          <mxPoint x="707" y="1139" />
        </Array>
      </mxGeometry>
    </mxCell>
    <mxCell id="edge78" edge="1" value="" parent="1" source="node59" target="node31" style="html=1;rounded=1;edgeStyle=orthogonalEdgeStyle;dashed=0;startArrow=none;endArrow=blockThin;endSize=12;strokeColor=#000082;exitX=1.000;exitY=0.250;exitDx=0;exitDy=0;entryX=0.000;entryY=0.500;entryDx=0;entryDy=0;">
      <mxGeometry width="50" height="50" relative="1" as="geometry">
        <Array as="points">
          <mxPoint x="1246" y="1443" />
          <mxPoint x="1246" y="792" />
        </Array>
      </mxGeometry>
    </mxCell>
    <mxCell id="edge105" edge="1" value="" parent="1" source="node59" target="node89" style="html=1;rounded=1;edgeStyle=orthogonalEdgeStyle;dashed=0;startArrow=none;endArrow=blockThin;endSize=12;strokeColor=#000082;exitX=1.000;exitY=0.250;exitDx=0;exitDy=0;entryX=0.000;entryY=0.500;entryDx=0;entryDy=0;">
      <mxGeometry width="50" height="50" relative="1" as="geometry">
        <Array as="points">
          <mxPoint x="1306" y="1443" />
          <mxPoint x="1306" y="1843" />
        </Array>
      </mxGeometry>
    </mxCell>
    <mxCell id="edge122" edge="1" value="" parent="1" source="node59" target="node46" style="html=1;rounded=1;edgeStyle=orthogonalEdgeStyle;dashed=0;startArrow=none;endArrow=blockThin;endSize=12;strokeColor=#000082;exitX=1.000;exitY=0.250;exitDx=0;exitDy=0;entryX=0.000;entryY=0.500;entryDx=0;entryDy=0;">
      <mxGeometry width="50" height="50" relative="1" as="geometry">
        <Array as="points">
          <mxPoint x="1356" y="1443" />
          <mxPoint x="1356" y="1800" />
        </Array>
      </mxGeometry>
    </mxCell>
    <mxCell id="edge145" edge="1" value="" parent="1" source="node59" target="node54" style="html=1;rounded=1;edgeStyle=orthogonalEdgeStyle;dashed=0;startArrow=none;endArrow=blockThin;endSize=12;strokeColor=#000082;exitX=1.000;exitY=0.750;exitDx=0;exitDy=0;entryX=1.000;entryY=0.250;entryDx=0;entryDy=0;">
      <mxGeometry width="50" height="50" relative="1" as="geometry">
        <Array as="points">
          <mxPoint x="1186" y="1455" />
          <mxPoint x="1186" y="1529" />
        </Array>
      </mxGeometry>
    </mxCell>
    <mxCell id="edge7" edge="1" value="" parent="1" source="node59" target="node83" style="html=1;rounded=1;edgeStyle=orthogonalEdgeStyle;dashed=0;startArrow=none;endArrow=blockThin;endSize=12;strokeColor=#000082;exitX=1.000;exitY=0.250;exitDx=0;exitDy=0;entryX=0.000;entryY=0.500;entryDx=0;entryDy=0;">
      <mxGeometry width="50" height="50" relative="1" as="geometry">
        <Array as="points">
          <mxPoint x="1316" y="1443" />
          <mxPoint x="1316" y="1492" />
        </Array>
      </mxGeometry>
    </mxCell>
    <mxCell id="edge70" edge="1" value="" parent="1" source="node59" target="node78" style="html=1;rounded=1;edgeStyle=orthogonalEdgeStyle;dashed=0;startArrow=none;endArrow=blockThin;endSize=12;strokeColor=#000082;exitX=1.000;exitY=0.250;exitDx=0;exitDy=0;entryX=0.000;entryY=0.500;entryDx=0;entryDy=0;">
      <mxGeometry width="50" height="50" relative="1" as="geometry">
        <Array as="points">
          <mxPoint x="1356" y="1443" />
          <mxPoint x="1356" y="1635" />
        </Array>
      </mxGeometry>
    </mxCell>
    <mxCell id="edge182" edge="1" value="" parent="1" source="node48" target="node54" style="html=1;rounded=1;edgeStyle=orthogonalEdgeStyle;dashed=0;startArrow=none;endArrow=blockThin;endSize=12;strokeColor=#000082;exitX=1.000;exitY=0.500;exitDx=0;exitDy=0;entryX=0.000;entryY=0.500;entryDx=0;entryDy=0;">
      <mxGeometry width="50" height="50" relative="1" as="geometry">
        <Array as="points" />
      </mxGeometry>
    </mxCell>
    <mxCell id="edge113" edge="1" value="" parent="1" source="node54" target="node52" style="html=1;rounded=1;edgeStyle=orthogonalEdgeStyle;dashed=0;startArrow=none;endArrow=blockThin;endSize=12;strokeColor=#000082;exitX=1.000;exitY=0.750;exitDx=0;exitDy=0;entryX=0.000;entryY=0.500;entryDx=0;entryDy=0;">
      <mxGeometry width="50" height="50" relative="1" as="geometry">
        <Array as="points">
          <mxPoint x="1276" y="1541" />
          <mxPoint x="1276" y="1229" />
        </Array>
      </mxGeometry>
    </mxCell>
    <mxCell id="edge172" edge="1" value="" parent="1" source="node54" target="node83" style="html=1;rounded=1;edgeStyle=orthogonalEdgeStyle;dashed=0;startArrow=none;endArrow=blockThin;endSize=12;strokeColor=#000082;exitX=1.000;exitY=0.750;exitDx=0;exitDy=0;entryX=0.000;entryY=0.500;entryDx=0;entryDy=0;">
      <mxGeometry width="50" height="50" relative="1" as="geometry">
        <Array as="points">
          <mxPoint x="1286" y="1541" />
          <mxPoint x="1286" y="1492" />
        </Array>
      </mxGeometry>
    </mxCell>
    <mxCell id="edge173" edge="1" value="" parent="1" source="node1" target="node6" style="html=1;rounded=1;edgeStyle=orthogonalEdgeStyle;dashed=0;startArrow=none;endArrow=blockThin;endSize=12;strokeColor=#000082;exitX=1.000;exitY=0.750;exitDx=0;exitDy=0;entryX=0.000;entryY=0.500;entryDx=0;entryDy=0;">
      <mxGeometry width="50" height="50" relative="1" as="geometry">
        <Array as="points">
          <mxPoint x="1987" y="1084" />
          <mxPoint x="1987" y="905" />
        </Array>
      </mxGeometry>
    </mxCell>
    <mxCell id="edge6" edge="1" value="" parent="1" source="node18" target="node6" style="html=1;rounded=1;edgeStyle=orthogonalEdgeStyle;dashed=0;startArrow=none;endArrow=blockThin;endSize=12;strokeColor=#000082;exitX=1.000;exitY=0.750;exitDx=0;exitDy=0;entryX=0.000;entryY=0.500;entryDx=0;entryDy=0;">
      <mxGeometry width="50" height="50" relative="1" as="geometry">
        <Array as="points">
          <mxPoint x="1987" y="924" />
          <mxPoint x="1987" y="905" />
        </Array>
      </mxGeometry>
    </mxCell>
    <mxCell id="edge35" edge="1" value="" parent="1" source="node71" target="node26" style="html=1;rounded=1;edgeStyle=orthogonalEdgeStyle;dashed=0;startArrow=none;endArrow=blockThin;endSize=12;strokeColor=#000082;exitX=1.000;exitY=0.500;exitDx=0;exitDy=0;entryX=0.000;entryY=0.500;entryDx=0;entryDy=0;">
      <mxGeometry width="50" height="50" relative="1" as="geometry">
        <Array as="points" />
      </mxGeometry>
    </mxCell>
    <mxCell id="edge126" edge="1" value="" parent="1" source="node45" target="node88" style="html=1;rounded=1;edgeStyle=orthogonalEdgeStyle;dashed=0;startArrow=none;endArrow=blockThin;endSize=12;strokeColor=#000082;exitX=1.000;exitY=0.750;exitDx=0;exitDy=0;entryX=1.000;entryY=0.100;entryDx=0;entryDy=0;">
      <mxGeometry width="50" height="50" relative="1" as="geometry">
        <Array as="points">
          <mxPoint x="2607" y="447" />
          <mxPoint x="2607" y="829" />
        </Array>
      </mxGeometry>
    </mxCell>
    <mxCell id="edge178" edge="1" value="" parent="1" source="node45" target="node79" style="html=1;rounded=1;edgeStyle=orthogonalEdgeStyle;dashed=0;startArrow=none;endArrow=blockThin;endSize=12;strokeColor=#000082;exitX=1.000;exitY=0.250;exitDx=0;exitDy=0;entryX=0.000;entryY=0.500;entryDx=0;entryDy=0;">
      <mxGeometry width="50" height="50" relative="1" as="geometry">
        <Array as="points" />
      </mxGeometry>
    </mxCell>
    <mxCell id="edge111" edge="1" value="" parent="1" source="node45" target="node26" style="html=1;rounded=1;edgeStyle=orthogonalEdgeStyle;dashed=0;startArrow=none;endArrow=blockThin;endSize=12;strokeColor=#000082;exitX=1.000;exitY=0.250;exitDx=0;exitDy=0;entryX=0.000;entryY=0.500;entryDx=0;entryDy=0;">
      <mxGeometry width="50" height="50" relative="1" as="geometry">
        <Array as="points">
          <mxPoint x="2617" y="436" />
          <mxPoint x="2617" y="264" />
        </Array>
      </mxGeometry>
    </mxCell>
    <mxCell id="edge23" edge="1" value="" parent="1" source="node45" target="node71" style="html=1;rounded=1;edgeStyle=orthogonalEdgeStyle;dashed=0;startArrow=none;endArrow=blockThin;endSize=12;strokeColor=#000082;exitX=0.000;exitY=0.250;exitDx=0;exitDy=0;entryX=0.000;entryY=0.750;entryDx=0;entryDy=0;">
      <mxGeometry width="50" height="50" relative="1" as="geometry">
        <Array as="points">
          <mxPoint x="2017" y="436" />
          <mxPoint x="2017" y="270" />
        </Array>
      </mxGeometry>
    </mxCell>
    <mxCell id="edge121" edge="1" value="" parent="1" source="node45" target="node37" style="html=1;rounded=1;edgeStyle=orthogonalEdgeStyle;dashed=0;startArrow=none;endArrow=blockThin;endSize=12;strokeColor=#000082;exitX=0.000;exitY=0.750;exitDx=0;exitDy=0;entryX=1.000;entryY=0.167;entryDx=0;entryDy=0;">
      <mxGeometry width="50" height="50" relative="1" as="geometry">
        <Array as="points">
          <mxPoint x="1947" y="447" />
          <mxPoint x="1947" y="356" />
          <mxPoint x="1917" y="356" />
          <mxPoint x="1917" y="676" />
        </Array>
      </mxGeometry>
    </mxCell>
    <mxCell id="edge107" edge="1" value="" parent="1" source="node22" target="node72" style="html=1;rounded=1;edgeStyle=orthogonalEdgeStyle;dashed=0;startArrow=none;endArrow=blockThin;endSize=12;strokeColor=#000082;exitX=1.000;exitY=0.500;exitDx=0;exitDy=0;entryX=0.000;entryY=0.250;entryDx=0;entryDy=0;">
      <mxGeometry width="50" height="50" relative="1" as="geometry">
        <Array as="points">
          <mxPoint x="1897" y="620" />
          <mxPoint x="1897" y="758" />
          <mxPoint x="2007" y="758" />
          <mxPoint x="2007" y="985" />
        </Array>
      </mxGeometry>
    </mxCell>
    <mxCell id="edge112" edge="1" value="" parent="1" source="node22" target="node39" style="html=1;rounded=1;edgeStyle=orthogonalEdgeStyle;dashed=0;startArrow=none;endArrow=blockThin;endSize=12;strokeColor=#000082;exitX=1.000;exitY=0.500;exitDx=0;exitDy=0;entryX=0.000;entryY=0.875;entryDx=0;entryDy=0;">
      <mxGeometry width="50" height="50" relative="1" as="geometry">
        <Array as="points">
          <mxPoint x="1897" y="620" />
          <mxPoint x="1897" y="758" />
          <mxPoint x="2007" y="758" />
          <mxPoint x="2007" y="1209" />
        </Array>
      </mxGeometry>
    </mxCell>
    <mxCell id="edge181" edge="1" value="" parent="1" source="node22" target="node4" style="html=1;rounded=1;edgeStyle=orthogonalEdgeStyle;dashed=0;startArrow=none;endArrow=blockThin;endSize=12;strokeColor=#000082;exitX=1.000;exitY=0.500;exitDx=0;exitDy=0;entryX=0.000;entryY=0.500;entryDx=0;entryDy=0;">
      <mxGeometry width="50" height="50" relative="1" as="geometry">
        <Array as="points">
          <mxPoint x="1897" y="620" />
          <mxPoint x="1897" y="758" />
          <mxPoint x="2007" y="758" />
          <mxPoint x="2007" y="1054" />
        </Array>
      </mxGeometry>
    </mxCell>
    <mxCell id="edge158" edge="1" value="" parent="1" source="node22" target="node38" style="html=1;rounded=1;edgeStyle=orthogonalEdgeStyle;dashed=0;startArrow=none;endArrow=blockThin;endSize=12;strokeColor=#000082;exitX=1.000;exitY=0.500;exitDx=0;exitDy=0;entryX=0.000;entryY=0.500;entryDx=0;entryDy=0;">
      <mxGeometry width="50" height="50" relative="1" as="geometry">
        <Array as="points">
          <mxPoint x="1897" y="620" />
          <mxPoint x="1897" y="758" />
        </Array>
      </mxGeometry>
    </mxCell>
    <mxCell id="edge104" edge="1" value="" parent="1" source="node22" target="node73" style="html=1;rounded=1;edgeStyle=orthogonalEdgeStyle;dashed=0;startArrow=none;endArrow=blockThin;endSize=12;strokeColor=#000082;exitX=1.000;exitY=0.500;exitDx=0;exitDy=0;entryX=0.000;entryY=0.250;entryDx=0;entryDy=0;">
      <mxGeometry width="50" height="50" relative="1" as="geometry">
        <Array as="points">
          <mxPoint x="1897" y="620" />
          <mxPoint x="1897" y="758" />
          <mxPoint x="2007" y="758" />
          <mxPoint x="2007" y="599" />
        </Array>
      </mxGeometry>
    </mxCell>
    <mxCell id="edge166" edge="1" value="" parent="1" source="node22" target="node71" style="html=1;rounded=1;edgeStyle=orthogonalEdgeStyle;dashed=0;startArrow=none;endArrow=blockThin;endSize=12;strokeColor=#000082;exitX=1.000;exitY=0.500;exitDx=0;exitDy=0;entryX=0.000;entryY=0.250;entryDx=0;entryDy=0;">
      <mxGeometry width="50" height="50" relative="1" as="geometry">
        <Array as="points">
          <mxPoint x="1897" y="620" />
          <mxPoint x="1897" y="758" />
          <mxPoint x="2007" y="758" />
          <mxPoint x="2007" y="258" />
        </Array>
      </mxGeometry>
    </mxCell>
    <mxCell id="edge155" edge="1" value="" parent="1" source="node22" target="node45" style="html=1;rounded=1;edgeStyle=orthogonalEdgeStyle;dashed=0;startArrow=none;endArrow=blockThin;endSize=12;strokeColor=#000082;exitX=1.000;exitY=0.500;exitDx=0;exitDy=0;entryX=0.000;entryY=0.750;entryDx=0;entryDy=0;">
      <mxGeometry width="50" height="50" relative="1" as="geometry">
        <Array as="points">
          <mxPoint x="1897" y="620" />
          <mxPoint x="1897" y="758" />
          <mxPoint x="1937" y="758" />
          <mxPoint x="1937" y="447" />
        </Array>
      </mxGeometry>
    </mxCell>
    <mxCell id="edge86" edge="1" value="" parent="1" source="node22" target="node37" style="html=1;rounded=1;edgeStyle=orthogonalEdgeStyle;dashed=0;startArrow=none;endArrow=blockThin;endSize=12;strokeColor=#000082;exitX=0.500;exitY=1.002;exitDx=0;exitDy=0;entryX=0.500;entryY=0.002;entryDx=0;entryDy=0;">
      <mxGeometry width="50" height="50" relative="1" as="geometry">
        <Array as="points" />
      </mxGeometry>
    </mxCell>
    <mxCell id="edge25" edge="1" value="" parent="1" source="node37" target="node59" style="html=1;rounded=1;edgeStyle=orthogonalEdgeStyle;dashed=0;startArrow=none;endArrow=blockThin;endSize=12;strokeColor=#000082;exitX=0.000;exitY=0.500;exitDx=0;exitDy=0;entryX=1.000;entryY=0.250;entryDx=0;entryDy=0;">
      <mxGeometry width="50" height="50" relative="1" as="geometry">
        <Array as="points">
          <mxPoint x="1356" y="683" />
          <mxPoint x="1356" y="1443" />
        </Array>
      </mxGeometry>
    </mxCell>
    <mxCell id="edge60" edge="1" value="" parent="1" source="node37" target="node1" style="html=1;rounded=1;edgeStyle=orthogonalEdgeStyle;dashed=0;startArrow=none;endArrow=blockThin;endSize=12;strokeColor=#000082;exitX=1.000;exitY=0.500;exitDx=0;exitDy=0;entryX=1.000;entryY=0.250;entryDx=0;entryDy=0;">
      <mxGeometry width="50" height="50" relative="1" as="geometry">
        <Array as="points">
          <mxPoint x="1867" y="683" />
          <mxPoint x="1867" y="1073" />
        </Array>
      </mxGeometry>
    </mxCell>
    <mxCell id="edge116" edge="1" value="" parent="1" source="node37" target="node18" style="html=1;rounded=1;edgeStyle=orthogonalEdgeStyle;dashed=0;startArrow=none;endArrow=blockThin;endSize=12;strokeColor=#000082;exitX=1.000;exitY=0.833;exitDx=0;exitDy=0;entryX=1.000;entryY=0.250;entryDx=0;entryDy=0;">
      <mxGeometry width="50" height="50" relative="1" as="geometry">
        <Array as="points">
          <mxPoint x="1857" y="691" />
          <mxPoint x="1857" y="912" />
        </Array>
      </mxGeometry>
    </mxCell>
    <mxCell id="edge160" edge="1" value="" parent="1" source="node37" target="node61" style="html=1;rounded=1;edgeStyle=orthogonalEdgeStyle;dashed=0;startArrow=none;endArrow=blockThin;endSize=12;strokeColor=#000082;exitX=1.000;exitY=0.167;exitDx=0;exitDy=0;entryX=0.000;entryY=0.500;entryDx=0;entryDy=0;">
      <mxGeometry width="50" height="50" relative="1" as="geometry">
        <Array as="points">
          <mxPoint x="1917" y="676" />
          <mxPoint x="1917" y="356" />
          <mxPoint x="1937" y="356" />
          <mxPoint x="1937" y="307" />
        </Array>
      </mxGeometry>
    </mxCell>
    <mxCell id="edge144" edge="1" value="" parent="1" source="node61" target="node55" style="html=1;rounded=1;edgeStyle=orthogonalEdgeStyle;dashed=0;startArrow=none;endArrow=blockThin;endSize=12;strokeColor=#000082;exitX=1.000;exitY=0.500;exitDx=0;exitDy=0;entryX=0.000;entryY=0.500;entryDx=0;entryDy=0;">
      <mxGeometry width="50" height="50" relative="1" as="geometry">
        <Array as="points" />
      </mxGeometry>
    </mxCell>
    <mxCell id="edge50" edge="1" value="" parent="1" source="node12" target="node24" style="html=1;rounded=1;edgeStyle=orthogonalEdgeStyle;dashed=0;startArrow=none;endArrow=blockThin;endSize=12;strokeColor=#000082;exitX=0.500;exitY=1.002;exitDx=0;exitDy=0;entryX=0.500;entryY=0.002;entryDx=0;entryDy=0;">
      <mxGeometry width="50" height="50" relative="1" as="geometry">
        <Array as="points" />
      </mxGeometry>
    </mxCell>
    <mxCell id="edge92" edge="1" value="" parent="1" source="node12" target="node83" style="html=1;rounded=1;edgeStyle=orthogonalEdgeStyle;dashed=0;startArrow=none;endArrow=blockThin;endSize=12;strokeColor=#000082;exitX=1.000;exitY=0.500;exitDx=0;exitDy=0;entryX=1.000;entryY=0.125;entryDx=0;entryDy=0;">
      <mxGeometry width="50" height="50" relative="1" as="geometry">
        <Array as="points">
          <mxPoint x="1857" y="1292" />
          <mxPoint x="1857" y="1483" />
        </Array>
      </mxGeometry>
    </mxCell>
    <mxCell id="edge68" edge="1" value="" parent="1" source="node24" target="node83" style="html=1;rounded=1;edgeStyle=orthogonalEdgeStyle;dashed=0;startArrow=none;endArrow=blockThin;endSize=12;strokeColor=#000082;exitX=0.500;exitY=1.001;exitDx=0;exitDy=0;entryX=0.500;entryY=0.001;entryDx=0;entryDy=0;">
      <mxGeometry width="50" height="50" relative="1" as="geometry">
        <Array as="points" />
      </mxGeometry>
    </mxCell>
    <mxCell id="edge17" edge="1" value="" parent="1" source="node52" target="node12" style="html=1;rounded=1;edgeStyle=orthogonalEdgeStyle;dashed=0;startArrow=none;endArrow=blockThin;endSize=12;strokeColor=#000082;exitX=0.500;exitY=1.002;exitDx=0;exitDy=0;entryX=0.500;entryY=0.002;entryDx=0;entryDy=0;">
      <mxGeometry width="50" height="50" relative="1" as="geometry">
        <Array as="points" />
      </mxGeometry>
    </mxCell>
    <mxCell id="edge143" edge="1" value="" parent="1" source="node52" target="node24" style="html=1;rounded=1;edgeStyle=orthogonalEdgeStyle;dashed=0;startArrow=none;endArrow=blockThin;endSize=12;strokeColor=#000082;exitX=1.000;exitY=0.750;exitDx=0;exitDy=0;entryX=1.000;entryY=0.500;entryDx=0;entryDy=0;">
      <mxGeometry width="50" height="50" relative="1" as="geometry">
        <Array as="points">
          <mxPoint x="1867" y="1235" />
          <mxPoint x="1867" y="1355" />
        </Array>
      </mxGeometry>
    </mxCell>
    <mxCell id="edge18" edge="1" value="" parent="1" source="node52" target="node83" style="html=1;rounded=1;edgeStyle=orthogonalEdgeStyle;dashed=0;startArrow=none;endArrow=blockThin;endSize=12;strokeColor=#000082;exitX=1.000;exitY=0.250;exitDx=0;exitDy=0;entryX=1.000;entryY=0.375;entryDx=0;entryDy=0;">
      <mxGeometry width="50" height="50" relative="1" as="geometry">
        <Array as="points">
          <mxPoint x="1877" y="1223" />
          <mxPoint x="1877" y="1489" />
        </Array>
      </mxGeometry>
    </mxCell>
    <mxCell id="edge83" edge="1" value="" parent="1" source="node52" target="node51" style="html=1;rounded=1;edgeStyle=orthogonalEdgeStyle;dashed=0;startArrow=none;endArrow=blockThin;endSize=12;strokeColor=#000082;exitX=0.500;exitY=0.002;exitDx=0;exitDy=0;entryX=0.500;entryY=1.002;entryDx=0;entryDy=0;">
      <mxGeometry width="50" height="50" relative="1" as="geometry">
        <Array as="points" />
      </mxGeometry>
    </mxCell>
    <mxCell id="edge153" edge="1" value="" parent="1" source="node83" target="node15" style="html=1;rounded=1;edgeStyle=orthogonalEdgeStyle;dashed=0;startArrow=none;endArrow=blockThin;endSize=12;strokeColor=#000082;exitX=1.000;exitY=0.875;exitDx=0;exitDy=0;entryX=0.000;entryY=0.500;entryDx=0;entryDy=0;">
      <mxGeometry width="50" height="50" relative="1" as="geometry">
        <Array as="points" />
      </mxGeometry>
    </mxCell>
    <mxCell id="edge120" edge="1" value="" parent="1" source="node51" target="node83" style="html=1;rounded=1;edgeStyle=orthogonalEdgeStyle;dashed=0;startArrow=none;endArrow=blockThin;endSize=12;strokeColor=#000082;exitX=1.000;exitY=0.500;exitDx=0;exitDy=0;entryX=1.000;entryY=0.625;entryDx=0;entryDy=0;">
      <mxGeometry width="50" height="50" relative="1" as="geometry">
        <Array as="points">
          <mxPoint x="1887" y="1166" />
          <mxPoint x="1887" y="1495" />
        </Array>
      </mxGeometry>
    </mxCell>
    <mxCell id="edge115" edge="1" value="" parent="1" source="node2" target="node24" style="html=1;rounded=1;edgeStyle=orthogonalEdgeStyle;dashed=0;startArrow=none;endArrow=blockThin;endSize=12;strokeColor=#000082;exitX=1.000;exitY=0.500;exitDx=0;exitDy=0;entryX=0.000;entryY=0.500;entryDx=0;entryDy=0;">
      <mxGeometry width="50" height="50" relative="1" as="geometry">
        <Array as="points">
          <mxPoint x="1206" y="1047" />
          <mxPoint x="1206" y="1355" />
        </Array>
      </mxGeometry>
    </mxCell>
    <mxCell id="edge33" edge="1" value="" parent="1" source="node2" target="node83" style="html=1;rounded=1;edgeStyle=orthogonalEdgeStyle;dashed=0;startArrow=none;endArrow=blockThin;endSize=12;strokeColor=#000082;exitX=1.000;exitY=0.500;exitDx=0;exitDy=0;entryX=0.000;entryY=0.500;entryDx=0;entryDy=0;">
      <mxGeometry width="50" height="50" relative="1" as="geometry">
        <Array as="points">
          <mxPoint x="1206" y="1047" />
          <mxPoint x="1206" y="1355" />
          <mxPoint x="1326" y="1355" />
          <mxPoint x="1326" y="1492" />
        </Array>
      </mxGeometry>
    </mxCell>
    <mxCell id="edge12" edge="1" value="" parent="1" source="node36" target="node12" style="html=1;rounded=1;edgeStyle=orthogonalEdgeStyle;dashed=0;startArrow=none;endArrow=blockThin;endSize=12;strokeColor=#000082;exitX=1.000;exitY=0.500;exitDx=0;exitDy=0;entryX=0.000;entryY=0.500;entryDx=0;entryDy=0;">
      <mxGeometry width="50" height="50" relative="1" as="geometry">
        <Array as="points">
          <mxPoint x="1196" y="1133" />
          <mxPoint x="1196" y="1292" />
        </Array>
      </mxGeometry>
    </mxCell>
    <mxCell id="edge162" edge="1" value="" parent="1" source="node36" target="node24" style="html=1;rounded=1;edgeStyle=orthogonalEdgeStyle;dashed=0;startArrow=none;endArrow=blockThin;endSize=12;strokeColor=#000082;exitX=1.000;exitY=0.500;exitDx=0;exitDy=0;entryX=0.000;entryY=0.500;entryDx=0;entryDy=0;">
      <mxGeometry width="50" height="50" relative="1" as="geometry">
        <Array as="points">
          <mxPoint x="1196" y="1133" />
          <mxPoint x="1196" y="1292" />
          <mxPoint x="1346" y="1292" />
          <mxPoint x="1346" y="1355" />
        </Array>
      </mxGeometry>
    </mxCell>
    <mxCell id="edge132" edge="1" value="" parent="1" source="node36" target="node52" style="html=1;rounded=1;edgeStyle=orthogonalEdgeStyle;dashed=0;startArrow=none;endArrow=blockThin;endSize=12;strokeColor=#000082;exitX=1.000;exitY=0.500;exitDx=0;exitDy=0;entryX=0.000;entryY=0.500;entryDx=0;entryDy=0;">
      <mxGeometry width="50" height="50" relative="1" as="geometry">
        <Array as="points">
          <mxPoint x="1196" y="1133" />
          <mxPoint x="1196" y="1292" />
          <mxPoint x="1266" y="1292" />
          <mxPoint x="1266" y="1229" />
        </Array>
      </mxGeometry>
    </mxCell>
    <mxCell id="edge1" edge="1" value="" parent="1" source="node36" target="node83" style="html=1;rounded=1;edgeStyle=orthogonalEdgeStyle;dashed=0;startArrow=none;endArrow=blockThin;endSize=12;strokeColor=#000082;exitX=1.000;exitY=0.500;exitDx=0;exitDy=0;entryX=0.000;entryY=0.500;entryDx=0;entryDy=0;">
      <mxGeometry width="50" height="50" relative="1" as="geometry">
        <Array as="points">
          <mxPoint x="1196" y="1133" />
          <mxPoint x="1196" y="1292" />
          <mxPoint x="1336" y="1292" />
          <mxPoint x="1336" y="1492" />
        </Array>
      </mxGeometry>
    </mxCell>
    <mxCell id="edge5" edge="1" value="" parent="1" source="node36" target="node51" style="html=1;rounded=1;edgeStyle=orthogonalEdgeStyle;dashed=0;startArrow=none;endArrow=blockThin;endSize=12;strokeColor=#000082;exitX=1.000;exitY=0.500;exitDx=0;exitDy=0;entryX=0.000;entryY=0.500;entryDx=0;entryDy=0;">
      <mxGeometry width="50" height="50" relative="1" as="geometry">
        <Array as="points">
          <mxPoint x="1196" y="1133" />
          <mxPoint x="1196" y="1292" />
          <mxPoint x="1256" y="1292" />
          <mxPoint x="1256" y="1166" />
        </Array>
      </mxGeometry>
    </mxCell>
    <mxCell id="edge151" edge="1" value="" parent="1" source="node36" target="node2" style="html=1;rounded=1;edgeStyle=orthogonalEdgeStyle;dashed=0;startArrow=none;endArrow=blockThin;endSize=12;strokeColor=#000082;exitX=0.000;exitY=0.250;exitDx=0;exitDy=0;entryX=0.000;entryY=0.750;entryDx=0;entryDy=0;">
      <mxGeometry width="50" height="50" relative="1" as="geometry">
        <Array as="points">
          <mxPoint x="727" y="1127" />
          <mxPoint x="727" y="1053" />
        </Array>
      </mxGeometry>
    </mxCell>
  </root>
</mxGraphModel>